SourceSerif-Italic_c2.ufo
<glyph name="dollar" format="2">
	<unicode hex="0024"/>
	<advance width="600"/>
	<outline>
		<contour>
			<point x="216" y="-116" type="line"/>
			<point x="276" y="-116" type="line"/>
			<point x="338" y="312" type="line"/>
			<point x="286" y="312" type="line"/>
		</contour>
		<contour>
			<point x="265" y="-12" type="curve" smooth="yes"/>
			<point x="416" y="-12"/>
			<point x="543" y="54"/>
			<point x="543" y="184" type="curve" smooth="yes"/>
			<point x="543" y="287"/>
			<point x="484" y="318"/>
			<point x="377" y="382" type="curve" smooth="yes"/>
			<point x="367" y="388" type="line" smooth="yes"/>
			<point x="308" y="423"/>
			<point x="278" y="448"/>
			<point x="278" y="488" type="curve" smooth="yes"/>
			<point x="278" y="536"/>
			<point x="315" y="576"/>
			<point x="393" y="576" type="curve" smooth="yes"/>
			<point x="449" y="576"/>
			<point x="481" y="568"/>
			<point x="497" y="560" type="curve"/>
			<point x="450" y="600" type="line"/>
			<point x="463" y="512" type="line" smooth="yes"/>
			<point x="469" y="470"/>
			<point x="487" y="452"/>
			<point x="525" y="452" type="curve" smooth="yes"/>
			<point x="563" y="452"/>
			<point x="586" y="476"/>
			<point x="591" y="520" type="curve"/>
			<point x="577" y="584"/>
			<point x="507" y="640"/>
			<point x="379" y="640" type="curve" smooth="yes"/>
			<point x="241" y="640"/>
			<point x="118" y="574"/>
			<point x="118" y="450" type="curve" smooth="yes"/>
			<point x="118" y="346"/>
			<point x="168" y="314"/>
			<point x="271" y="252" type="curve" smooth="yes"/>
			<point x="281" y="246" type="line" smooth="yes"/>
			<point x="344" y="208"/>
			<point x="370" y="180"/>
			<point x="370" y="140" type="curve" smooth="yes"/>
			<point x="370" y="92"/>
			<point x="331" y="52"/>
			<point x="251" y="52" type="curve" smooth="yes"/>
			<point x="195" y="52"/>
			<point x="163" y="60"/>
			<point x="147" y="68" type="curve"/>
			<point x="198" y="24" type="line"/>
			<point x="182" y="132" type="line" smooth="yes"/>
			<point x="176" y="174"/>
			<point x="158" y="192"/>
			<point x="120" y="192" type="curve" smooth="yes"/>
			<point x="82" y="192"/>
			<point x="59" y="168"/>
			<point x="53" y="124" type="curve"/>
			<point x="67" y="52"/>
			<point x="129" y="-12"/>
		</contour>
		<contour>
			<point x="310" y="316" type="line"/>
			<point x="362" y="316" type="line"/>
			<point x="432" y="744" type="line"/>
			<point x="372" y="744" type="line"/>
		</contour>
	</outline>
</glyph>
<glyph name="ampersand" format="2">
	<unicode hex="0026"/>
	<advance width="818"/>
	<outline>
		<contour>
			<point x="345" y="-16" type="curve" smooth="yes"/>
			<point x="562" y="-16"/>
			<point x="638" y="100"/>
			<point x="638" y="188" type="curve" smooth="yes"/>
			<point x="638" y="252"/>
			<point x="600" y="279"/>
			<point x="532" y="296" type="curve"/>
			<point x="534" y="312" type="line"/>
			<point x="666" y="325"/>
			<point x="762" y="385"/>
			<point x="818" y="480" type="curve"/>
			<point x="702" y="532" type="line"/>
			<point x="669" y="425"/>
			<point x="603" y="357"/>
			<point x="506" y="336" type="curve"/>
			<point x="494" y="276" type="line"/>
			<point x="540" y="269"/>
			<point x="554" y="243"/>
			<point x="554" y="205" type="curve" smooth="yes"/>
			<point x="554" y="163"/>
			<point x="516" y="100"/>
			<point x="418" y="100" type="curve" smooth="yes"/>
			<point x="314" y="100"/>
			<point x="242" y="156"/>
			<point x="242" y="252" type="curve" smooth="yes"/>
			<point x="242" y="297"/>
			<point x="258" y="328"/>
			<point x="291" y="360" type="curve"/>
			<point x="275" y="369" type="line"/>
			<point x="315" y="337"/>
			<point x="356" y="320"/>
			<point x="403" y="320" type="curve" smooth="yes"/>
			<point x="456" y="320"/>
			<point x="480" y="337"/>
			<point x="480" y="369" type="curve" smooth="yes"/>
			<point x="480" y="402"/>
			<point x="448" y="424"/>
			<point x="368" y="424" type="curve" smooth="yes"/>
			<point x="350" y="424"/>
			<point x="333" y="422"/>
			<point x="315" y="421" type="curve"/>
			<point x="341" y="411" type="line"/>
			<point x="336" y="434"/>
			<point x="334" y="448"/>
			<point x="334" y="466" type="curve" smooth="yes"/>
			<point x="334" y="564"/>
			<point x="394" y="624"/>
			<point x="474" y="624" type="curve" smooth="yes"/>
			<point x="498" y="624"/>
			<point x="514" y="620"/>
			<point x="530" y="616" type="curve"/>
			<point x="450" y="648" type="line"/>
			<point x="474" y="568" type="line" smooth="yes"/>
			<point x="488" y="522"/>
			<point x="514" y="508"/>
			<point x="546" y="508" type="curve" smooth="yes"/>
			<point x="578" y="508"/>
			<point x="602" y="528"/>
			<point x="610" y="564" type="curve"/>
			<point x="594" y="620"/>
			<point x="538" y="668"/>
			<point x="418" y="668" type="curve" smooth="yes"/>
			<point x="284" y="668"/>
			<point x="196" y="600"/>
			<point x="196" y="510" type="curve" smooth="yes"/>
			<point x="196" y="459"/>
			<point x="223" y="428"/>
			<point x="288" y="395" type="curve"/>
			<point x="284" y="381" type="line"/>
			<point x="135" y="362"/>
			<point x="70" y="295"/>
			<point x="70" y="193" type="curve" smooth="yes"/>
			<point x="70" y="67"/>
			<point x="164" y="-16"/>
		</contour>
	</outline>
</glyph>
<glyph name="quotesingle" format="2">
	<unicode hex="0027"/>
	<advance width="287"/>
	<outline>
		<contour>
			<point x="227" y="728" type="curve" smooth="yes"/>
			<point x="171" y="728"/>
			<point x="145" y="688"/>
			<point x="135" y="652" type="curve" smooth="yes"/>
			<point x="125" y="616"/>
			<point x="119" y="540"/>
			<point x="119" y="448" type="curve" smooth="yes"/>
			<point x="119" y="380" type="line"/>
			<point x="195" y="380" type="line"/>
			<point x="259" y="500"/>
			<point x="311" y="596"/>
			<point x="311" y="654" type="curve" smooth="yes"/>
			<point x="311" y="696"/>
			<point x="281" y="728"/>
		</contour>
	</outline>
</glyph>
<glyph name="parenleft" format="2">
	<unicode hex="0028"/>
	<advance width="426"/>
	<outline>
		<contour>
			<point x="250" y="-160" type="curve"/>
			<point x="308" y="-118" type="line"/>
			<point x="258" y="-24"/>
			<point x="234" y="64"/>
			<point x="234" y="192" type="curve" smooth="yes"/>
			<point x="234" y="344"/>
			<point x="298" y="536"/>
			<point x="454" y="660" type="curve"/>
			<point x="414" y="716" type="line"/>
			<point x="210" y="608"/>
			<point x="74" y="416"/>
			<point x="74" y="216" type="curve" smooth="yes"/>
			<point x="74" y="32"/>
			<point x="162" y="-80"/>
		</contour>
	</outline>
</glyph>
<glyph name="asterisk" format="2">
	<unicode hex="002A"/>
	<advance width="466"/>
	<outline>
		<contour>
			<point x="270" y="732" type="curve" smooth="yes"/>
			<point x="236" y="732"/>
			<point x="208" y="708"/>
			<point x="208" y="672" type="curve" smooth="yes"/>
			<point x="208" y="628"/>
			<point x="236" y="592"/>
			<point x="296" y="524" type="curve"/>
			<point x="208" y="584"/>
			<point x="180" y="598"/>
			<point x="144" y="598" type="curve" smooth="yes"/>
			<point x="108" y="598"/>
			<point x="80" y="576"/>
			<point x="80" y="540" type="curve" smooth="yes"/>
			<point x="80" y="484"/>
			<point x="152" y="468"/>
			<point x="295" y="520" type="curve"/>
			<point x="188" y="448"/>
			<point x="164" y="416"/>
			<point x="164" y="380" type="curve" smooth="yes"/>
			<point x="164" y="346"/>
			<point x="188" y="328"/>
			<point x="220" y="328" type="curve" smooth="yes"/>
			<point x="288" y="328"/>
			<point x="292" y="400"/>
			<point x="299" y="518" type="curve"/>
			<point x="340" y="384"/>
			<point x="364" y="356"/>
			<point x="414" y="356" type="curve" smooth="yes"/>
			<point x="448" y="356"/>
			<point x="472" y="380"/>
			<point x="472" y="412" type="curve" smooth="yes"/>
			<point x="472" y="468"/>
			<point x="420" y="488"/>
			<point x="302" y="521" type="curve"/>
			<point x="456" y="524"/>
			<point x="496" y="552"/>
			<point x="496" y="600" type="curve" smooth="yes"/>
			<point x="496" y="632"/>
			<point x="472" y="650"/>
			<point x="438" y="650" type="curve" smooth="yes"/>
			<point x="388" y="650"/>
			<point x="356" y="604"/>
			<point x="300" y="524" type="curve"/>
			<point x="336" y="624"/>
			<point x="336" y="656"/>
			<point x="332" y="684" type="curve" smooth="yes"/>
			<point x="328" y="712"/>
			<point x="304" y="732"/>
		</contour>
	</outline>
</glyph>
<glyph name="plus" format="2">
	<unicode hex="002B"/>
	<advance width="600"/>
	<outline>
		<contour>
			<point x="267" y="68" type="line"/>
			<point x="381" y="68" type="line"/>
			<point x="381" y="564" type="line"/>
			<point x="267" y="564" type="line"/>
		</contour>
		<contour>
			<point x="569" y="262" type="line"/>
			<point x="569" y="370" type="line"/>
			<point x="79" y="370" type="line"/>
			<point x="79" y="262" type="line"/>
		</contour>
	</outline>
</glyph>
<glyph name="comma" format="2">
	<unicode hex="002C"/>
	<advance width="316"/>
	<outline>
		<contour>
			<point x="245" y="80" type="curve" smooth="yes"/>
			<point x="245" y="112"/>
			<point x="241" y="145"/>
			<point x="233" y="168" type="curve"/>
			<point x="217" y="176"/>
			<point x="193" y="184"/>
			<point x="161" y="184" type="curve" smooth="yes"/>
			<point x="93" y="184"/>
			<point x="49" y="140"/>
			<point x="49" y="80" type="curve" smooth="yes"/>
			<point x="49" y="28"/>
			<point x="85" y="0"/>
			<point x="126" y="0" type="curve"/>
			<point x="145" y="-40" type="line"/>
			<point x="155" y="16" type="line"/>
			<point x="123" y="-48"/>
			<point x="57" y="-88"/>
			<point x="-23" y="-120" type="curve"/>
			<point x="9" y="-176" type="line"/>
			<point x="137" y="-136"/>
			<point x="245" y="-56"/>
		</contour>
	</outline>
</glyph>
<glyph name="hyphen" format="2">
	<unicode hex="002D"/>
	<unicode hex="00AD"/>
	<unicode hex="2010"/>
	<advance width="358"/>
	<outline>
		<contour>
			<point x="47" y="218" type="line"/>
			<point x="319" y="218" type="line"/>
			<point x="319" y="338" type="line"/>
			<point x="47" y="338" type="line"/>
		</contour>
	</outline>
</glyph>
<glyph name="period" format="2">
	<unicode hex="002E"/>
	<advance width="314"/>
	<outline>
		<contour>
			<point x="132" y="-16" type="curve" smooth="yes"/>
			<point x="189" y="-16"/>
			<point x="240" y="29"/>
			<point x="240" y="89" type="curve" smooth="yes"/>
			<point x="240" y="137"/>
			<point x="202" y="178"/>
			<point x="149" y="178" type="curve" smooth="yes"/>
			<point x="92" y="178"/>
			<point x="41" y="131"/>
			<point x="41" y="71" type="curve" smooth="yes"/>
			<point x="41" y="25"/>
			<point x="78" y="-16"/>
		</contour>
	</outline>
</glyph>
<glyph name="one" format="2">
	<unicode hex="0031"/>
	<advance width="560"/>
	<outline>
		<contour>
			<point x="148" y="0" type="line"/>
			<point x="344" y="0" type="line"/>
			<point x="388" y="216" type="line"/>
			<point x="444" y="490" type="line"/>
			<point x="472" y="628" type="line"/>
			<point x="416" y="628" type="line"/>
			<point x="180" y="556" type="line"/>
			<point x="168" y="484" type="line"/>
			<point x="312" y="500" type="line"/>
			<point x="260" y="540" type="line"/>
		</contour>
		<contour>
			<point x="68" y="0" type="line"/>
			<point x="426" y="0" type="line"/>
			<point x="440" y="76" type="line"/>
			<point x="308" y="76" type="line"/>
			<point x="212" y="76" type="line"/>
			<point x="82" y="76" type="line"/>
		</contour>
	</outline>
</glyph>
<glyph name="question" format="2">
	<unicode hex="003F"/>
	<advance width="464"/>
	<outline>
		<contour>
			<point x="120" y="212" type="curve"/>
			<point x="179" y="212" type="line"/>
			<point x="188" y="244"/>
			<point x="204" y="260"/>
			<point x="280" y="292" type="curve" smooth="yes"/>
			<point x="336" y="316" type="line" smooth="yes"/>
			<point x="448" y="364"/>
			<point x="496" y="420"/>
			<point x="496" y="512" type="curve" smooth="yes"/>
			<point x="496" y="604"/>
			<point x="420" y="668"/>
			<point x="308" y="668" type="curve" smooth="yes"/>
			<point x="212" y="668"/>
			<point x="140" y="624"/>
			<point x="116" y="552" type="curve"/>
			<point x="124" y="516"/>
			<point x="148" y="492"/>
			<point x="192" y="492" type="curve" smooth="yes"/>
			<point x="236" y="492"/>
			<point x="264" y="516"/>
			<point x="276" y="560" type="curve" smooth="yes"/>
			<point x="300" y="648" type="line"/>
			<point x="220" y="616" type="line"/>
			<point x="236" y="620"/>
			<point x="260" y="624"/>
			<point x="292" y="624" type="curve" smooth="yes"/>
			<point x="364" y="624"/>
			<point x="392" y="596"/>
			<point x="392" y="552" type="curve" smooth="yes"/>
			<point x="392" y="508"/>
			<point x="364" y="480"/>
			<point x="300" y="452" type="curve" smooth="yes"/>
			<point x="244" y="428" type="line" smooth="yes"/>
			<point x="160" y="392"/>
			<point x="124" y="348"/>
		</contour>
		<contour>
			<point x="44" y="70" type="curve" smooth="yes"/>
			<point x="44" y="24"/>
			<point x="76" y="-12"/>
			<point x="130" y="-12" type="curve" smooth="yes"/>
			<point x="188" y="-12"/>
			<point x="232" y="32"/>
			<point x="232" y="90" type="curve" smooth="yes"/>
			<point x="232" y="136"/>
			<point x="200" y="172"/>
			<point x="146" y="172" type="curve" smooth="yes"/>
			<point x="88" y="172"/>
			<point x="44" y="128"/>
		</contour>
	</outline>
</glyph>
<glyph name="at" format="2">
	<unicode hex="0040"/>
	<advance width="942"/>
	<outline>
		<contour>
			<point x="364" y="32" type="curve" smooth="yes"/>
			<point x="428" y="32"/>
			<point x="464" y="72"/>
			<point x="488" y="120" type="curve"/>
			<point x="536" y="120" type="line"/>
			<point x="536" y="176" type="line"/>
			<point x="524" y="168"/>
			<point x="500" y="152"/>
			<point x="468" y="152" type="curve" smooth="yes"/>
			<point x="436" y="152"/>
			<point x="412" y="176"/>
			<point x="412" y="232" type="curve" smooth="yes"/>
			<point x="412" y="320"/>
			<point x="460" y="424"/>
			<point x="548" y="424" type="curve" smooth="yes"/>
			<point x="588" y="424"/>
			<point x="620" y="416"/>
			<point x="640" y="408" type="curve"/>
			<point x="640" y="460" type="line"/>
			<point x="620" y="484"/>
			<point x="596" y="500"/>
			<point x="556" y="500" type="curve" smooth="yes"/>
			<point x="412" y="500"/>
			<point x="248" y="360"/>
			<point x="248" y="176" type="curve" smooth="yes"/>
			<point x="248" y="88"/>
			<point x="292" y="32"/>
		</contour>
		<contour>
			<point x="644" y="32" type="curve" smooth="yes"/>
			<point x="804" y="32"/>
			<point x="916" y="172"/>
			<point x="916" y="352" type="curve" smooth="yes"/>
			<point x="916" y="532"/>
			<point x="788" y="652"/>
			<point x="584" y="652" type="curve" smooth="yes"/>
			<point x="268" y="652"/>
			<point x="68" y="412"/>
			<point x="68" y="156" type="curve" smooth="yes"/>
			<point x="68" y="-12"/>
			<point x="196" y="-160"/>
			<point x="420" y="-160" type="curve" smooth="yes"/>
			<point x="508" y="-160"/>
			<point x="572" y="-140"/>
			<point x="620" y="-120" type="curve"/>
			<point x="604" y="-60" type="line"/>
			<point x="568" y="-76"/>
			<point x="508" y="-88"/>
			<point x="444" y="-88" type="curve" smooth="yes"/>
			<point x="268" y="-88"/>
			<point x="168" y="20"/>
			<point x="168" y="180" type="curve" smooth="yes"/>
			<point x="168" y="380"/>
			<point x="324" y="584"/>
			<point x="576" y="584" type="curve" smooth="yes"/>
			<point x="740" y="584"/>
			<point x="832" y="500"/>
			<point x="832" y="348" type="curve" smooth="yes"/>
			<point x="832" y="228"/>
			<point x="764" y="124"/>
			<point x="708" y="124" type="curve" smooth="yes"/>
			<point x="676" y="124"/>
			<point x="666" y="146"/>
			<point x="680" y="208" type="curve" smooth="yes"/>
			<point x="742" y="488" type="line"/>
			<point x="694" y="488" type="line"/>
			<point x="568" y="424" type="line"/>
			<point x="520" y="208" type="line" smooth="yes"/>
			<point x="494" y="90"/>
			<point x="540" y="32"/>
		</contour>
	</outline>
</glyph>
<glyph name="A" format="2">
	<unicode hex="0041"/>
	<advance width="732"/>
	<outline>
		<contour>
			<point x="-4" y="0" type="line"/>
			<point x="226" y="0" type="line"/>
			<point x="240" y="76" type="line"/>
			<point x="148" y="76" type="line"/>
			<point x="92" y="76" type="line"/>
			<point x="10" y="76" type="line"/>
		</contour>
		<contour>
			<point x="36" y="0" type="line"/>
			<point x="124" y="0" type="line"/>
			<point x="380" y="552" type="line"/>
			<point x="396" y="552" type="line"/>
			<point x="460" y="0" type="line"/>
			<point x="632" y="0" type="line"/>
			<point x="532" y="652" type="line"/>
			<point x="356" y="652" type="line"/>
		</contour>
		<contour>
			<point x="200" y="172" type="line"/>
			<point x="492" y="172" type="line"/>
			<point x="492" y="240" type="line"/>
			<point x="200" y="240" type="line"/>
		</contour>
		<contour>
			<point x="356" y="0" type="line"/>
			<point x="678" y="0" type="line"/>
			<point x="692" y="76" type="line"/>
			<point x="568" y="76" type="line"/>
			<point x="496" y="76" type="line"/>
			<point x="370" y="76" type="line"/>
		</contour>
	</outline>
	<anchor name="aboveUC" x="428" y="682"/>
	<anchor name="belowLC" x="259" y="-22"/>
	<anchor name="ogonek" x="533" y="0"/>
	<anchor name="aboveUC" x="448" y="682"/>
	<anchor name="belowLC" x="279" y="-22"/>
	<anchor name="ogonek" x="553" y="0"/>
</glyph>
<glyph name="B" format="2">
	<unicode hex="0042"/>
	<advance width="696"/>
	<outline>
		<contour>
			<point x="4" y="0" type="line"/>
			<point x="160" y="0" type="line"/>
			<point x="160" y="76" type="line"/>
			<point x="144" y="76" type="line"/>
			<point x="18" y="76" type="line"/>
		</contour>
		<contour>
			<point x="80" y="0" type="line"/>
			<point x="276" y="0" type="line"/>
			<point x="293" y="95"/>
			<point x="311" y="189"/>
			<point x="328" y="284" type="curve" smooth="yes"/>
			<point x="396" y="652" type="line"/>
			<point x="200" y="652" type="line"/>
			<point x="183" y="557"/>
			<point x="165" y="463"/>
			<point x="148" y="368" type="curve" smooth="yes"/>
		</contour>
		<contour>
			<point x="104" y="576" type="line"/>
			<point x="236" y="576" type="line"/>
			<point x="252" y="576" type="line"/>
			<point x="252" y="652" type="line"/>
			<point x="118" y="652" type="line"/>
		</contour>
		<contour>
			<point x="204" y="0" type="line"/>
			<point x="340" y="0" type="line" smooth="yes"/>
			<point x="580" y="0"/>
			<point x="660" y="96"/>
			<point x="660" y="196" type="curve" smooth="yes"/>
			<point x="660" y="296"/>
			<point x="568" y="332"/>
			<point x="436" y="332" type="curve"/>
			<point x="436" y="356" type="line"/>
			<point x="584" y="364"/>
			<point x="668" y="412"/>
			<point x="668" y="512" type="curve" smooth="yes"/>
			<point x="668" y="596"/>
			<point x="588" y="652"/>
			<point x="416" y="652" type="curve" smooth="yes"/>
			<point x="316" y="652" type="line"/>
			<point x="316" y="580" type="line"/>
			<point x="400" y="580" type="line" smooth="yes"/>
			<point x="460" y="580"/>
			<point x="492" y="548"/>
			<point x="492" y="488" type="curve" smooth="yes"/>
			<point x="492" y="420"/>
			<point x="444" y="368"/>
			<point x="372" y="368" type="curve" smooth="yes"/>
			<point x="264" y="368" type="line"/>
			<point x="264" y="312" type="line"/>
			<point x="372" y="312" type="line" smooth="yes"/>
			<point x="444" y="312"/>
			<point x="476" y="272"/>
			<point x="476" y="204" type="curve" smooth="yes"/>
			<point x="476" y="128"/>
			<point x="420" y="72"/>
			<point x="332" y="72" type="curve" smooth="yes"/>
			<point x="204" y="72" type="line"/>
		</contour>
	</outline>
	<anchor name="aboveUC" x="372" y="682"/>
	<anchor name="belowLC" x="298" y="-22"/>
</glyph>
<glyph name="C" format="2">
	<unicode hex="0043"/>
	<advance width="646"/>
	<outline>
		<contour>
			<point x="382" y="-16" type="curve" smooth="yes"/>
			<point x="478" y="-16"/>
			<point x="538" y="8"/>
			<point x="578" y="28" type="curve"/>
			<point x="606" y="192" type="line"/>
			<point x="522" y="192" type="line"/>
			<point x="458" y="36" type="line"/>
			<point x="538" y="84" type="line"/>
			<point x="494" y="68"/>
			<point x="454" y="60"/>
			<point x="414" y="60" type="curve" smooth="yes"/>
			<point x="298" y="60"/>
			<point x="252" y="132"/>
			<point x="252" y="264" type="curve" smooth="yes"/>
			<point x="252" y="428"/>
			<point x="340" y="592"/>
			<point x="486" y="592" type="curve" smooth="yes"/>
			<point x="534" y="592"/>
			<point x="566" y="584"/>
			<point x="606" y="568" type="curve"/>
			<point x="534" y="616" type="line"/>
			<point x="558" y="460" type="line"/>
			<point x="638" y="460" type="line"/>
			<point x="662" y="624" type="line"/>
			<point x="622" y="648"/>
			<point x="550" y="668"/>
			<point x="462" y="668" type="curve" smooth="yes"/>
			<point x="206" y="668"/>
			<point x="58" y="488"/>
			<point x="58" y="262" type="curve" smooth="yes"/>
			<point x="58" y="83"/>
			<point x="162" y="-16"/>
		</contour>
	</outline>
	<anchor name="aboveUC" x="467" y="672"/>
	<anchor name="belowLC" x="360" y="-20"/>
	<anchor name="baseLC" x="367" y="0"/>
</glyph>
<glyph name="D" format="2">
	<unicode hex="0044"/>
	<advance width="796"/>
	<outline>
		<contour>
			<point x="4" y="0" type="line"/>
			<point x="160" y="0" type="line"/>
			<point x="160" y="76" type="line"/>
			<point x="144" y="76" type="line"/>
			<point x="18" y="76" type="line"/>
		</contour>
		<contour>
			<point x="80" y="0" type="line"/>
			<point x="276" y="0" type="line"/>
			<point x="328" y="284" type="line"/>
			<point x="396" y="652" type="line"/>
			<point x="200" y="652" type="line"/>
			<point x="148" y="368" type="line"/>
		</contour>
		<contour>
			<point x="104" y="576" type="line"/>
			<point x="236" y="576" type="line"/>
			<point x="252" y="576" type="line"/>
			<point x="252" y="652" type="line"/>
			<point x="118" y="652" type="line"/>
		</contour>
		<contour>
			<point x="208" y="0" type="line"/>
			<point x="348" y="0" type="line" smooth="yes"/>
			<point x="608" y="0"/>
			<point x="764" y="156"/>
			<point x="764" y="372" type="curve" smooth="yes"/>
			<point x="764" y="544"/>
			<point x="640" y="652"/>
			<point x="416" y="652" type="curve" smooth="yes"/>
			<point x="320" y="652" type="line"/>
			<point x="320" y="580" type="line"/>
			<point x="408" y="580" type="line" smooth="yes"/>
			<point x="520" y="580"/>
			<point x="568" y="520"/>
			<point x="568" y="380" type="curve" smooth="yes"/>
			<point x="568" y="212"/>
			<point x="480" y="72"/>
			<point x="340" y="72" type="curve" smooth="yes"/>
			<point x="208" y="72" type="line"/>
		</contour>
	</outline>
	<anchor name="aboveUC" x="400" y="682"/>
	<anchor name="belowLC" x="279" y="-22"/>
	<anchor name="aboveUC" x="400" y="682"/>
	<anchor name="belowLC" x="279" y="-22"/>
</glyph>
<glyph name="E" format="2">
	<unicode hex="0045"/>
	<advance width="664"/>
	<outline>
		<contour>
			<point x="4" y="0" type="line"/>
			<point x="160" y="0" type="line"/>
			<point x="160" y="76" type="line"/>
			<point x="144" y="76" type="line"/>
			<point x="18" y="76" type="line"/>
		</contour>
		<contour>
			<point x="80" y="0" type="line"/>
			<point x="276" y="0" type="line"/>
			<point x="293" y="95"/>
			<point x="311" y="189"/>
			<point x="328" y="284" type="curve" smooth="yes"/>
			<point x="396" y="652" type="line"/>
			<point x="200" y="652" type="line"/>
			<point x="183" y="557"/>
			<point x="165" y="463"/>
			<point x="148" y="368" type="curve" smooth="yes"/>
		</contour>
		<contour>
			<point x="104" y="576" type="line"/>
			<point x="236" y="576" type="line"/>
			<point x="252" y="576" type="line"/>
			<point x="252" y="652" type="line"/>
			<point x="118" y="652" type="line"/>
		</contour>
		<contour>
			<point x="228" y="0" type="line"/>
			<point x="560" y="0" type="line"/>
			<point x="596" y="176" type="line"/>
			<point x="512" y="176" type="line"/>
			<point x="432" y="32" type="line"/>
			<point x="532" y="72" type="line"/>
			<point x="228" y="72" type="line"/>
		</contour>
		<contour>
			<point x="260" y="300" type="line"/>
			<point x="428" y="300" type="line"/>
			<point x="428" y="368" type="line"/>
			<point x="260" y="368" type="line"/>
		</contour>
		<contour>
			<point x="324" y="580" type="line"/>
			<point x="584" y="580" type="line"/>
			<point x="516" y="632" type="line"/>
			<point x="548" y="480" type="line"/>
			<point x="628" y="480" type="line"/>
			<point x="652" y="652" type="line"/>
			<point x="324" y="652" type="line"/>
		</contour>
		<contour>
			<point x="408" y="228" type="line"/>
			<point x="484" y="228" type="line"/>
			<point x="524" y="436" type="line"/>
			<point x="448" y="436" type="line"/>
			<point x="400" y="344" type="line"/>
			<point x="400" y="320" type="line"/>
		</contour>
	</outline>
	<anchor name="aboveUC" x="380" y="672"/>
	<anchor name="belowLC" x="273" y="-20"/>
	<anchor name="ogonek" x="425" y="0"/>
</glyph>
<glyph name="G" format="2">
	<unicode hex="0047"/>
	<advance width="744"/>
	<outline>
		<contour>
			<point x="56" y="272" type="curve" smooth="yes"/>
			<point x="56" y="100"/>
			<point x="176" y="-16"/>
			<point x="392" y="-16" type="curve" smooth="yes"/>
			<point x="496" y="-16"/>
			<point x="560" y="8"/>
			<point x="604" y="27" type="curve"/>
			<point x="660" y="336" type="line"/>
			<point x="480" y="336" type="line"/>
			<point x="444" y="92" type="line"/>
			<point x="432" y="12" type="line"/>
			<point x="520" y="68" type="line"/>
			<point x="504" y="60"/>
			<point x="472" y="52"/>
			<point x="424" y="52" type="curve" smooth="yes"/>
			<point x="288" y="52"/>
			<point x="240" y="140"/>
			<point x="240" y="264" type="curve" smooth="yes"/>
			<point x="240" y="428"/>
			<point x="332" y="592"/>
			<point x="500" y="592" type="curve" smooth="yes"/>
			<point x="572" y="592"/>
			<point x="604" y="584"/>
			<point x="636" y="568" type="curve"/>
			<point x="564" y="616" type="line"/>
			<point x="588" y="452" type="line"/>
			<point x="668" y="452" type="line"/>
			<point x="692" y="624" type="line"/>
			<point x="652" y="644"/>
			<point x="580" y="668"/>
			<point x="484" y="668" type="curve" smooth="yes"/>
			<point x="204" y="668"/>
			<point x="56" y="492"/>
		</contour>
		<contour>
			<point x="376" y="260" type="line"/>
			<point x="520" y="260" type="line"/>
			<point x="596" y="260" type="line"/>
			<point x="706" y="260" type="line"/>
			<point x="720" y="336" type="line"/>
			<point x="390" y="336" type="line"/>
		</contour>
	</outline>
	<anchor name="aboveUC" x="439" y="682"/>
	<anchor name="belowLC" x="357" y="-22"/>
</glyph>
<glyph name="H" format="2">
	<unicode hex="0048"/>
	<advance width="824"/>
	<outline>
		<contour>
			<point x="4" y="0" type="line"/>
			<point x="350" y="0" type="line"/>
			<point x="364" y="76" type="line"/>
			<point x="240" y="76" type="line"/>
			<point x="144" y="76" type="line"/>
			<point x="18" y="76" type="line"/>
		</contour>
		<contour>
			<point x="80" y="0" type="line"/>
			<point x="276" y="0" type="line"/>
			<point x="293" y="95"/>
			<point x="311" y="189"/>
			<point x="328" y="284" type="curve" smooth="yes"/>
			<point x="396" y="652" type="line"/>
			<point x="200" y="652" type="line"/>
			<point x="183" y="557"/>
			<point x="165" y="463"/>
			<point x="148" y="368" type="curve" smooth="yes"/>
		</contour>
		<contour>
			<point x="104" y="576" type="line"/>
			<point x="236" y="576" type="line"/>
			<point x="332" y="576" type="line"/>
			<point x="450" y="576" type="line"/>
			<point x="464" y="652" type="line"/>
			<point x="118" y="652" type="line"/>
		</contour>
		<contour>
			<point x="268" y="292" type="line"/>
			<point x="592" y="292" type="line"/>
			<point x="592" y="364" type="line"/>
			<point x="268" y="364" type="line"/>
		</contour>
		<contour>
			<point x="412" y="0" type="line"/>
			<point x="758" y="0" type="line"/>
			<point x="772" y="76" type="line"/>
			<point x="640" y="76" type="line"/>
			<point x="544" y="76" type="line"/>
			<point x="426" y="76" type="line"/>
		</contour>
		<contour>
			<point x="480" y="0" type="line"/>
			<point x="676" y="0" type="line"/>
			<point x="693" y="95"/>
			<point x="711" y="189"/>
			<point x="728" y="284" type="curve" smooth="yes"/>
			<point x="796" y="652" type="line"/>
			<point x="600" y="652" type="line"/>
			<point x="583" y="557"/>
			<point x="565" y="463"/>
			<point x="548" y="368" type="curve" smooth="yes"/>
		</contour>
		<contour>
			<point x="512" y="576" type="line"/>
			<point x="636" y="576" type="line"/>
			<point x="732" y="576" type="line"/>
			<point x="858" y="576" type="line"/>
			<point x="872" y="652" type="line"/>
			<point x="526" y="652" type="line"/>
		</contour>
	</outline>
	<anchor name="aboveUC" x="469" y="672"/>
	<anchor name="belowLC" x="353" y="-20"/>
	<note>
		skew 10 scale 120
	</note>
</glyph>
<glyph name="I" format="2">
	<unicode hex="0049"/>
	<advance width="424"/>
	<outline>
		<contour>
			<point x="4" y="0" type="line"/>
			<point x="358" y="0" type="line"/>
			<point x="372" y="76" type="line"/>
			<point x="240" y="76" type="line"/>
			<point x="144" y="76" type="line"/>
			<point x="18" y="76" type="line"/>
		</contour>
		<contour>
			<point x="80" y="0" type="line"/>
			<point x="276" y="0" type="line"/>
			<point x="328" y="284" type="line"/>
			<point x="396" y="652" type="line"/>
			<point x="200" y="652" type="line"/>
			<point x="148" y="368" type="line"/>
		</contour>
		<contour>
			<point x="104" y="576" type="line"/>
			<point x="236" y="576" type="line"/>
			<point x="332" y="576" type="line"/>
			<point x="458" y="576" type="line"/>
			<point x="472" y="652" type="line"/>
			<point x="118" y="652" type="line"/>
		</contour>
	</outline>
	<anchor name="aboveUC" x="276" y="682"/>
	<anchor name="belowLC" x="156" y="-22"/>
	<anchor name="ogonek" x="212" y="0"/>
	<anchor name="aboveUC" x="292" y="682"/>
	<anchor name="belowLC" x="172" y="-22"/>
	<anchor name="ogonek" x="228" y="0"/>
</glyph>
<glyph name="J" format="2">
	<unicode hex="004A"/>
	<advance width="460"/>
	<outline>
		<contour>
			<point x="-38" y="9" type="curve"/>
			<point x="-22" y="-39"/>
			<point x="18" y="-59"/>
			<point x="87" y="-59" type="curve" smooth="yes"/>
			<point x="189" y="-59"/>
			<point x="259" y="4"/>
			<point x="306" y="77" type="curve" smooth="yes"/>
			<point x="347" y="140"/>
			<point x="378" y="237"/>
			<point x="406" y="389" type="curve" smooth="yes"/>
			<point x="454" y="652" type="line"/>
			<point x="258" y="652" type="line"/>
			<point x="246" y="586"/>
			<point x="234" y="519"/>
			<point x="222" y="453" type="curve" smooth="yes"/>
			<point x="194" y="301"/>
			<point x="185" y="221"/>
			<point x="178" y="141" type="curve" smooth="yes"/>
			<point x="171" y="61"/>
			<point x="161" y="13"/>
			<point x="154" y="-23" type="curve"/>
			<point x="164" y="-7" type="line"/>
			<point x="102" y="-7" type="line"/>
			<point x="147" y="-23" type="line"/>
			<point x="126" y="57"/>
			<point x="94" y="85"/>
			<point x="40" y="85" type="curve" smooth="yes"/>
			<point x="-10" y="85"/>
			<point x="-34" y="45"/>
		</contour>
		<contour>
			<point x="154" y="576" type="line"/>
			<point x="294" y="576" type="line"/>
			<point x="390" y="576" type="line"/>
			<point x="516" y="576" type="line"/>
			<point x="530" y="652" type="line"/>
			<point x="168" y="652" type="line"/>
		</contour>
	</outline>
	<anchor name="aboveUC" x="350" y="672"/>
	<anchor name="belowLC" x="148" y="-79"/>
</glyph>
<glyph name="K" format="2">
	<unicode hex="004B"/>
	<advance width="768"/>
	<outline>
		<contour>
			<point x="4" y="0" type="line"/>
			<point x="338" y="0" type="line"/>
			<point x="352" y="76" type="line"/>
			<point x="240" y="76" type="line"/>
			<point x="144" y="76" type="line"/>
			<point x="18" y="76" type="line"/>
		</contour>
		<contour>
			<point x="80" y="0" type="line"/>
			<point x="276" y="0" type="line"/>
			<point x="328" y="284" type="line"/>
			<point x="396" y="652" type="line"/>
			<point x="200" y="652" type="line"/>
			<point x="148" y="368" type="line"/>
		</contour>
		<contour>
			<point x="104" y="576" type="line"/>
			<point x="236" y="576" type="line"/>
			<point x="332" y="576" type="line"/>
			<point x="446" y="576" type="line"/>
			<point x="460" y="652" type="line"/>
			<point x="118" y="652" type="line"/>
		</contour>
		<contour>
			<point x="276" y="212" type="line"/>
			<point x="796" y="652" type="line"/>
			<point x="688" y="652" type="line"/>
			<point x="362" y="339" type="line"/>
			<point x="276" y="339" type="line"/>
		</contour>
		<contour>
			<point x="506" y="0" type="line"/>
			<point x="720" y="0" type="line"/>
			<point x="508" y="432" type="line"/>
			<point x="372" y="308" type="line"/>
		</contour>
		<contour>
			<point x="400" y="0" type="line"/>
			<point x="734" y="0" type="line"/>
			<point x="748" y="76" type="line"/>
			<point x="624" y="76" type="line"/>
			<point x="500" y="76" type="line"/>
			<point x="414" y="76" type="line"/>
		</contour>
		<contour>
			<point x="518" y="576" type="line"/>
			<point x="632" y="576" type="line"/>
			<point x="672" y="576" type="line"/>
			<point x="794" y="576" type="line"/>
			<point x="808" y="652" type="line"/>
			<point x="532" y="652" type="line"/>
		</contour>
	</outline>
	<anchor name="aboveUC" x="465" y="682"/>
	<anchor name="belowLC" x="335" y="-22"/>
</glyph>
<glyph name="L" format="2">
	<unicode hex="004C"/>
	<advance width="612"/>
	<outline>
		<contour>
			<point x="4" y="0" type="line"/>
			<point x="160" y="0" type="line"/>
			<point x="160" y="76" type="line"/>
			<point x="144" y="76" type="line"/>
			<point x="18" y="76" type="line"/>
		</contour>
		<contour>
			<point x="80" y="0" type="line"/>
			<point x="276" y="0" type="line"/>
			<point x="293" y="95"/>
			<point x="311" y="189"/>
			<point x="328" y="284" type="curve" smooth="yes"/>
			<point x="396" y="652" type="line"/>
			<point x="200" y="652" type="line"/>
			<point x="183" y="557"/>
			<point x="165" y="463"/>
			<point x="148" y="368" type="curve" smooth="yes"/>
		</contour>
		<contour>
			<point x="104" y="576" type="line"/>
			<point x="236" y="576" type="line"/>
			<point x="332" y="576" type="line"/>
			<point x="478" y="576" type="line"/>
			<point x="492" y="652" type="line"/>
			<point x="118" y="652" type="line"/>
		</contour>
		<contour>
			<point x="228" y="0" type="line"/>
			<point x="544" y="0" type="line"/>
			<point x="580" y="200" type="line"/>
			<point x="496" y="200" type="line"/>
			<point x="416" y="32" type="line"/>
			<point x="516" y="72" type="line"/>
			<point x="228" y="72" type="line"/>
		</contour>
	</outline>
	<anchor name="aboveUC" x="284" y="682"/>
	<anchor name="belowLC" x="254" y="-22"/>
</glyph>
<glyph name="M" format="2">
	<unicode hex="004D"/>
	<advance width="927"/>
	<outline>
		<contour>
			<point x="-10" y="0" type="line"/>
			<point x="224" y="0" type="line"/>
			<point x="238" y="76" type="line"/>
			<point x="126" y="76" type="line"/>
			<point x="110" y="76" type="line"/>
			<point x="4" y="76" type="line"/>
		</contour>
		<contour>
			<point x="62" y="0" type="line"/>
			<point x="146" y="0" type="line"/>
			<point x="215" y="311" type="line"/>
			<point x="280" y="652" type="line"/>
			<point x="218" y="652" type="line"/>
		</contour>
		<contour>
			<point x="303" y="0" type="line"/>
			<point x="449" y="0" type="line"/>
			<point x="599" y="343" type="line"/>
			<point x="677" y="554" type="line"/>
			<point x="743" y="554" type="line"/>
			<point x="743" y="652" type="line"/>
			<point x="639" y="652" type="line"/>
			<point x="545" y="401" type="line"/>
			<point x="477" y="193" type="line"/>
			<point x="460" y="193" type="line"/>
			<point x="432" y="652" type="line"/>
			<point x="140" y="652" type="line"/>
			<point x="126" y="576" type="line"/>
			<point x="232" y="576" type="line"/>
			<point x="231" y="554" type="line"/>
			<point x="272" y="554" type="line"/>
		</contour>
		<contour>
			<point x="544" y="0" type="line"/>
			<point x="874" y="0" type="line"/>
			<point x="888" y="76" type="line"/>
			<point x="760" y="76" type="line"/>
			<point x="676" y="76" type="line"/>
			<point x="558" y="76" type="line"/>
		</contour>
		<contour>
			<point x="612" y="0" type="line"/>
			<point x="796" y="0" type="line"/>
			<point x="811" y="104"/>
			<point x="825" y="208"/>
			<point x="840" y="312" type="curve" smooth="yes"/>
			<point x="888" y="652" type="line"/>
			<point x="712" y="652" type="line"/>
			<point x="696" y="600" type="line"/>
		</contour>
		<contour>
			<point x="808" y="576" type="line"/>
			<point x="835" y="576" type="line"/>
			<point x="950" y="576" type="line"/>
			<point x="964" y="652" type="line"/>
			<point x="808" y="652" type="line"/>
		</contour>
	</outline>
	<anchor name="aboveUC" x="528" y="672"/>
	<anchor name="belowLC" x="375" y="-20"/>
</glyph>
<glyph name="N" format="2">
	<unicode hex="004E"/>
	<advance width="732"/>
	<outline>
		<contour>
			<point x="0" y="0" type="line"/>
			<point x="254" y="0" type="line"/>
			<point x="268" y="76" type="line"/>
			<point x="140" y="76" type="line"/>
			<point x="124" y="76" type="line"/>
			<point x="14" y="76" type="line"/>
		</contour>
		<contour>
			<point x="76" y="0" type="line"/>
			<point x="160" y="0" type="line"/>
			<point x="262" y="652" type="line"/>
			<point x="197" y="652" type="line"/>
		</contour>
		<contour>
			<point x="528" y="576" type="line"/>
			<point x="648" y="576" type="line"/>
			<point x="664" y="576" type="line"/>
			<point x="774" y="576" type="line"/>
			<point x="788" y="652" type="line"/>
			<point x="542" y="652" type="line"/>
		</contour>
		<contour>
			<point x="593" y="166" type="line"/>
			<point x="527" y="166" type="line"/>
			<point x="411" y="652" type="line"/>
			<point x="118" y="652" type="line"/>
			<point x="104" y="576" type="line"/>
			<point x="221" y="576" type="line"/>
			<point x="221" y="496" type="line"/>
			<point x="265" y="496" type="line"/>
			<point x="381" y="0" type="line"/>
			<point x="592" y="0" type="line"/>
			<point x="712" y="652" type="line"/>
			<point x="628" y="652" type="line"/>
			<point x="546" y="106" type="line"/>
		</contour>
	</outline>
	<anchor name="aboveUC" x="441" y="672"/>
	<anchor name="belowLC" x="326" y="-20"/>
</glyph>
<glyph name="O" format="2">
	<unicode hex="004F"/>
	<advance width="764"/>
	<outline>
		<contour>
			<point x="336" y="-16" type="curve" smooth="yes"/>
			<point x="584" y="-16"/>
			<point x="732" y="200"/>
			<point x="732" y="404" type="curve" smooth="yes"/>
			<point x="732" y="584"/>
			<point x="616" y="668"/>
			<point x="452" y="668" type="curve" smooth="yes"/>
			<point x="204" y="668"/>
			<point x="56" y="452"/>
			<point x="56" y="248" type="curve" smooth="yes"/>
			<point x="56" y="68"/>
			<point x="172" y="-16"/>
		</contour>
		<contour>
			<point x="340" y="60" type="curve" smooth="yes"/>
			<point x="284" y="60"/>
			<point x="252" y="92"/>
			<point x="252" y="208" type="curve" smooth="yes"/>
			<point x="252" y="372"/>
			<point x="332" y="592"/>
			<point x="448" y="592" type="curve" smooth="yes"/>
			<point x="504" y="592"/>
			<point x="536" y="560"/>
			<point x="536" y="444" type="curve" smooth="yes"/>
			<point x="536" y="280"/>
			<point x="456" y="60"/>
		</contour>
	</outline>
	<anchor name="aboveUC" x="457" y="682"/>
	<anchor name="belowLC" x="331" y="-22"/>
	<anchor name="ogonek" x="445" y="0"/>
	<anchor name="hornLC" x="613" y="669"/>
</glyph>
<glyph name="P" format="2">
	<unicode hex="0050"/>
	<advance width="654"/>
	<outline>
		<contour>
			<point x="4" y="0" type="line"/>
			<point x="374" y="0" type="line"/>
			<point x="388" y="76" type="line"/>
			<point x="240" y="76" type="line"/>
			<point x="144" y="76" type="line"/>
			<point x="18" y="76" type="line"/>
		</contour>
		<contour>
			<point x="80" y="0" type="line"/>
			<point x="276" y="0" type="line"/>
			<point x="293" y="95"/>
			<point x="311" y="189"/>
			<point x="328" y="284" type="curve" smooth="yes"/>
			<point x="396" y="652" type="line"/>
			<point x="200" y="652" type="line"/>
			<point x="183" y="557"/>
			<point x="165" y="463"/>
			<point x="148" y="368" type="curve" smooth="yes"/>
		</contour>
		<contour>
			<point x="104" y="576" type="line"/>
			<point x="236" y="576" type="line"/>
			<point x="252" y="576" type="line"/>
			<point x="252" y="652" type="line"/>
			<point x="118" y="652" type="line"/>
		</contour>
		<contour>
			<point x="240" y="252" type="line"/>
			<point x="360" y="252" type="line" smooth="yes"/>
			<point x="576" y="252"/>
			<point x="684" y="356"/>
			<point x="684" y="472" type="curve" smooth="yes"/>
			<point x="684" y="588"/>
			<point x="592" y="652"/>
			<point x="408" y="652" type="curve" smooth="yes"/>
			<point x="316" y="652" type="line"/>
			<point x="316" y="580" type="line"/>
			<point x="400" y="580" type="line" smooth="yes"/>
			<point x="464" y="580"/>
			<point x="504" y="548"/>
			<point x="504" y="472" type="curve" smooth="yes"/>
			<point x="504" y="396"/>
			<point x="456" y="316"/>
			<point x="352" y="316" type="curve" smooth="yes"/>
			<point x="240" y="316" type="line"/>
		</contour>
	</outline>
	<anchor name="aboveUC" x="370" y="672"/>
	<anchor name="belowLC" x="161" y="-20"/>
</glyph>
<glyph name="Q" format="2">
	<unicode hex="0051"/>
	<advance width="764"/>
	<outline>
		<contour>
			<point x="492" y="-212" type="curve" smooth="yes"/>
			<point x="588" y="-212"/>
			<point x="652" y="-184"/>
			<point x="684" y="-160" type="curve"/>
			<point x="660" y="-104" type="line"/>
			<point x="636" y="-112"/>
			<point x="604" y="-120"/>
			<point x="564" y="-120" type="curve" smooth="yes"/>
			<point x="468" y="-120"/>
			<point x="418" y="-60"/>
			<point x="420" y="32" type="curve"/>
			<point x="252" y="32" type="line"/>
			<point x="252" y="-124"/>
			<point x="340" y="-212"/>
		</contour>
		<contour>
			<point x="336" y="-8" type="curve" smooth="yes"/>
			<point x="584" y="-8"/>
			<point x="732" y="200"/>
			<point x="732" y="404" type="curve" smooth="yes"/>
			<point x="732" y="584"/>
			<point x="616" y="668"/>
			<point x="452" y="668" type="curve" smooth="yes"/>
			<point x="204" y="668"/>
			<point x="56" y="452"/>
			<point x="56" y="248" type="curve" smooth="yes"/>
			<point x="56" y="68"/>
			<point x="172" y="-8"/>
		</contour>
		<contour>
			<point x="340" y="60" type="curve" smooth="yes"/>
			<point x="284" y="60"/>
			<point x="252" y="92"/>
			<point x="252" y="208" type="curve" smooth="yes"/>
			<point x="252" y="372"/>
			<point x="332" y="592"/>
			<point x="448" y="592" type="curve" smooth="yes"/>
			<point x="504" y="592"/>
			<point x="536" y="560"/>
			<point x="536" y="444" type="curve" smooth="yes"/>
			<point x="536" y="280"/>
			<point x="456" y="60"/>
		</contour>
		<component base="O"/>
	</outline>
	<anchor name="aboveUC" x="411" y="682"/>
</glyph>
<glyph name="R" format="2">
	<unicode hex="0052"/>
	<advance width="744"/>
	<outline>
		<contour>
			<point x="4" y="0" type="line"/>
			<point x="358" y="0" type="line"/>
			<point x="372" y="76" type="line"/>
			<point x="240" y="76" type="line"/>
			<point x="144" y="76" type="line"/>
			<point x="18" y="76" type="line"/>
		</contour>
		<contour>
			<point x="80" y="0" type="line"/>
			<point x="276" y="0" type="line"/>
			<point x="328" y="284" type="line"/>
			<point x="396" y="652" type="line"/>
			<point x="200" y="652" type="line"/>
			<point x="148" y="368" type="line"/>
		</contour>
		<contour>
			<point x="104" y="576" type="line"/>
			<point x="236" y="576" type="line"/>
			<point x="252" y="576" type="line"/>
			<point x="252" y="652" type="line"/>
			<point x="118" y="652" type="line"/>
		</contour>
		<contour>
			<point x="604" y="-12" type="curve" smooth="yes"/>
			<point x="644" y="-12"/>
			<point x="692" y="-4"/>
			<point x="708" y="0" type="curve"/>
			<point x="720" y="68" type="line"/>
			<point x="556" y="84" type="line"/>
			<point x="660" y="36" type="line"/>
			<point x="624" y="188" type="line" smooth="yes"/>
			<point x="600" y="288"/>
			<point x="560" y="312"/>
			<point x="416" y="318" type="curve"/>
			<point x="416" y="342" type="line"/>
			<point x="592" y="344"/>
			<point x="688" y="404"/>
			<point x="688" y="504" type="curve" smooth="yes"/>
			<point x="688" y="604"/>
			<point x="600" y="652"/>
			<point x="424" y="652" type="curve" smooth="yes"/>
			<point x="308" y="652" type="line"/>
			<point x="308" y="580" type="line"/>
			<point x="416" y="580" type="line" smooth="yes"/>
			<point x="480" y="580"/>
			<point x="512" y="548"/>
			<point x="512" y="488" type="curve" smooth="yes"/>
			<point x="512" y="420"/>
			<point x="472" y="360"/>
			<point x="376" y="360" type="curve" smooth="yes"/>
			<point x="264" y="360" type="line"/>
			<point x="264" y="304" type="line"/>
			<point x="352" y="304" type="line" smooth="yes"/>
			<point x="400" y="304"/>
			<point x="416" y="296"/>
			<point x="428" y="212" type="curve" smooth="yes"/>
			<point x="440" y="128" type="line" smooth="yes"/>
			<point x="456" y="16"/>
			<point x="512" y="-12"/>
		</contour>
	</outline>
	<anchor name="aboveUC" x="381" y="682"/>
	<anchor name="belowLC" x="376" y="-22"/>
</glyph>
<glyph name="S" format="2">
	<unicode hex="0053"/>
	<advance width="552"/>
	<outline>
		<contour>
			<point x="25" y="24" type="line"/>
			<point x="61" y="8"/>
			<point x="150" y="-16"/>
			<point x="238" y="-16" type="curve" smooth="yes"/>
			<point x="390" y="-16"/>
			<point x="521" y="52"/>
			<point x="521" y="192" type="curve" smooth="yes"/>
			<point x="521" y="292"/>
			<point x="459" y="348"/>
			<point x="369" y="408" type="curve" smooth="yes"/>
			<point x="302" y="452"/>
			<point x="271" y="476"/>
			<point x="271" y="518" type="curve" smooth="yes"/>
			<point x="271" y="560"/>
			<point x="309" y="596"/>
			<point x="385" y="596" type="curve" smooth="yes"/>
			<point x="437" y="596"/>
			<point x="469" y="588"/>
			<point x="501" y="572" type="curve"/>
			<point x="433" y="628" type="line"/>
			<point x="451" y="476" type="line"/>
			<point x="535" y="476" type="line"/>
			<point x="555" y="628" type="line"/>
			<point x="516" y="651"/>
			<point x="445" y="668"/>
			<point x="372" y="668" type="curve" smooth="yes"/>
			<point x="224" y="668"/>
			<point x="97" y="600"/>
			<point x="97" y="460" type="curve" smooth="yes"/>
			<point x="97" y="360"/>
			<point x="165" y="308"/>
			<point x="255" y="248" type="curve" smooth="yes"/>
			<point x="322" y="204"/>
			<point x="343" y="180"/>
			<point x="343" y="136" type="curve" smooth="yes"/>
			<point x="343" y="92"/>
			<point x="305" y="56"/>
			<point x="237" y="56" type="curve" smooth="yes"/>
			<point x="185" y="56"/>
			<point x="127" y="64"/>
			<point x="91" y="80" type="curve"/>
			<point x="151" y="24" type="line"/>
			<point x="139" y="188" type="line"/>
			<point x="55" y="188" type="line"/>
		</contour>
	</outline>
	<anchor name="aboveUC" x="352" y="672"/>
	<anchor name="belowLC" x="233" y="-20"/>
	<anchor name="baseLC" x="235" y="0"/>
</glyph>
<glyph name="T" format="2">
	<unicode hex="0054"/>
	<advance width="668"/>
	<outline>
		<contour>
			<point x="80" y="456" type="line"/>
			<point x="164" y="456" type="line"/>
			<point x="248" y="620" type="line"/>
			<point x="148" y="580" type="line"/>
			<point x="648" y="580" type="line"/>
			<point x="580" y="632" type="line"/>
			<point x="608" y="456" type="line"/>
			<point x="688" y="456" type="line"/>
			<point x="716" y="652" type="line"/>
			<point x="120" y="652" type="line"/>
		</contour>
		<contour>
			<point x="116" y="0" type="line"/>
			<point x="494" y="0" type="line"/>
			<point x="508" y="76" type="line"/>
			<point x="364" y="76" type="line"/>
			<point x="268" y="76" type="line"/>
			<point x="130" y="76" type="line"/>
		</contour>
		<contour>
			<point x="204" y="0" type="line"/>
			<point x="400" y="0" type="line"/>
			<point x="452" y="284" type="line"/>
			<point x="520" y="652" type="line"/>
			<point x="324" y="652" type="line"/>
			<point x="272" y="368" type="line"/>
		</contour>
	</outline>
	<anchor name="aboveUC" x="422" y="682"/>
	<anchor name="belowLC" x="298" y="-22"/>
	<anchor name="baseLC" x="302" y="0"/>
</glyph>
<glyph name="U" format="2">
	<unicode hex="0055"/>
	<advance width="724"/>
	<outline>
		<contour>
			<point x="88" y="576" type="line"/>
			<point x="220" y="576" type="line"/>
			<point x="316" y="576" type="line"/>
			<point x="446" y="576" type="line"/>
			<point x="460" y="652" type="line"/>
			<point x="102" y="652" type="line"/>
		</contour>
		<contour>
			<point x="350" y="-16" type="curve" smooth="yes"/>
			<point x="520" y="-16"/>
			<point x="606" y="76"/>
			<point x="636" y="240" type="curve" smooth="yes"/>
			<point x="712" y="652" type="line"/>
			<point x="628" y="652" type="line"/>
			<point x="552" y="236" type="line" smooth="yes"/>
			<point x="532" y="124"/>
			<point x="488" y="68"/>
			<point x="406" y="68" type="curve" smooth="yes"/>
			<point x="332" y="68"/>
			<point x="300" y="112"/>
			<point x="300" y="176" type="curve" smooth="yes"/>
			<point x="300" y="224"/>
			<point x="312" y="280"/>
			<point x="320" y="324" type="curve" smooth="yes"/>
			<point x="380" y="652" type="line"/>
			<point x="184" y="652" type="line"/>
			<point x="167" y="557"/>
			<point x="149" y="463"/>
			<point x="132" y="368" type="curve" smooth="yes"/>
			<point x="124" y="324" type="line" smooth="yes"/>
			<point x="116" y="280"/>
			<point x="108" y="232"/>
			<point x="108" y="192" type="curve" smooth="yes"/>
			<point x="108" y="56"/>
			<point x="212" y="-16"/>
		</contour>
		<contour>
			<point x="528" y="576" type="line"/>
			<point x="632" y="576" type="line"/>
			<point x="680" y="576" type="line"/>
			<point x="774" y="576" type="line"/>
			<point x="788" y="652" type="line"/>
			<point x="542" y="652" type="line"/>
		</contour>
	</outline>
	<anchor name="aboveUC" x="491" y="672"/>
	<anchor name="belowLC" x="353" y="-20"/>
	<anchor name="ogonek" x="438" y="0"/>
	<anchor name="hornLC" x="641" y="564"/>
</glyph>
<glyph name="V" format="2">
	<unicode hex="0056"/>
	<advance width="736"/>
	<outline>
		<contour>
			<point x="88" y="576" type="line"/>
			<point x="212" y="576" type="line"/>
			<point x="314" y="576" type="line"/>
			<point x="440" y="576" type="line"/>
			<point x="454" y="652" type="line"/>
			<point x="102" y="652" type="line"/>
		</contour>
		<contour>
			<point x="250" y="0" type="line"/>
			<point x="426" y="0" type="line"/>
			<point x="774" y="652" type="line"/>
			<point x="681" y="652" type="line"/>
			<point x="513" y="307" type="line"/>
			<point x="425" y="90" type="line"/>
			<point x="414" y="90" type="line"/>
			<point x="350" y="652" type="line"/>
			<point x="148" y="652" type="line"/>
		</contour>
		<contour>
			<point x="570" y="576" type="line"/>
			<point x="662" y="576" type="line"/>
			<point x="718" y="576" type="line"/>
			<point x="800" y="576" type="line"/>
			<point x="814" y="652" type="line"/>
			<point x="584" y="652" type="line"/>
		</contour>
	</outline>
	<anchor name="aboveUC" x="532" y="672"/>
	<anchor name="belowLC" x="381" y="-20"/>
</glyph>
<glyph name="W" format="2">
	<unicode hex="0057"/>
	<advance width="1026"/>
	<outline>
		<contour>
			<point x="219" y="576" type="line"/>
			<point x="302" y="576" type="line"/>
			<point x="411" y="576" type="line"/>
			<point x="427" y="652" type="line"/>
			<point x="106" y="652" type="line"/>
			<point x="90" y="576" type="line"/>
		</contour>
		<contour>
			<point x="214" y="0" type="line"/>
			<point x="407" y="0" type="line"/>
			<point x="517" y="297" type="line"/>
			<point x="571" y="494" type="line"/>
			<point x="585" y="494" type="line"/>
			<point x="629" y="0" type="line"/>
			<point x="812" y="0" type="line"/>
			<point x="1057" y="652" type="line"/>
			<point x="966" y="652" type="line"/>
			<point x="858" y="335" type="line"/>
			<point x="810" y="89" type="line"/>
			<point x="788" y="89" type="line"/>
			<point x="746" y="652" type="line"/>
			<point x="564" y="652" type="line"/>
			<point x="453" y="334" type="line"/>
			<point x="393" y="89" type="line"/>
			<point x="370" y="89" type="line"/>
			<point x="355" y="652" type="line"/>
			<point x="151" y="652" type="line"/>
		</contour>
		<contour>
			<point x="610" y="576" type="line"/>
			<point x="692" y="576" type="line"/>
			<point x="813" y="576" type="line"/>
			<point x="829" y="652" type="line"/>
			<point x="501" y="652" type="line"/>
			<point x="485" y="576" type="line"/>
		</contour>
		<contour>
			<point x="945" y="576" type="line"/>
			<point x="1001" y="576" type="line"/>
			<point x="1082" y="576" type="line"/>
			<point x="1098" y="652" type="line"/>
			<point x="898" y="652" type="line"/>
			<point x="882" y="576" type="line"/>
		</contour>
	</outline>
	<anchor name="aboveUC" x="636" y="672"/>
	<anchor name="belowLC" x="525" y="-20"/>
</glyph>
<glyph name="X" format="2">
	<unicode hex="0058"/>
	<advance width="664"/>
	<outline>
		<contour>
			<point x="-8" y="0" type="line"/>
			<point x="214" y="0" type="line"/>
			<point x="228" y="76" type="line"/>
			<point x="132" y="76" type="line"/>
			<point x="104" y="76" type="line"/>
			<point x="6" y="76" type="line"/>
		</contour>
		<contour>
			<point x="4" y="0" type="line"/>
			<point x="102" y="0" type="line"/>
			<point x="340" y="320" type="line"/>
			<point x="296" y="364" type="line"/>
		</contour>
		<contour>
			<point x="96" y="576" type="line"/>
			<point x="212" y="576" type="line"/>
			<point x="304" y="576" type="line"/>
			<point x="418" y="576" type="line"/>
			<point x="432" y="652" type="line"/>
			<point x="110" y="652" type="line"/>
		</contour>
		<contour>
			<point x="396" y="0" type="line"/>
			<point x="588" y="0" type="line"/>
			<point x="428" y="408" type="line"/>
			<point x="408" y="408" type="line"/>
			<point x="324" y="652" type="line"/>
			<point x="132" y="652" type="line"/>
			<point x="288" y="252" type="line"/>
			<point x="308" y="252" type="line"/>
		</contour>
		<contour>
			<point x="284" y="0" type="line"/>
			<point x="610" y="0" type="line"/>
			<point x="624" y="76" type="line"/>
			<point x="508" y="76" type="line"/>
			<point x="416" y="76" type="line"/>
			<point x="298" y="76" type="line"/>
		</contour>
		<contour>
			<point x="392" y="360" type="line"/>
			<point x="436" y="316" type="line"/>
			<point x="708" y="652" type="line"/>
			<point x="610" y="652" type="line"/>
		</contour>
		<contour>
			<point x="488" y="576" type="line"/>
			<point x="577" y="578" type="line"/>
			<point x="606" y="578" type="line"/>
			<point x="706" y="576" type="line"/>
			<point x="720" y="652" type="line"/>
			<point x="502" y="652" type="line"/>
		</contour>
	</outline>
	<anchor name="aboveUC" x="450" y="682"/>
	<anchor name="belowLC" x="252" y="-22"/>
</glyph>
<glyph name="Y" format="2">
	<unicode hex="0059"/>
	<advance width="676"/>
	<outline>
		<contour>
			<point x="84" y="576" type="line"/>
			<point x="204" y="576" type="line"/>
			<point x="308" y="576" type="line"/>
			<point x="424" y="576" type="line"/>
			<point x="438" y="652" type="line"/>
			<point x="98" y="652" type="line"/>
		</contour>
		<contour>
			<point x="124" y="0" type="line"/>
			<point x="502" y="0" type="line"/>
			<point x="516" y="76" type="line"/>
			<point x="372" y="76" type="line"/>
			<point x="276" y="76" type="line"/>
			<point x="138" y="76" type="line"/>
		</contour>
		<contour>
			<point x="256" y="224" type="line"/>
			<point x="448" y="224" type="line"/>
			<point x="712" y="652" type="line"/>
			<point x="620" y="652" type="line"/>
			<point x="426" y="312" type="line"/>
			<point x="410" y="312" type="line"/>
			<point x="332" y="652" type="line"/>
			<point x="128" y="652" type="line"/>
		</contour>
		<contour>
			<point x="212" y="0" type="line"/>
			<point x="408" y="0" type="line"/>
			<point x="427" y="101"/>
			<point x="445" y="203"/>
			<point x="464" y="304" type="curve"/>
			<point x="268" y="304" type="line"/>
		</contour>
		<contour>
			<point x="498" y="576" type="line"/>
			<point x="584" y="576" type="line"/>
			<point x="640" y="576" type="line"/>
			<point x="730" y="576" type="line"/>
			<point x="744" y="652" type="line"/>
			<point x="512" y="652" type="line"/>
		</contour>
	</outline>
	<anchor name="aboveUC" x="481" y="682"/>
	<anchor name="belowLC" x="303" y="-22"/>
</glyph>
<glyph name="Z" format="2">
	<unicode hex="005A"/>
	<advance width="616"/>
	<outline>
		<contour>
			<point x="4" y="0" type="line"/>
			<point x="192" y="0" type="line"/>
			<point x="640" y="596" type="line"/>
			<point x="652" y="652" type="line"/>
			<point x="464" y="652" type="line"/>
			<point x="16" y="56" type="line"/>
		</contour>
		<contour>
			<point x="80" y="460" type="line"/>
			<point x="164" y="460" type="line"/>
			<point x="244" y="620" type="line"/>
			<point x="144" y="580" type="line"/>
			<point x="548" y="588" type="line"/>
			<point x="548" y="652" type="line"/>
			<point x="116" y="652" type="line"/>
		</contour>
		<contour>
			<point x="108" y="0" type="line"/>
			<point x="548" y="0" type="line"/>
			<point x="584" y="192" type="line"/>
			<point x="500" y="192" type="line"/>
			<point x="420" y="32" type="line"/>
			<point x="520" y="72" type="line"/>
			<point x="108" y="64" type="line"/>
		</contour>
	</outline>
	<anchor name="aboveUC" x="397" y="682"/>
	<anchor name="belowLC" x="277" y="-22"/>
</glyph>
<glyph name="bracketleft" format="2">
	<unicode hex="005B"/>
	<advance width="391"/>
	<outline>
		<contour>
			<point x="32" y="-160" type="line"/>
			<point x="178" y="-160" type="line"/>
			<point x="197" y="-54"/>
			<point x="217" y="52"/>
			<point x="236" y="158" type="curve" smooth="yes"/>
			<point x="337" y="716" type="line"/>
			<point x="191" y="716" type="line"/>
			<point x="172" y="610"/>
			<point x="152" y="504"/>
			<point x="133" y="398" type="curve" smooth="yes"/>
		</contour>
		<contour>
			<point x="101" y="-160" type="line"/>
			<point x="274" y="-160" type="line"/>
			<point x="290" y="-72" type="line"/>
			<point x="140" y="-72" type="line"/>
			<point x="117" y="-72" type="line"/>
		</contour>
		<contour>
			<point x="244" y="628" type="line"/>
			<point x="267" y="628" type="line"/>
			<point x="416" y="628" type="line"/>
			<point x="432" y="716" type="line"/>
			<point x="260" y="716" type="line"/>
		</contour>
	</outline>
</glyph>
<glyph name="asciicircum" format="2">
	<unicode hex="005E"/>
	<advance width="550"/>
	<outline>
		<contour>
			<point x="47" y="228" type="line"/>
			<point x="129" y="171" type="line"/>
			<point x="312" y="447" type="line"/>
			<point x="250" y="447" type="line"/>
			<point x="433" y="171" type="line"/>
			<point x="517" y="228" type="line"/>
			<point x="327" y="514" type="line"/>
			<point x="236" y="514" type="line"/>
		</contour>
	</outline>
</glyph>
<glyph name="a" format="2">
	<unicode hex="0061"/>
	<advance width="588"/>
	<outline>
		<contour>
			<point x="156" y="-16" type="curve" smooth="yes"/>
			<point x="223" y="-16"/>
			<point x="299" y="39"/>
			<point x="355" y="110" type="curve"/>
			<point x="350" y="146" type="line"/>
			<point x="330" y="126"/>
			<point x="299" y="100"/>
			<point x="271" y="100" type="curve" smooth="yes"/>
			<point x="238" y="100"/>
			<point x="218" y="124"/>
			<point x="218" y="188" type="curve" smooth="yes"/>
			<point x="218" y="252"/>
			<point x="248" y="362"/>
			<point x="294" y="402" type="curve" smooth="yes"/>
			<point x="314" y="420"/>
			<point x="330" y="426"/>
			<point x="348" y="426" type="curve" smooth="yes"/>
			<point x="372" y="426"/>
			<point x="396" y="418"/>
			<point x="419" y="403" type="curve"/>
			<point x="499" y="462" type="line"/>
			<point x="470" y="490"/>
			<point x="434" y="503"/>
			<point x="396" y="503" type="curve" smooth="yes"/>
			<point x="241" y="503"/>
			<point x="47" y="312"/>
			<point x="47" y="132" type="curve" smooth="yes"/>
			<point x="47" y="21"/>
			<point x="99" y="-16"/>
		</contour>
		<contour>
			<point x="427" y="-16" type="curve" smooth="yes"/>
			<point x="505" y="-16"/>
			<point x="574" y="57"/>
			<point x="608" y="122" type="curve"/>
			<point x="575" y="143" type="line"/>
			<point x="546" y="105"/>
			<point x="530" y="84"/>
			<point x="514" y="84" type="curve" smooth="yes"/>
			<point x="503" y="84"/>
			<point x="498" y="91"/>
			<point x="498" y="104" type="curve" smooth="yes"/>
			<point x="498" y="114"/>
			<point x="501" y="125"/>
			<point x="505" y="141" type="curve" smooth="yes"/>
			<point x="585" y="489" type="line"/>
			<point x="569" y="503" type="line"/>
			<point x="401" y="434" type="line"/>
			<point x="342" y="165" type="line" smooth="yes"/>
			<point x="336" y="137"/>
			<point x="332" y="112"/>
			<point x="332" y="88" type="curve" smooth="yes"/>
			<point x="332" y="18"/>
			<point x="369" y="-16"/>
		</contour>
	</outline>
	<anchor name="aboveLC" x="396" y="520"/>
	<anchor name="belowLC" x="294" y="-22"/>
	<anchor name="ogonek" x="477" y="0"/>
</glyph>
<glyph name="b" format="2">
	<unicode hex="0062"/>
	<advance width="648"/>
	<outline>
		<contour>
			<point x="84" y="300" type="line" smooth="yes"/>
			<point x="72" y="244"/>
			<point x="64" y="200"/>
			<point x="64" y="156" type="curve" smooth="yes"/>
			<point x="64" y="48"/>
			<point x="144" y="-12"/>
			<point x="268" y="-12" type="curve" smooth="yes"/>
			<point x="472" y="-12"/>
			<point x="616" y="160"/>
			<point x="616" y="344" type="curve" smooth="yes"/>
			<point x="616" y="456"/>
			<point x="548" y="528"/>
			<point x="454" y="528" type="curve" smooth="yes"/>
			<point x="376" y="528"/>
			<point x="344" y="480"/>
			<point x="316" y="424" type="curve"/>
			<point x="268" y="424" type="line"/>
			<point x="268" y="344" type="line"/>
			<point x="304" y="380"/>
			<point x="328" y="404"/>
			<point x="360" y="404" type="curve" smooth="yes"/>
			<point x="400" y="404"/>
			<point x="424" y="372"/>
			<point x="424" y="304" type="curve" smooth="yes"/>
			<point x="424" y="240"/>
			<point x="412" y="188"/>
			<point x="396" y="148" type="curve" smooth="yes"/>
			<point x="380" y="108"/>
			<point x="352" y="60"/>
			<point x="300" y="60" type="curve" smooth="yes"/>
			<point x="264" y="60"/>
			<point x="248" y="80"/>
			<point x="248" y="120" type="curve" smooth="yes"/>
			<point x="248" y="152"/>
			<point x="256" y="192"/>
			<point x="264" y="230" type="curve" smooth="yes"/>
			<point x="300" y="400" type="line"/>
			<point x="272" y="400" type="line"/>
			<point x="368" y="720" type="line"/>
			<point x="304" y="720" type="line"/>
			<point x="64" y="688" type="line"/>
			<point x="64" y="620" type="line"/>
			<point x="216" y="596" type="line"/>
			<point x="152" y="628" type="line"/>
		</contour>
	</outline>
	<anchor name="aboveLC" x="265" y="710"/>
	<anchor name="belowLC" x="239" y="-22"/>
</glyph>
<glyph name="c" format="2">
	<unicode hex="0063"/>
	<advance width="539"/>
	<outline>
		<contour>
			<point x="248" y="-16" type="curve" smooth="yes"/>
			<point x="388" y="-16"/>
			<point x="472" y="84"/>
			<point x="512" y="152" type="curve"/>
			<point x="452" y="196" type="line"/>
			<point x="408" y="140"/>
			<point x="372" y="108"/>
			<point x="320" y="108" type="curve" smooth="yes"/>
			<point x="268" y="108"/>
			<point x="228" y="140"/>
			<point x="228" y="232" type="curve" smooth="yes"/>
			<point x="228" y="360"/>
			<point x="300" y="464"/>
			<point x="320" y="480" type="curve"/>
			<point x="368" y="480" type="line"/>
			<point x="368" y="490" type="line"/>
			<point x="336" y="490" type="line"/>
			<point x="362" y="434" type="line" smooth="yes"/>
			<point x="392" y="370"/>
			<point x="417" y="353"/>
			<point x="454" y="353" type="curve" smooth="yes"/>
			<point x="506" y="353"/>
			<point x="523" y="392"/>
			<point x="527" y="433" type="curve"/>
			<point x="504" y="495"/>
			<point x="440" y="532"/>
			<point x="361" y="532" type="curve" smooth="yes"/>
			<point x="172" y="532"/>
			<point x="40" y="376"/>
			<point x="40" y="195" type="curve" smooth="yes"/>
			<point x="40" y="64"/>
			<point x="108" y="-16"/>
		</contour>
	</outline>
	<anchor name="aboveLC" x="362" y="536"/>
	<anchor name="belowLC" x="235" y="-20"/>
	<anchor name="baseLC" x="216" y="0"/>
</glyph>
<glyph name="d" format="2">
	<unicode hex="0064"/>
	<advance width="676"/>
	<outline>
		<contour>
			<point x="188" y="-12" type="curve" smooth="yes"/>
			<point x="280" y="-12"/>
			<point x="312" y="52"/>
			<point x="332" y="92" type="curve"/>
			<point x="372" y="92" type="line"/>
			<point x="372" y="164" type="line"/>
			<point x="344" y="136"/>
			<point x="320" y="112"/>
			<point x="288" y="112" type="curve" smooth="yes"/>
			<point x="248" y="112"/>
			<point x="224" y="140"/>
			<point x="224" y="208" type="curve" smooth="yes"/>
			<point x="224" y="264"/>
			<point x="240" y="320"/>
			<point x="256" y="356" type="curve" smooth="yes"/>
			<point x="272" y="392"/>
			<point x="304" y="452"/>
			<point x="368" y="452" type="curve" smooth="yes"/>
			<point x="416" y="452"/>
			<point x="448" y="436"/>
			<point x="472" y="412" type="curve"/>
			<point x="472" y="508" type="line"/>
			<point x="456" y="516"/>
			<point x="424" y="524"/>
			<point x="376" y="524" type="curve" smooth="yes"/>
			<point x="176" y="524"/>
			<point x="32" y="352"/>
			<point x="32" y="168" type="curve" smooth="yes"/>
			<point x="32" y="56"/>
			<point x="100" y="-12"/>
		</contour>
		<contour>
			<point x="498" y="-12" type="curve" smooth="yes"/>
			<point x="600" y="-12"/>
			<point x="644" y="56"/>
			<point x="676" y="112" type="curve"/>
			<point x="620" y="148" type="line"/>
			<point x="596" y="112"/>
			<point x="588" y="96"/>
			<point x="568" y="96" type="curve" smooth="yes"/>
			<point x="552" y="96"/>
			<point x="544" y="106"/>
			<point x="544" y="122" type="curve" smooth="yes"/>
			<point x="544" y="140"/>
			<point x="550" y="164"/>
			<point x="556" y="192" type="curve" smooth="yes"/>
			<point x="672" y="720" type="line"/>
			<point x="608" y="720" type="line"/>
			<point x="368" y="688" type="line"/>
			<point x="368" y="620" type="line"/>
			<point x="520" y="596" type="line"/>
			<point x="464" y="628" type="line"/>
			<point x="442" y="460" type="line"/>
			<point x="420" y="460" type="line"/>
			<point x="346" y="124" type="line"/>
			<point x="368" y="124" type="line"/>
			<point x="367" y="120"/>
			<point x="366" y="114"/>
			<point x="366" y="108" type="curve" smooth="yes"/>
			<point x="366" y="36"/>
			<point x="412" y="-12"/>
		</contour>
	</outline>
	<anchor name="aboveLC" x="557" y="710"/>
	<anchor name="belowLC" x="318" y="-22"/>
</glyph>
<glyph name="e" format="2">
	<unicode hex="0065"/>
	<advance width="548"/>
	<outline>
		<contour>
			<point x="256" y="-12" type="curve" smooth="yes"/>
			<point x="396" y="-12"/>
			<point x="468" y="80"/>
			<point x="508" y="144" type="curve"/>
			<point x="448" y="188" type="line"/>
			<point x="404" y="136"/>
			<point x="372" y="108"/>
			<point x="320" y="108" type="curve" smooth="yes"/>
			<point x="260" y="108"/>
			<point x="220" y="136"/>
			<point x="220" y="224" type="curve" smooth="yes"/>
			<point x="220" y="344"/>
			<point x="280" y="460"/>
			<point x="344" y="460" type="curve" smooth="yes"/>
			<point x="368" y="460"/>
			<point x="380" y="444"/>
			<point x="380" y="420" type="curve" smooth="yes"/>
			<point x="380" y="356"/>
			<point x="332" y="276"/>
			<point x="132" y="232" type="curve"/>
			<point x="132" y="192" type="line"/>
			<point x="388" y="228"/>
			<point x="528" y="300"/>
			<point x="528" y="412" type="curve" smooth="yes"/>
			<point x="528" y="484"/>
			<point x="464" y="528"/>
			<point x="360" y="528" type="curve" smooth="yes"/>
			<point x="168" y="528"/>
			<point x="36" y="376"/>
			<point x="36" y="200" type="curve" smooth="yes"/>
			<point x="36" y="80"/>
			<point x="116" y="-12"/>
		</contour>
	</outline>
	<anchor name="aboveLC" x="373" y="520"/>
	<anchor name="belowLC" x="242" y="-22"/>
	<anchor name="ogonek" x="307" y="0"/>
</glyph>
<glyph name="f" format="2">
	<unicode hex="0066"/>
	<advance width="428"/>
	<outline>
		<contour>
			<point x="-16" y="-232" type="curve" smooth="yes"/>
			<point x="72" y="-232"/>
			<point x="128" y="-196"/>
			<point x="168" y="-148" type="curve" smooth="yes"/>
			<point x="208" y="-100"/>
			<point x="240" y="-36"/>
			<point x="256" y="80" type="curve" smooth="yes"/>
			<point x="276" y="228"/>
			<point x="296" y="376"/>
			<point x="316" y="524" type="curve" smooth="yes"/>
			<point x="332" y="640"/>
			<point x="338" y="654"/>
			<point x="346" y="678" type="curve"/>
			<point x="394" y="678" type="line"/>
			<point x="378" y="686" type="line"/>
			<point x="402" y="622" type="line" smooth="yes"/>
			<point x="414" y="590"/>
			<point x="434" y="562"/>
			<point x="482" y="562" type="curve" smooth="yes"/>
			<point x="530" y="562"/>
			<point x="550" y="598"/>
			<point x="554" y="638" type="curve"/>
			<point x="538" y="674"/>
			<point x="478" y="722"/>
			<point x="366" y="722" type="curve" smooth="yes"/>
			<point x="234" y="722"/>
			<point x="132" y="672"/>
			<point x="110" y="428" type="curve" smooth="yes"/>
			<point x="97" y="285"/>
			<point x="85" y="143"/>
			<point x="72" y="0" type="curve" smooth="yes"/>
			<point x="66" y="-68"/>
			<point x="60" y="-108"/>
			<point x="56" y="-132" type="curve" smooth="yes"/>
			<point x="52" y="-156"/>
			<point x="44" y="-180"/>
			<point x="40" y="-188" type="curve"/>
			<point x="-8" y="-188" type="line"/>
			<point x="12" y="-196" type="line"/>
			<point x="4" y="-172" type="line" smooth="yes"/>
			<point x="-20" y="-100"/>
			<point x="-52" y="-76"/>
			<point x="-100" y="-76" type="curve" smooth="yes"/>
			<point x="-152" y="-76"/>
			<point x="-172" y="-112"/>
			<point x="-180" y="-144" type="curve"/>
			<point x="-164" y="-180"/>
			<point x="-116" y="-232"/>
		</contour>
		<contour>
			<point x="23" y="432" type="line"/>
			<point x="192" y="440" type="line"/>
			<point x="405" y="432" type="line"/>
			<point x="423" y="516" type="line"/>
			<point x="208" y="516" type="line"/>
			<point x="208" y="524" type="line"/>
			<point x="37" y="500" type="line"/>
		</contour>
	</outline>
	<anchor name="aboveLC" x="372" y="720"/>
	<anchor name="belowLC" x="50" y="-22"/>
</glyph>
<glyph name="g" format="2">
	<unicode hex="0067"/>
	<advance width="652"/>
	<outline>
		<contour>
			<point x="64" y="84" type="curve" smooth="yes"/>
			<point x="64" y="36"/>
			<point x="100" y="14"/>
			<point x="172" y="14" type="curve"/>
			<point x="172" y="-36" type="line"/>
			<point x="332" y="-54" type="line" smooth="yes"/>
			<point x="368" y="-58"/>
			<point x="388" y="-68"/>
			<point x="388" y="-92" type="curve" smooth="yes"/>
			<point x="388" y="-132"/>
			<point x="336" y="-160"/>
			<point x="264" y="-160" type="curve" smooth="yes"/>
			<point x="192" y="-160"/>
			<point x="148" y="-136"/>
			<point x="148" y="-96" type="curve" smooth="yes"/>
			<point x="148" y="-60"/>
			<point x="180" y="-40"/>
			<point x="196" y="-32" type="curve"/>
			<point x="172" y="-20" type="line"/>
			<point x="36" y="-24"/>
			<point x="-16" y="-60"/>
			<point x="-16" y="-116" type="curve" smooth="yes"/>
			<point x="-16" y="-184"/>
			<point x="72" y="-232"/>
			<point x="224" y="-232" type="curve" smooth="yes"/>
			<point x="384" y="-232"/>
			<point x="544" y="-156"/>
			<point x="544" y="-34" type="curve" smooth="yes"/>
			<point x="544" y="44"/>
			<point x="480" y="80"/>
			<point x="372" y="92" type="curve" smooth="yes"/>
			<point x="264" y="104" type="line" smooth="yes"/>
			<point x="228" y="108"/>
			<point x="212" y="120"/>
			<point x="212" y="140" type="curve" smooth="yes"/>
			<point x="212" y="160"/>
			<point x="219" y="176"/>
			<point x="229" y="192" type="curve"/>
			<point x="172" y="192" type="line"/>
			<point x="172" y="154" type="line"/>
			<point x="100" y="154"/>
			<point x="64" y="132"/>
		</contour>
		<contour>
			<point x="280" y="236" type="curve" smooth="yes"/>
			<point x="258" y="236"/>
			<point x="244" y="252"/>
			<point x="244" y="304" type="curve" smooth="yes"/>
			<point x="244" y="388"/>
			<point x="274" y="460"/>
			<point x="312" y="460" type="curve" smooth="yes"/>
			<point x="334" y="460"/>
			<point x="348" y="444"/>
			<point x="348" y="392" type="curve" smooth="yes"/>
			<point x="348" y="308"/>
			<point x="318" y="236"/>
		</contour>
		<contour>
			<point x="66" y="320" type="curve" smooth="yes"/>
			<point x="66" y="220"/>
			<point x="149" y="172"/>
			<point x="271" y="172" type="curve" smooth="yes"/>
			<point x="429" y="172"/>
			<point x="487" y="260"/>
			<point x="511" y="328" type="curve" smooth="yes"/>
			<point x="528" y="376"/>
			<point x="535" y="400"/>
			<point x="543" y="452" type="curve"/>
			<point x="519" y="400" type="line"/>
			<point x="627" y="400"/>
			<point x="663" y="440"/>
			<point x="663" y="504" type="curve" smooth="yes"/>
			<point x="663" y="520"/>
			<point x="659" y="542"/>
			<point x="655" y="548" type="curve"/>
			<point x="649" y="550"/>
			<point x="635" y="552"/>
			<point x="619" y="552" type="curve" smooth="yes"/>
			<point x="532" y="552"/>
			<point x="494" y="500"/>
			<point x="494" y="404" type="curve"/>
			<point x="463" y="404" type="line"/>
			<point x="463" y="478"/>
			<point x="410" y="528"/>
			<point x="301" y="528" type="curve" smooth="yes"/>
			<point x="157" y="528"/>
			<point x="66" y="440"/>
		</contour>
	</outline>
	<anchor name="aboveLC" x="328" y="536"/>
	<anchor name="belowLC" x="216" y="-240"/>
</glyph>
<glyph name="h" format="2">
	<unicode hex="0068"/>
	<advance width="703"/>
	<outline>
		<contour>
			<point x="80" y="-16" type="line"/>
			<point x="228" y="0" type="line"/>
			<point x="246" y="84"/>
			<point x="265" y="168"/>
			<point x="283" y="252" type="curve" smooth="yes"/>
			<point x="308" y="368" type="line"/>
			<point x="293" y="368" type="line"/>
			<point x="372" y="710" type="line"/>
			<point x="318" y="720" type="line"/>
			<point x="91" y="678" type="line"/>
			<point x="77" y="610" type="line"/>
			<point x="230" y="596" type="line"/>
			<point x="166" y="618" type="line"/>
			<point x="151" y="550"/>
			<point x="139" y="492"/>
			<point x="124" y="424" type="curve" smooth="yes"/>
			<point x="32" y="0" type="line"/>
		</contour>
		<contour>
			<point x="500" y="-16" type="curve" smooth="yes"/>
			<point x="612" y="-16"/>
			<point x="663" y="54"/>
			<point x="701" y="118" type="curve"/>
			<point x="652" y="148" type="line"/>
			<point x="628" y="111"/>
			<point x="620" y="96"/>
			<point x="600" y="96" type="curve" smooth="yes"/>
			<point x="584" y="96"/>
			<point x="577" y="106"/>
			<point x="577" y="122" type="curve" smooth="yes"/>
			<point x="577" y="136"/>
			<point x="582" y="160"/>
			<point x="588" y="184" type="curve" smooth="yes"/>
			<point x="620" y="316" type="line" smooth="yes"/>
			<point x="628" y="348"/>
			<point x="636" y="380"/>
			<point x="636" y="425" type="curve" smooth="yes"/>
			<point x="636" y="487"/>
			<point x="599" y="532"/>
			<point x="526" y="532" type="curve" smooth="yes"/>
			<point x="436" y="532"/>
			<point x="370" y="480"/>
			<point x="316" y="400" type="curve"/>
			<point x="276" y="400" type="line"/>
			<point x="276" y="338" type="line"/>
			<point x="324" y="377"/>
			<point x="356" y="396"/>
			<point x="390" y="396" type="curve" smooth="yes"/>
			<point x="418" y="396"/>
			<point x="432" y="382"/>
			<point x="432" y="362" type="curve" smooth="yes"/>
			<point x="432" y="346"/>
			<point x="428" y="332"/>
			<point x="420" y="300" type="curve" smooth="yes"/>
			<point x="396" y="200" type="line" smooth="yes"/>
			<point x="388" y="168"/>
			<point x="377" y="131"/>
			<point x="377" y="87" type="curve" smooth="yes"/>
			<point x="377" y="27"/>
			<point x="406" y="-16"/>
		</contour>
	</outline>
	<anchor name="aboveLC" x="278" y="720"/>
	<anchor name="belowLC" x="316" y="-20"/>
</glyph>
<glyph name="i" format="2">
	<unicode hex="0069"/>
	<advance width="376"/>
	<outline>
		<contour>
			<point x="52" y="112" type="curve" smooth="yes"/>
			<point x="52" y="36"/>
			<point x="104" y="-12"/>
			<point x="192" y="-12" type="curve" smooth="yes"/>
			<point x="300" y="-12"/>
			<point x="344" y="56"/>
			<point x="376" y="112" type="curve"/>
			<point x="320" y="148" type="line"/>
			<point x="296" y="112"/>
			<point x="288" y="96"/>
			<point x="268" y="96" type="curve" smooth="yes"/>
			<point x="252" y="96"/>
			<point x="244" y="106"/>
			<point x="244" y="122" type="curve" smooth="yes"/>
			<point x="244" y="140"/>
			<point x="250" y="164"/>
			<point x="256" y="192" type="curve" smooth="yes"/>
			<point x="328" y="516" type="line"/>
			<point x="264" y="516" type="line"/>
			<point x="20" y="460" type="line"/>
			<point x="20" y="392" type="line"/>
			<point x="168" y="392" type="line"/>
			<point x="112" y="424" type="line"/>
			<point x="72" y="244" type="line" smooth="yes"/>
			<point x="60" y="192"/>
			<point x="52" y="148"/>
		</contour>
		<contour>
			<point x="254" y="572" type="curve" smooth="yes"/>
			<point x="320" y="572"/>
			<point x="364" y="624"/>
			<point x="364" y="680" type="curve" smooth="yes"/>
			<point x="364" y="732"/>
			<point x="328" y="768"/>
			<point x="270" y="768" type="curve" smooth="yes"/>
			<point x="204" y="768"/>
			<point x="160" y="716"/>
			<point x="160" y="660" type="curve" smooth="yes"/>
			<point x="160" y="608"/>
			<point x="196" y="572"/>
		</contour>
	</outline>
	<anchor name="aboveLC" x="283" y="771"/>
	<anchor name="belowLC" x="157" y="-22"/>
	<anchor name="ogonek" x="206" y="0"/>
</glyph>
<glyph name="j" format="2">
	<unicode hex="006A"/>
	<advance width="346"/>
	<outline>
		<contour>
			<point x="-60" y="-232" type="line"/>
			<point x="28" y="-216"/>
			<point x="92" y="-188"/>
			<point x="140" y="-140" type="curve" smooth="yes"/>
			<point x="188" y="-92"/>
			<point x="220" y="-28"/>
			<point x="240" y="72" type="curve" smooth="yes"/>
			<point x="328" y="516" type="line"/>
			<point x="244" y="526" type="line"/>
			<point x="32" y="460" type="line"/>
			<point x="18" y="392" type="line"/>
			<point x="168" y="392" type="line"/>
			<point x="112" y="424" type="line"/>
			<point x="44" y="24" type="line" smooth="yes"/>
			<point x="36" y="-24"/>
			<point x="28" y="-56"/>
			<point x="12" y="-88" type="curve" smooth="yes"/>
			<point x="-4" y="-120"/>
			<point x="-28" y="-152"/>
			<point x="-84" y="-172" type="curve"/>
		</contour>
		<contour>
			<point x="248" y="579" type="curve" smooth="yes"/>
			<point x="312" y="579"/>
			<point x="354" y="629"/>
			<point x="354" y="682" type="curve" smooth="yes"/>
			<point x="354" y="732"/>
			<point x="318" y="766"/>
			<point x="264" y="766" type="curve" smooth="yes"/>
			<point x="200" y="766"/>
			<point x="158" y="716"/>
			<point x="158" y="663" type="curve" smooth="yes"/>
			<point x="158" y="613"/>
			<point x="194" y="579"/>
		</contour>
	</outline>
	<anchor name="aboveLC" x="274" y="766"/>
	<anchor name="belowLC" x="44" y="-240"/>
</glyph>
<glyph name="k" format="2">
	<unicode hex="006B"/>
	<advance width="636"/>
	<outline>
		<contour>
			<point x="32" y="0" type="line"/>
			<point x="80" y="-16" type="line"/>
			<point x="228" y="0" type="line"/>
			<point x="272" y="202" type="line"/>
			<point x="384" y="720" type="line"/>
			<point x="320" y="720" type="line"/>
			<point x="80" y="688" type="line"/>
			<point x="80" y="620" type="line"/>
			<point x="232" y="596" type="line"/>
			<point x="168" y="628" type="line"/>
			<point x="120" y="406" type="line"/>
		</contour>
		<contour>
			<point x="608" y="-4" type="curve"/>
			<point x="616" y="52" type="line"/>
			<point x="600" y="54" type="line" smooth="yes"/>
			<point x="568" y="58"/>
			<point x="554" y="68"/>
			<point x="540" y="104" type="curve" smooth="yes"/>
			<point x="508" y="184" type="line" smooth="yes"/>
			<point x="476" y="264"/>
			<point x="420" y="280"/>
			<point x="328" y="286" type="curve" smooth="yes"/>
			<point x="296" y="288" type="line"/>
			<point x="296" y="284" type="line"/>
			<point x="488" y="336" type="line" smooth="yes"/>
			<point x="576" y="360"/>
			<point x="616" y="392"/>
			<point x="616" y="448" type="curve" smooth="yes"/>
			<point x="616" y="496"/>
			<point x="576" y="520"/>
			<point x="536" y="528" type="curve"/>
			<point x="268" y="284" type="line"/>
			<point x="268" y="262" type="line"/>
			<point x="276" y="260" type="line" smooth="yes"/>
			<point x="292" y="256"/>
			<point x="304" y="244"/>
			<point x="312" y="212" type="curve" smooth="yes"/>
			<point x="336" y="112" type="line" smooth="yes"/>
			<point x="358" y="20"/>
			<point x="408" y="-20"/>
			<point x="504" y="-20" type="curve" smooth="yes"/>
			<point x="544" y="-20"/>
			<point x="584" y="-12"/>
		</contour>
	</outline>
	<anchor name="aboveLC" x="262" y="711"/>
	<anchor name="belowLC" x="270" y="-22"/>
</glyph>
<glyph name="l" format="2">
	<unicode hex="006C"/>
	<advance width="372"/>
	<outline>
		<contour>
			<point x="188" y="-12" type="curve" smooth="yes"/>
			<point x="296" y="-12"/>
			<point x="340" y="56"/>
			<point x="372" y="112" type="curve"/>
			<point x="316" y="148" type="line"/>
			<point x="292" y="112"/>
			<point x="284" y="96"/>
			<point x="264" y="96" type="curve" smooth="yes"/>
			<point x="248" y="96"/>
			<point x="240" y="106"/>
			<point x="240" y="122" type="curve" smooth="yes"/>
			<point x="240" y="140"/>
			<point x="246" y="164"/>
			<point x="252" y="192" type="curve" smooth="yes"/>
			<point x="366" y="710" type="line"/>
			<point x="302" y="710" type="line"/>
			<point x="62" y="678" type="line"/>
			<point x="62" y="610" type="line"/>
			<point x="214" y="586" type="line"/>
			<point x="150" y="618" type="line"/>
			<point x="135" y="547"/>
			<point x="121" y="487"/>
			<point x="106" y="416" type="curve" smooth="yes"/>
			<point x="68" y="244" type="line" smooth="yes"/>
			<point x="56" y="192"/>
			<point x="48" y="148"/>
			<point x="48" y="112" type="curve" smooth="yes"/>
			<point x="48" y="36"/>
			<point x="100" y="-12"/>
		</contour>
	</outline>
	<anchor name="aboveLC" x="272" y="720"/>
	<anchor name="belowLC" x="142" y="-22"/>
</glyph>
<glyph name="m" format="2">
	<unicode hex="006D"/>
	<advance width="1032"/>
	<outline>
		<contour>
			<point x="236" y="0" type="line"/>
			<point x="288" y="240" type="line"/>
			<point x="316" y="368" type="line"/>
			<point x="288" y="368" type="line"/>
			<point x="296" y="516" type="line"/>
			<point x="232" y="516" type="line"/>
			<point x="40" y="460" type="line"/>
			<point x="40" y="392" type="line"/>
			<point x="188" y="392" type="line"/>
			<point x="132" y="424" type="line"/>
			<point x="40" y="0" type="line"/>
			<point x="88" y="-16" type="line"/>
		</contour>
		<contour>
			<point x="556" y="0" type="line"/>
			<point x="610" y="240" type="line"/>
			<point x="638" y="360" type="line"/>
			<point x="608" y="360" type="line"/>
			<point x="610" y="372"/>
			<point x="612" y="392"/>
			<point x="612" y="408" type="curve" smooth="yes"/>
			<point x="612" y="480"/>
			<point x="568" y="528"/>
			<point x="484" y="528" type="curve" smooth="yes"/>
			<point x="400" y="528"/>
			<point x="360" y="468"/>
			<point x="324" y="400" type="curve"/>
			<point x="284" y="400" type="line"/>
			<point x="284" y="328" type="line"/>
			<point x="332" y="376"/>
			<point x="364" y="396"/>
			<point x="396" y="396" type="curve" smooth="yes"/>
			<point x="422" y="396"/>
			<point x="436" y="382"/>
			<point x="436" y="360" type="curve" smooth="yes"/>
			<point x="436" y="340"/>
			<point x="432" y="320"/>
			<point x="424" y="284" type="curve" smooth="yes"/>
			<point x="360" y="0" type="line"/>
			<point x="408" y="-16" type="line"/>
		</contour>
		<contour>
			<point x="848" y="-12" type="curve" smooth="yes"/>
			<point x="952" y="-12"/>
			<point x="992" y="48"/>
			<point x="1032" y="112" type="curve"/>
			<point x="976" y="148" type="line"/>
			<point x="952" y="112"/>
			<point x="944" y="96"/>
			<point x="924" y="96" type="curve" smooth="yes"/>
			<point x="908" y="96"/>
			<point x="900" y="106"/>
			<point x="900" y="122" type="curve" smooth="yes"/>
			<point x="900" y="136"/>
			<point x="906" y="160"/>
			<point x="912" y="184" type="curve" smooth="yes"/>
			<point x="944" y="316" type="line" smooth="yes"/>
			<point x="952" y="348"/>
			<point x="960" y="380"/>
			<point x="960" y="410" type="curve" smooth="yes"/>
			<point x="960" y="480"/>
			<point x="908" y="528"/>
			<point x="822" y="528" type="curve" smooth="yes"/>
			<point x="724" y="528"/>
			<point x="684" y="472"/>
			<point x="646" y="400" type="curve"/>
			<point x="604" y="400" type="line"/>
			<point x="604" y="328" type="line"/>
			<point x="652" y="376"/>
			<point x="684" y="396"/>
			<point x="716" y="396" type="curve" smooth="yes"/>
			<point x="742" y="396"/>
			<point x="756" y="382"/>
			<point x="756" y="362" type="curve" smooth="yes"/>
			<point x="756" y="346"/>
			<point x="752" y="332"/>
			<point x="744" y="300" type="curve" smooth="yes"/>
			<point x="720" y="200" type="line" smooth="yes"/>
			<point x="712" y="168"/>
			<point x="708" y="136"/>
			<point x="708" y="112" type="curve" smooth="yes"/>
			<point x="708" y="36"/>
			<point x="760" y="-12"/>
		</contour>
	</outline>
	<anchor name="aboveLC" x="514" y="520"/>
	<anchor name="belowLC" x="418" y="-22"/>
	<anchor name="aboveLC" x="614" y="520"/>
	<anchor name="belowLC" x="518" y="-22"/>
</glyph>
<glyph name="n" format="2">
	<unicode hex="006E"/>
	<advance width="711"/>
	<outline>
		<contour>
			<point x="88" y="-16" type="line"/>
			<point x="236" y="0" type="line"/>
			<point x="253" y="80"/>
			<point x="271" y="160"/>
			<point x="288" y="240" type="curve" smooth="yes"/>
			<point x="316" y="368" type="line"/>
			<point x="300" y="368" type="line"/>
			<point x="322" y="516" type="line"/>
			<point x="262" y="526" type="line"/>
			<point x="53" y="460" type="line"/>
			<point x="38" y="392" type="line"/>
			<point x="188" y="392" type="line"/>
			<point x="132" y="424" type="line"/>
			<point x="40" y="0" type="line"/>
		</contour>
		<contour>
			<point x="508" y="-16" type="curve" smooth="yes"/>
			<point x="620" y="-16"/>
			<point x="671" y="54"/>
			<point x="709" y="118" type="curve"/>
			<point x="660" y="148" type="line"/>
			<point x="636" y="111"/>
			<point x="628" y="96"/>
			<point x="608" y="96" type="curve" smooth="yes"/>
			<point x="592" y="96"/>
			<point x="585" y="106"/>
			<point x="585" y="122" type="curve" smooth="yes"/>
			<point x="585" y="136"/>
			<point x="590" y="160"/>
			<point x="596" y="184" type="curve" smooth="yes"/>
			<point x="628" y="316" type="line" smooth="yes"/>
			<point x="636" y="348"/>
			<point x="644" y="380"/>
			<point x="644" y="425" type="curve" smooth="yes"/>
			<point x="644" y="487"/>
			<point x="607" y="532"/>
			<point x="534" y="532" type="curve" smooth="yes"/>
			<point x="444" y="532"/>
			<point x="378" y="480"/>
			<point x="324" y="400" type="curve"/>
			<point x="284" y="400" type="line"/>
			<point x="284" y="338" type="line"/>
			<point x="332" y="377"/>
			<point x="364" y="396"/>
			<point x="398" y="396" type="curve" smooth="yes"/>
			<point x="426" y="396"/>
			<point x="440" y="382"/>
			<point x="440" y="362" type="curve" smooth="yes"/>
			<point x="440" y="346"/>
			<point x="436" y="332"/>
			<point x="428" y="300" type="curve" smooth="yes"/>
			<point x="404" y="200" type="line" smooth="yes"/>
			<point x="396" y="168"/>
			<point x="385" y="131"/>
			<point x="385" y="87" type="curve" smooth="yes"/>
			<point x="385" y="27"/>
			<point x="414" y="-16"/>
		</contour>
	</outline>
	<anchor name="aboveLC" x="394" y="536"/>
	<anchor name="belowLC" x="314" y="-20"/>
</glyph>
<glyph name="o" format="2">
	<unicode hex="006F"/>
	<advance width="644"/>
	<outline>
		<contour>
			<point x="272" y="-16" type="curve" smooth="yes"/>
			<point x="472" y="-16"/>
			<point x="608" y="152"/>
			<point x="608" y="324" type="curve" smooth="yes"/>
			<point x="608" y="456"/>
			<point x="512" y="532"/>
			<point x="372" y="532" type="curve" smooth="yes"/>
			<point x="172" y="532"/>
			<point x="36" y="364"/>
			<point x="36" y="192" type="curve" smooth="yes"/>
			<point x="36" y="60"/>
			<point x="132" y="-16"/>
		</contour>
		<contour>
			<point x="288" y="56" type="curve" smooth="yes"/>
			<point x="252" y="56"/>
			<point x="232" y="84"/>
			<point x="232" y="160" type="curve" smooth="yes"/>
			<point x="232" y="300"/>
			<point x="284" y="460"/>
			<point x="356" y="460" type="curve" smooth="yes"/>
			<point x="392" y="460"/>
			<point x="412" y="432"/>
			<point x="412" y="356" type="curve" smooth="yes"/>
			<point x="412" y="216"/>
			<point x="360" y="56"/>
		</contour>
	</outline>
	<anchor name="aboveLC" x="376" y="536"/>
	<anchor name="belowLC" x="259" y="-20"/>
	<anchor name="hornLC" x="511" y="409"/>
	<anchor name="ogonek" x="337" y="0"/>
</glyph>
<glyph name="p" format="2">
	<unicode hex="0070"/>
	<advance width="672"/>
	<outline>
		<contour>
			<point x="300" y="0" type="curve" smooth="yes"/>
			<point x="492" y="0"/>
			<point x="636" y="168"/>
			<point x="636" y="348" type="curve" smooth="yes"/>
			<point x="636" y="460"/>
			<point x="568" y="528"/>
			<point x="476" y="528" type="curve" smooth="yes"/>
			<point x="396" y="528"/>
			<point x="364" y="480"/>
			<point x="340" y="420" type="curve"/>
			<point x="296" y="420" type="line"/>
			<point x="296" y="352" type="line"/>
			<point x="324" y="380"/>
			<point x="348" y="404"/>
			<point x="380" y="404" type="curve" smooth="yes"/>
			<point x="420" y="404"/>
			<point x="444" y="376"/>
			<point x="444" y="308" type="curve" smooth="yes"/>
			<point x="444" y="256"/>
			<point x="428" y="204"/>
			<point x="412" y="168" type="curve" smooth="yes"/>
			<point x="396" y="132"/>
			<point x="364" y="72"/>
			<point x="292" y="72" type="curve" smooth="yes"/>
			<point x="244" y="72"/>
			<point x="212" y="88"/>
			<point x="164" y="128" type="curve"/>
			<point x="164" y="24" type="line"/>
			<point x="180" y="16"/>
			<point x="228" y="0"/>
		</contour>
		<contour>
			<point x="-8" y="-220" type="line"/>
			<point x="188" y="-220" type="line"/>
			<point x="224" y="56" type="line"/>
			<point x="248" y="56" type="line"/>
			<point x="324" y="404" type="line"/>
			<point x="302" y="404" type="line"/>
			<point x="310" y="516" type="line"/>
			<point x="246" y="516" type="line"/>
			<point x="40" y="460" type="line"/>
			<point x="40" y="392" type="line"/>
			<point x="188" y="392" type="line"/>
			<point x="132" y="424" type="line"/>
		</contour>
		<contour>
			<point x="-84" y="-220" type="line"/>
			<point x="278" y="-220" type="line"/>
			<point x="292" y="-144" type="line"/>
			<point x="144" y="-144" type="line"/>
			<point x="48" y="-144" type="line"/>
			<point x="-70" y="-144" type="line"/>
		</contour>
	</outline>
	<anchor name="aboveLC" x="354" y="520"/>
	<anchor name="belowLC" x="82" y="-240"/>
</glyph>
<glyph name="q" format="2">
	<unicode hex="0071"/>
	<advance width="660"/>
	<outline>
		<contour>
			<point x="192" y="-12" type="curve" smooth="yes"/>
			<point x="284" y="-12"/>
			<point x="316" y="52"/>
			<point x="332" y="92" type="curve"/>
			<point x="376" y="92" type="line"/>
			<point x="376" y="164" type="line"/>
			<point x="348" y="136"/>
			<point x="324" y="112"/>
			<point x="292" y="112" type="curve" smooth="yes"/>
			<point x="252" y="112"/>
			<point x="228" y="140"/>
			<point x="228" y="208" type="curve" smooth="yes"/>
			<point x="228" y="260"/>
			<point x="244" y="312"/>
			<point x="260" y="348" type="curve" smooth="yes"/>
			<point x="276" y="384"/>
			<point x="308" y="444"/>
			<point x="380" y="444" type="curve" smooth="yes"/>
			<point x="428" y="444"/>
			<point x="460" y="428"/>
			<point x="508" y="388" type="curve"/>
			<point x="508" y="492" type="line"/>
			<point x="492" y="500"/>
			<point x="444" y="516"/>
			<point x="372" y="516" type="curve" smooth="yes"/>
			<point x="180" y="516"/>
			<point x="36" y="348"/>
			<point x="36" y="168" type="curve" smooth="yes"/>
			<point x="36" y="56"/>
			<point x="104" y="-12"/>
		</contour>
		<contour>
			<point x="192" y="-220" type="line"/>
			<point x="554" y="-220" type="line"/>
			<point x="568" y="-144" type="line"/>
			<point x="420" y="-144" type="line"/>
			<point x="324" y="-144" type="line"/>
			<point x="206" y="-144" type="line"/>
		</contour>
		<contour>
			<point x="636" y="540" type="line"/>
			<point x="556" y="540" type="line"/>
			<point x="456" y="460" type="line"/>
			<point x="424" y="460" type="line"/>
			<point x="344" y="96" type="line"/>
			<point x="372" y="96" type="line"/>
			<point x="276" y="-220" type="line"/>
			<point x="470" y="-220" type="line"/>
			<point x="512" y="-27" type="line"/>
		</contour>
	</outline>
	<anchor name="aboveLC" x="416" y="520"/>
	<anchor name="belowLC" x="354" y="-240"/>
</glyph>
<glyph name="r" format="2">
	<unicode hex="0072"/>
	<advance width="568"/>
	<outline>
		<contour>
			<point x="248" y="156" type="line"/>
			<point x="316" y="324"/>
			<point x="340" y="372"/>
			<point x="360" y="400" type="curve"/>
			<point x="416" y="400" type="line"/>
			<point x="360" y="436" type="line"/>
			<point x="372" y="416" type="line" smooth="yes"/>
			<point x="392" y="382"/>
			<point x="412" y="356"/>
			<point x="464" y="356" type="curve" smooth="yes"/>
			<point x="520" y="356"/>
			<point x="548" y="400"/>
			<point x="556" y="444" type="curve"/>
			<point x="548" y="484"/>
			<point x="516" y="524"/>
			<point x="452" y="524" type="curve" smooth="yes"/>
			<point x="380" y="524"/>
			<point x="336" y="468"/>
			<point x="296" y="332" type="curve"/>
			<point x="248" y="332" type="line"/>
		</contour>
		<contour>
			<point x="40" y="0" type="line"/>
			<point x="88" y="-16" type="line"/>
			<point x="236" y="0" type="line"/>
			<point x="252" y="77"/>
			<point x="268" y="155"/>
			<point x="284" y="232" type="curve" smooth="yes"/>
			<point x="300" y="308" type="line"/>
			<point x="252" y="308" type="line"/>
			<point x="300" y="516" type="line"/>
			<point x="236" y="516" type="line"/>
			<point x="43" y="460" type="line"/>
			<point x="29" y="392" type="line"/>
			<point x="184" y="392" type="line"/>
			<point x="128" y="424" type="line"/>
		</contour>
	</outline>
	<anchor name="aboveLC" x="341" y="536"/>
	<anchor name="belowLC" x="146" y="-20"/>
</glyph>
<glyph name="s" format="2">
	<unicode hex="0073"/>
	<advance width="528"/>
	<outline>
		<contour>
			<point x="236" y="-16" type="curve" smooth="yes"/>
			<point x="364" y="-16"/>
			<point x="468" y="48"/>
			<point x="468" y="152" type="curve" smooth="yes"/>
			<point x="468" y="228"/>
			<point x="418" y="264"/>
			<point x="358" y="308" type="curve" smooth="yes"/>
			<point x="298" y="352"/>
			<point x="276" y="376"/>
			<point x="276" y="418" type="curve" smooth="yes"/>
			<point x="276" y="452"/>
			<point x="292" y="480"/>
			<point x="300" y="488" type="curve"/>
			<point x="327" y="488"/>
			<point x="353" y="488"/>
			<point x="380" y="488" type="curve"/>
			<point x="328" y="492" type="line"/>
			<point x="341" y="439" type="line" smooth="yes"/>
			<point x="355" y="382"/>
			<point x="395" y="360"/>
			<point x="435" y="360" type="curve" smooth="yes"/>
			<point x="479" y="360"/>
			<point x="492" y="392"/>
			<point x="499" y="431" type="curve"/>
			<point x="486" y="483"/>
			<point x="428" y="532"/>
			<point x="312" y="532" type="curve" smooth="yes"/>
			<point x="180" y="532"/>
			<point x="96" y="456"/>
			<point x="96" y="356" type="curve" smooth="yes"/>
			<point x="96" y="284"/>
			<point x="146" y="244"/>
			<point x="206" y="200" type="curve" smooth="yes"/>
			<point x="266" y="156"/>
			<point x="288" y="136"/>
			<point x="288" y="96" type="curve" smooth="yes"/>
			<point x="288" y="56"/>
			<point x="264" y="36"/>
			<point x="252" y="28" type="curve"/>
			<point x="216" y="28"/>
			<point x="180" y="28"/>
			<point x="144" y="28" type="curve"/>
			<point x="213" y="15" type="line"/>
			<point x="199" y="77" type="line" smooth="yes"/>
			<point x="186" y="135"/>
			<point x="150" y="164"/>
			<point x="106" y="164" type="curve" smooth="yes"/>
			<point x="62" y="164"/>
			<point x="37" y="145"/>
			<point x="27" y="93" type="curve"/>
			<point x="61" y="12"/>
			<point x="113" y="-16"/>
		</contour>
	</outline>
	<anchor name="aboveLC" x="321" y="536"/>
	<anchor name="belowLC" x="223" y="-20"/>
	<anchor name="baseLC" x="201" y="0"/>
</glyph>
<glyph name="t" format="2">
	<unicode hex="0074"/>
	<advance width="460"/>
	<outline>
		<contour>
			<point x="84" y="240" type="line" smooth="yes"/>
			<point x="72" y="192"/>
			<point x="64" y="148"/>
			<point x="64" y="116" type="curve" smooth="yes"/>
			<point x="64" y="36"/>
			<point x="116" y="-12"/>
			<point x="206" y="-12" type="curve" smooth="yes"/>
			<point x="304" y="-12"/>
			<point x="348" y="36"/>
			<point x="416" y="128" type="curve"/>
			<point x="360" y="168" type="line"/>
			<point x="316" y="108"/>
			<point x="304" y="96"/>
			<point x="282" y="96" type="curve" smooth="yes"/>
			<point x="266" y="96"/>
			<point x="256" y="106"/>
			<point x="256" y="122" type="curve" smooth="yes"/>
			<point x="256" y="136"/>
			<point x="260" y="152"/>
			<point x="268" y="192" type="curve" smooth="yes"/>
			<point x="364" y="652" type="line"/>
			<point x="284" y="652" type="line"/>
			<point x="140" y="460" type="line"/>
		</contour>
		<contour>
			<point x="47" y="432" type="line"/>
			<point x="216" y="440" type="line"/>
			<point x="437" y="432" type="line"/>
			<point x="455" y="516" type="line"/>
			<point x="232" y="516" type="line"/>
			<point x="232" y="524" type="line"/>
			<point x="61" y="500" type="line"/>
		</contour>
	</outline>
	<anchor name="aboveLC" x="306" y="672"/>
	<anchor name="belowLC" x="205" y="-20"/>
	<anchor name="baseLC" x="208" y="0"/>
</glyph>
<glyph name="u" format="2">
	<unicode hex="0075"/>
	<advance width="715"/>
	<outline>
		<contour>
			<point x="182" y="-16" type="curve" smooth="yes"/>
			<point x="280" y="-16"/>
			<point x="332" y="28"/>
			<point x="374" y="92" type="curve"/>
			<point x="418" y="92" type="line"/>
			<point x="420" y="154" type="line"/>
			<point x="376" y="130"/>
			<point x="345" y="116"/>
			<point x="308" y="116" type="curve" smooth="yes"/>
			<point x="280" y="116"/>
			<point x="266" y="134"/>
			<point x="266" y="156" type="curve" smooth="yes"/>
			<point x="266" y="172"/>
			<point x="270" y="188"/>
			<point x="278" y="220" type="curve" smooth="yes"/>
			<point x="348" y="516" type="line"/>
			<point x="264" y="526" type="line"/>
			<point x="53" y="461" type="line"/>
			<point x="39" y="392" type="line"/>
			<point x="196" y="392" type="line"/>
			<point x="132" y="424" type="line"/>
			<point x="80" y="212" type="line" smooth="yes"/>
			<point x="72" y="180"/>
			<point x="64" y="140"/>
			<point x="64" y="90" type="curve" smooth="yes"/>
			<point x="64" y="36"/>
			<point x="96" y="-16"/>
		</contour>
		<contour>
			<point x="518" y="-16" type="curve" smooth="yes"/>
			<point x="623" y="-16"/>
			<point x="671" y="50"/>
			<point x="709" y="117" type="curve"/>
			<point x="660" y="148" type="line"/>
			<point x="636" y="112"/>
			<point x="628" y="96"/>
			<point x="608" y="96" type="curve" smooth="yes"/>
			<point x="592" y="96"/>
			<point x="584" y="106"/>
			<point x="584" y="122" type="curve" smooth="yes"/>
			<point x="584" y="136"/>
			<point x="590" y="164"/>
			<point x="596" y="192" type="curve" smooth="yes"/>
			<point x="668" y="516" type="line"/>
			<point x="620" y="526" type="line"/>
			<point x="470" y="506" type="line"/>
			<point x="459" y="454"/>
			<point x="449" y="412"/>
			<point x="438" y="360" type="curve" smooth="yes"/>
			<point x="386" y="115" type="line"/>
			<point x="399" y="115" type="line"/>
			<point x="399" y="109"/>
			<point x="398" y="103"/>
			<point x="398" y="97" type="curve" smooth="yes"/>
			<point x="398" y="20"/>
			<point x="431" y="-16"/>
		</contour>
	</outline>
	<anchor name="aboveLC" x="401" y="536"/>
	<anchor name="belowLC" x="345" y="-20"/>
	<anchor name="hornLC" x="619" y="409"/>
	<anchor name="ogonek" x="472" y="0"/>
</glyph>
<glyph name="v" format="2">
	<unicode hex="0076"/>
	<advance width="608"/>
	<outline>
		<contour>
			<point x="164" y="0" type="curve"/>
			<point x="220" y="-24" type="line"/>
			<point x="376" y="0" type="line"/>
			<point x="440" y="88"/>
			<point x="524" y="240"/>
			<point x="548" y="296" type="curve" smooth="yes"/>
			<point x="572" y="352"/>
			<point x="588" y="404"/>
			<point x="588" y="456" type="curve" smooth="yes"/>
			<point x="588" y="484"/>
			<point x="584" y="504"/>
			<point x="580" y="516" type="curve"/>
			<point x="568" y="522"/>
			<point x="546" y="528"/>
			<point x="518" y="528" type="curve" smooth="yes"/>
			<point x="460" y="528"/>
			<point x="424" y="492"/>
			<point x="424" y="436" type="curve" smooth="yes"/>
			<point x="424" y="400"/>
			<point x="436" y="374"/>
			<point x="456" y="336" type="curve" smooth="yes"/>
			<point x="496" y="260" type="line"/>
			<point x="496" y="400" type="line"/>
			<point x="492" y="384"/>
			<point x="484" y="360"/>
			<point x="476" y="336" type="curve" smooth="yes"/>
			<point x="444" y="240"/>
			<point x="412" y="152"/>
			<point x="360" y="48" type="curve"/>
			<point x="328" y="48" type="line"/>
			<point x="328" y="176"/>
			<point x="328" y="312"/>
			<point x="320" y="400" type="curve" smooth="yes"/>
			<point x="312" y="484"/>
			<point x="268" y="528"/>
			<point x="184" y="528" type="curve" smooth="yes"/>
			<point x="108" y="528"/>
			<point x="56" y="484"/>
			<point x="0" y="400" type="curve"/>
			<point x="56" y="364" type="line"/>
			<point x="80" y="396"/>
			<point x="92" y="404"/>
			<point x="106" y="404" type="curve" smooth="yes"/>
			<point x="120" y="404"/>
			<point x="128" y="396"/>
			<point x="132" y="372" type="curve" smooth="yes"/>
			<point x="148" y="276"/>
			<point x="160" y="120"/>
		</contour>
	</outline>
	<anchor name="aboveLC" x="349" y="520"/>
	<anchor name="belowLC" x="230" y="-22"/>
	<anchor name="aboveLC" x="365" y="520"/>
	<anchor name="belowLC" x="246" y="-22"/>
</glyph>
<glyph name="w" format="2">
	<unicode hex="0077"/>
	<advance width="924"/>
	<outline>
		<contour>
			<point x="160" y="0" type="curve"/>
			<point x="212" y="-24" type="line"/>
			<point x="384" y="0" type="line"/>
			<point x="432" y="120"/>
			<point x="468" y="248"/>
			<point x="484" y="360" type="curve"/>
			<point x="500" y="360" type="line"/>
			<point x="500" y="0" type="line"/>
			<point x="556" y="-24" type="line"/>
			<point x="700" y="0" type="line"/>
			<point x="764" y="88"/>
			<point x="840" y="240"/>
			<point x="864" y="296" type="curve" smooth="yes"/>
			<point x="888" y="352"/>
			<point x="904" y="404"/>
			<point x="904" y="456" type="curve" smooth="yes"/>
			<point x="904" y="484"/>
			<point x="900" y="504"/>
			<point x="896" y="516" type="curve"/>
			<point x="884" y="522"/>
			<point x="862" y="528"/>
			<point x="834" y="528" type="curve" smooth="yes"/>
			<point x="776" y="528"/>
			<point x="740" y="492"/>
			<point x="740" y="436" type="curve" smooth="yes"/>
			<point x="740" y="400"/>
			<point x="752" y="374"/>
			<point x="772" y="336" type="curve" smooth="yes"/>
			<point x="812" y="260" type="line"/>
			<point x="812" y="400" type="line"/>
			<point x="808" y="384"/>
			<point x="798" y="344"/>
			<point x="792" y="320" type="curve" smooth="yes"/>
			<point x="768" y="224"/>
			<point x="736" y="152"/>
			<point x="684" y="48" type="curve"/>
			<point x="648" y="48" type="line"/>
			<point x="648" y="504" type="line"/>
			<point x="600" y="528" type="line"/>
			<point x="452" y="504" type="line"/>
			<point x="428" y="304"/>
			<point x="392" y="160"/>
			<point x="352" y="48" type="curve"/>
			<point x="320" y="48" type="line"/>
			<point x="320" y="176"/>
			<point x="320" y="312"/>
			<point x="314" y="400" type="curve" smooth="yes"/>
			<point x="308" y="484"/>
			<point x="260" y="528"/>
			<point x="182" y="528" type="curve" smooth="yes"/>
			<point x="108" y="528"/>
			<point x="56" y="484"/>
			<point x="0" y="400" type="curve"/>
			<point x="56" y="364" type="line"/>
			<point x="80" y="396"/>
			<point x="92" y="404"/>
			<point x="106" y="404" type="curve" smooth="yes"/>
			<point x="120" y="404"/>
			<point x="128" y="396"/>
			<point x="132" y="372" type="curve" smooth="yes"/>
			<point x="148" y="276"/>
			<point x="156" y="120"/>
		</contour>
	</outline>
	<anchor name="aboveLC" x="513" y="520"/>
	<anchor name="belowLC" x="380" y="-22"/>
	<anchor name="aboveLC" x="509" y="520"/>
	<anchor name="belowLC" x="376" y="-22"/>
</glyph>
<glyph name="x" format="2">
	<unicode hex="0078"/>
	<advance width="740"/>
	<outline>
		<contour>
			<point x="476" y="-12" type="curve" smooth="yes"/>
			<point x="552" y="-12"/>
			<point x="616" y="32"/>
			<point x="664" y="116" type="curve"/>
			<point x="608" y="152" type="line"/>
			<point x="584" y="112"/>
			<point x="568" y="96"/>
			<point x="548" y="96" type="curve" smooth="yes"/>
			<point x="524" y="96"/>
			<point x="512" y="112"/>
			<point x="504" y="148" type="curve" smooth="yes"/>
			<point x="468" y="320" type="line"/>
			<point x="420" y="320" type="line"/>
			<point x="420" y="368" type="line" smooth="yes"/>
			<point x="420" y="484"/>
			<point x="372" y="528"/>
			<point x="282" y="528" type="curve" smooth="yes"/>
			<point x="220" y="528"/>
			<point x="160" y="496"/>
			<point x="96" y="424" type="curve"/>
			<point x="144" y="372" type="line"/>
			<point x="176" y="408"/>
			<point x="192" y="420"/>
			<point x="210" y="420" type="curve" smooth="yes"/>
			<point x="228" y="420"/>
			<point x="240" y="404"/>
			<point x="248" y="368" type="curve" smooth="yes"/>
			<point x="284" y="196" type="line"/>
			<point x="332" y="196" type="line"/>
			<point x="332" y="148" type="line" smooth="yes"/>
			<point x="332" y="32"/>
			<point x="384" y="-12"/>
		</contour>
		<contour>
			<point x="24" y="72" type="curve"/>
			<point x="32" y="32"/>
			<point x="64" y="-12"/>
			<point x="140" y="-12" type="curve" smooth="yes"/>
			<point x="232" y="-12"/>
			<point x="256" y="28"/>
			<point x="272" y="68" type="curve" smooth="yes"/>
			<point x="288" y="108"/>
			<point x="300" y="184"/>
			<point x="316" y="296" type="curve"/>
			<point x="280" y="304" type="line"/>
			<point x="268" y="231"/>
			<point x="241" y="152"/>
			<point x="219" y="95" type="curve" smooth="yes"/>
			<point x="212" y="77"/>
			<point x="206" y="61"/>
			<point x="200" y="48" type="curve"/>
			<point x="156" y="48" type="line"/>
			<point x="172" y="32" type="line"/>
			<point x="172" y="56" type="line" smooth="yes"/>
			<point x="172" y="116"/>
			<point x="150" y="148"/>
			<point x="98" y="148" type="curve" smooth="yes"/>
			<point x="50" y="148"/>
			<point x="28" y="108"/>
		</contour>
		<contour>
			<point x="472" y="212" type="line"/>
			<point x="485" y="288"/>
			<point x="512" y="368"/>
			<point x="535" y="427" type="curve" smooth="yes"/>
			<point x="541" y="442"/>
			<point x="547" y="456"/>
			<point x="552" y="468" type="curve"/>
			<point x="596" y="468" type="line"/>
			<point x="580" y="484" type="line"/>
			<point x="580" y="460" type="line" smooth="yes"/>
			<point x="580" y="400"/>
			<point x="602" y="368"/>
			<point x="654" y="368" type="curve" smooth="yes"/>
			<point x="702" y="368"/>
			<point x="724" y="408"/>
			<point x="728" y="444" type="curve"/>
			<point x="720" y="484"/>
			<point x="688" y="528"/>
			<point x="608" y="528" type="curve" smooth="yes"/>
			<point x="520" y="528"/>
			<point x="496" y="488"/>
			<point x="480" y="448" type="curve" smooth="yes"/>
			<point x="464" y="408"/>
			<point x="452" y="332"/>
			<point x="436" y="220" type="curve"/>
		</contour>
	</outline>
	<anchor name="aboveLC" x="440" y="551"/>
	<anchor name="belowLC" x="291" y="-22"/>
</glyph>
<glyph name="y" format="2">
	<unicode hex="0079"/>
	<advance width="664"/>
	<outline>
		<contour>
			<point x="-52" y="-148" type="curve"/>
			<point x="-44" y="-180"/>
			<point x="-12" y="-232"/>
			<point x="76" y="-232" type="curve" smooth="yes"/>
			<point x="168" y="-232"/>
			<point x="228" y="-184"/>
			<point x="268" y="-140" type="curve" smooth="yes"/>
			<point x="308" y="-96"/>
			<point x="340" y="-60"/>
			<point x="384" y="0" type="curve" smooth="yes"/>
			<point x="428" y="60"/>
			<point x="484" y="148"/>
			<point x="516" y="196" type="curve" smooth="yes"/>
			<point x="548" y="244"/>
			<point x="580" y="292"/>
			<point x="604" y="336" type="curve" smooth="yes"/>
			<point x="628" y="380"/>
			<point x="652" y="424"/>
			<point x="652" y="464" type="curve" smooth="yes"/>
			<point x="652" y="504"/>
			<point x="624" y="528"/>
			<point x="580" y="528" type="curve" smooth="yes"/>
			<point x="524" y="528"/>
			<point x="496" y="496"/>
			<point x="472" y="380" type="curve" smooth="yes"/>
			<point x="448" y="263"/>
			<point x="416" y="156"/>
			<point x="372" y="44" type="curve"/>
			<point x="348" y="18"/>
			<point x="308" y="-16"/>
			<point x="272" y="-56" type="curve" smooth="yes"/>
			<point x="236" y="-96"/>
			<point x="192" y="-140"/>
			<point x="160" y="-172" type="curve"/>
			<point x="108" y="-172" type="line"/>
			<point x="132" y="-188" type="line"/>
			<point x="124" y="-156" type="line" smooth="yes"/>
			<point x="112" y="-108"/>
			<point x="84" y="-76"/>
			<point x="30" y="-76" type="curve" smooth="yes"/>
			<point x="-20" y="-76"/>
			<point x="-44" y="-112"/>
		</contour>
		<contour>
			<point x="412" y="52" type="line"/>
			<point x="348" y="52" type="line"/>
			<point x="348" y="188"/>
			<point x="348" y="328"/>
			<point x="340" y="400" type="curve" smooth="yes"/>
			<point x="328" y="504"/>
			<point x="272" y="528"/>
			<point x="204" y="528" type="curve" smooth="yes"/>
			<point x="136" y="528"/>
			<point x="84" y="496"/>
			<point x="8" y="416" type="curve"/>
			<point x="56" y="364" type="line"/>
			<point x="92" y="400"/>
			<point x="104" y="408"/>
			<point x="120" y="408" type="curve" smooth="yes"/>
			<point x="136" y="408"/>
			<point x="148" y="400"/>
			<point x="160" y="360" type="curve" smooth="yes"/>
			<point x="192" y="256"/>
			<point x="224" y="80"/>
			<point x="240" y="-112" type="curve"/>
		</contour>
	</outline>
	<anchor name="aboveLC" x="418" y="536"/>
	<anchor name="belowLC" x="151" y="-240"/>
</glyph>
<glyph name="z" format="2">
	<unicode hex="007A"/>
	<advance width="592"/>
	<outline>
		<contour>
			<point x="349" y="-32" type="curve" smooth="yes"/>
			<point x="443" y="-32"/>
			<point x="561" y="78"/>
			<point x="561" y="219" type="curve" smooth="yes"/>
			<point x="561" y="254"/>
			<point x="550" y="281"/>
			<point x="511" y="299" type="curve"/>
			<point x="459" y="299"/>
			<point x="421" y="270"/>
			<point x="421" y="222" type="curve" smooth="yes"/>
			<point x="421" y="174"/>
			<point x="460" y="150"/>
			<point x="512" y="150" type="curve"/>
			<point x="511" y="96" type="line"/>
			<point x="516" y="128" type="line"/>
			<point x="500" y="124"/>
			<point x="476" y="120"/>
			<point x="436" y="120" type="curve" smooth="yes"/>
			<point x="347" y="120"/>
			<point x="244" y="148"/>
			<point x="173" y="186" type="curve"/>
			<point x="132" y="160" type="line"/>
			<point x="167" y="56"/>
			<point x="241" y="-32"/>
		</contour>
		<contour>
			<point x="122" y="0" type="line"/>
			<point x="156" y="120" type="line"/>
			<point x="241" y="188"/>
			<point x="394" y="280"/>
			<point x="484" y="352" type="curve" smooth="yes"/>
			<point x="553" y="408"/>
			<point x="590" y="464"/>
			<point x="607" y="512" type="curve"/>
			<point x="575" y="536" type="line"/>
			<point x="479" y="516" type="line"/>
			<point x="445" y="396" type="line"/>
			<point x="359" y="328"/>
			<point x="206" y="236"/>
			<point x="116" y="164" type="curve" smooth="yes"/>
			<point x="47" y="108"/>
			<point x="11" y="52"/>
			<point x="-6" y="4" type="curve"/>
			<point x="25" y="-20" type="line"/>
		</contour>
		<contour>
			<point x="58" y="270" type="line"/>
			<point x="119" y="258" type="line"/>
			<point x="189" y="450" type="line"/>
			<point x="121" y="367" type="line"/>
			<point x="206" y="353"/>
			<point x="291" y="338"/>
			<point x="377" y="322" type="curve"/>
			<point x="498" y="400" type="line"/>
			<point x="409" y="456"/>
			<point x="291" y="505"/>
			<point x="191" y="538" type="curve"/>
			<point x="77" y="451" type="line"/>
		</contour>
	</outline>
	<anchor name="aboveLC" x="360" y="536"/>
	<anchor name="belowLC" x="235" y="-20"/>
</glyph>
<glyph name="braceleft" format="2">
	<unicode hex="007B"/>
	<advance width="334"/>
	<outline>
		<contour>
			<point x="48" y="234" type="line"/>
			<point x="104" y="226"/>
			<point x="120" y="216"/>
			<point x="120" y="184" type="curve" smooth="yes"/>
			<point x="120" y="128"/>
			<point x="40" y="48"/>
			<point x="40" y="-40" type="curve" smooth="yes"/>
			<point x="40" y="-120"/>
			<point x="100" y="-160"/>
			<point x="228" y="-160" type="curve" smooth="yes"/>
			<point x="248" y="-160" type="line"/>
			<point x="260" y="-92" type="line"/>
			<point x="244" y="-88" type="line" smooth="yes"/>
			<point x="212" y="-80"/>
			<point x="196" y="-56"/>
			<point x="196" y="-24" type="curve" smooth="yes"/>
			<point x="196" y="32"/>
			<point x="244" y="104"/>
			<point x="244" y="176" type="curve" smooth="yes"/>
			<point x="244" y="240"/>
			<point x="192" y="266"/>
			<point x="80" y="266" type="curve"/>
			<point x="80" y="288" type="line"/>
			<point x="224" y="296"/>
			<point x="288" y="332"/>
			<point x="288" y="424" type="curve" smooth="yes"/>
			<point x="288" y="456"/>
			<point x="284" y="504"/>
			<point x="284" y="536" type="curve" smooth="yes"/>
			<point x="284" y="600"/>
			<point x="300" y="636"/>
			<point x="376" y="646" type="curve" smooth="yes"/>
			<point x="392" y="648" type="line"/>
			<point x="404" y="716" type="line"/>
			<point x="376" y="716" type="line" smooth="yes"/>
			<point x="212" y="716"/>
			<point x="136" y="664"/>
			<point x="136" y="568" type="curve" smooth="yes"/>
			<point x="136" y="504"/>
			<point x="164" y="448"/>
			<point x="164" y="400" type="curve" smooth="yes"/>
			<point x="164" y="348"/>
			<point x="136" y="328"/>
			<point x="48" y="320" type="curve"/>
		</contour>
	</outline>
</glyph>
<glyph name="asciitilde" format="2">
	<unicode hex="007E"/>
	<advance width="600"/>
	<outline>
		<contour>
			<point x="350" y="400" type="curve" smooth="yes"/>
			<point x="310" y="424"/>
			<point x="278" y="440"/>
			<point x="230" y="440" type="curve" smooth="yes"/>
			<point x="150" y="440"/>
			<point x="88" y="396"/>
			<point x="74" y="264" type="curve"/>
			<point x="166" y="248" type="line"/>
			<point x="174" y="292"/>
			<point x="190" y="316"/>
			<point x="230" y="316" type="curve" smooth="yes"/>
			<point x="266" y="316"/>
			<point x="290" y="300"/>
			<point x="310" y="288" type="curve" smooth="yes"/>
			<point x="350" y="264"/>
			<point x="382" y="248"/>
			<point x="430" y="248" type="curve" smooth="yes"/>
			<point x="510" y="248"/>
			<point x="566" y="292"/>
			<point x="586" y="424" type="curve"/>
			<point x="494" y="440" type="line"/>
			<point x="486" y="396"/>
			<point x="470" y="372"/>
			<point x="430" y="372" type="curve" smooth="yes"/>
			<point x="394" y="372"/>
			<point x="370" y="388"/>
		</contour>
	</outline>
</glyph>
<glyph name="cent" format="2">
	<unicode hex="00A2"/>
	<advance width="600"/>
	<outline>
		<contour>
			<point x="288" y="44" type="curve" smooth="yes"/>
			<point x="420" y="44"/>
			<point x="492" y="132"/>
			<point x="532" y="200" type="curve"/>
			<point x="476" y="240" type="line"/>
			<point x="432" y="184"/>
			<point x="396" y="156"/>
			<point x="344" y="156" type="curve" smooth="yes"/>
			<point x="276" y="156"/>
			<point x="236" y="196"/>
			<point x="236" y="284" type="curve" smooth="yes"/>
			<point x="236" y="392"/>
			<point x="292" y="512"/>
			<point x="384" y="512" type="curve" smooth="yes"/>
			<point x="440" y="512"/>
			<point x="456" y="504"/>
			<point x="480" y="496" type="curve"/>
			<point x="424" y="528" type="line"/>
			<point x="436" y="432" type="line" smooth="yes"/>
			<point x="442" y="386"/>
			<point x="460" y="364"/>
			<point x="502" y="364" type="curve" smooth="yes"/>
			<point x="544" y="364"/>
			<point x="560" y="394"/>
			<point x="564" y="424" type="curve"/>
			<point x="548" y="504"/>
			<point x="472" y="560"/>
			<point x="360" y="560" type="curve" smooth="yes"/>
			<point x="192" y="560"/>
			<point x="72" y="416"/>
			<point x="72" y="252" type="curve" smooth="yes"/>
			<point x="72" y="124"/>
			<point x="156" y="44"/>
		</contour>
		<contour>
			<point x="328" y="-48" type="line"/>
			<point x="420" y="652" type="line"/>
			<point x="360" y="652" type="line"/>
			<point x="268" y="-48" type="line"/>
		</contour>
	</outline>
</glyph>
<glyph name="sterling" format="2">
	<unicode hex="00A3"/>
	<advance width="560"/>
	<outline>
		<contour>
			<point x="27" y="0" type="line"/>
			<point x="467" y="0" type="line"/>
			<point x="496" y="140" type="line"/>
			<point x="144" y="140" type="line"/>
			<point x="147" y="117" type="line"/>
			<point x="238" y="158"/>
			<point x="322" y="242"/>
			<point x="322" y="304" type="curve" smooth="yes"/>
			<point x="322" y="373"/>
			<point x="301" y="410"/>
			<point x="301" y="479" type="curve" smooth="yes"/>
			<point x="301" y="541"/>
			<point x="331" y="585"/>
			<point x="411" y="585" type="curve" smooth="yes"/>
			<point x="422" y="585"/>
			<point x="433" y="584"/>
			<point x="447" y="582" type="curve"/>
			<point x="410" y="604" type="line"/>
			<point x="410" y="577"/>
			<point x="410" y="551"/>
			<point x="410" y="524" type="curve" smooth="yes"/>
			<point x="410" y="446"/>
			<point x="435" y="427"/>
			<point x="472" y="427" type="curve" smooth="yes"/>
			<point x="505" y="427"/>
			<point x="532" y="442"/>
			<point x="548" y="490" type="curve"/>
			<point x="548" y="586"/>
			<point x="488" y="640"/>
			<point x="348" y="640" type="curve" smooth="yes"/>
			<point x="223" y="640"/>
			<point x="119" y="580"/>
			<point x="119" y="480" type="curve" smooth="yes"/>
			<point x="119" y="386"/>
			<point x="188" y="350"/>
			<point x="188" y="279" type="curve" smooth="yes"/>
			<point x="188" y="216"/>
			<point x="130" y="158"/>
			<point x="49" y="115" type="curve"/>
		</contour>
		<contour>
			<point x="92" y="248" type="line"/>
			<point x="436" y="248" type="line"/>
			<point x="449" y="308" type="line"/>
			<point x="104" y="308" type="line"/>
		</contour>
	</outline>
</glyph>
<glyph name="yen" format="2">
	<unicode hex="00A5"/>
	<advance width="600"/>
	<outline>
		<contour>
			<point x="82" y="552" type="line"/>
			<point x="186" y="552" type="line"/>
			<point x="278" y="552" type="line"/>
			<point x="370" y="552" type="line"/>
			<point x="384" y="628" type="line"/>
			<point x="96" y="628" type="line"/>
		</contour>
		<contour>
			<point x="90" y="136" type="line"/>
			<point x="498" y="136" type="line"/>
			<point x="510" y="196" type="line"/>
			<point x="102" y="196" type="line"/>
		</contour>
		<contour>
			<point x="100" y="0" type="line"/>
			<point x="446" y="0" type="line"/>
			<point x="459" y="72" type="line"/>
			<point x="327" y="72" type="line"/>
			<point x="239" y="72" type="line"/>
			<point x="113" y="72" type="line"/>
		</contour>
		<contour>
			<point x="114" y="256" type="line"/>
			<point x="522" y="256" type="line"/>
			<point x="534" y="316" type="line"/>
			<point x="126" y="316" type="line"/>
		</contour>
		<contour>
			<point x="180" y="0" type="line"/>
			<point x="360" y="0" type="line"/>
			<point x="379" y="101"/>
			<point x="397" y="203"/>
			<point x="416" y="304" type="curve"/>
			<point x="236" y="304" type="line"/>
		</contour>
		<contour>
			<point x="230" y="256" type="line"/>
			<point x="406" y="256" type="line"/>
			<point x="642" y="628" type="line"/>
			<point x="554" y="628" type="line"/>
			<point x="442" y="433" type="line"/>
			<point x="390" y="324" type="line"/>
			<point x="360" y="324" type="line"/>
			<point x="302" y="628" type="line"/>
			<point x="110" y="628" type="line"/>
		</contour>
		<contour>
			<point x="452" y="552" type="line"/>
			<point x="518" y="552" type="line"/>
			<point x="570" y="552" type="line"/>
			<point x="644" y="552" type="line"/>
			<point x="658" y="628" type="line"/>
			<point x="466" y="628" type="line"/>
		</contour>
	</outline>
</glyph>
<glyph name="brokenbar" format="2">
	<unicode hex="00A6"/>
	<advance width="322"/>
	<outline>
		<contour>
			<point x="110" y="-250" type="line"/>
			<point x="232" y="-250" type="line"/>
			<point x="232" y="200" type="line"/>
			<point x="110" y="200" type="line"/>
		</contour>
		<contour>
			<point x="232" y="320" type="line"/>
			<point x="232" y="750" type="line"/>
			<point x="110" y="750" type="line"/>
			<point x="110" y="320" type="line"/>
		</contour>
	</outline>
</glyph>
<glyph name="section" format="2">
	<unicode hex="00A7"/>
	<advance width="560"/>
	<outline>
		<contour>
			<point x="356" y="668" type="curve" smooth="yes"/>
			<point x="236" y="668"/>
			<point x="156" y="608"/>
			<point x="156" y="512" type="curve" smooth="yes"/>
			<point x="156" y="440"/>
			<point x="212" y="396"/>
			<point x="260" y="360" type="curve" smooth="yes"/>
			<point x="292" y="336" type="line" smooth="yes"/>
			<point x="340" y="300"/>
			<point x="364" y="276"/>
			<point x="364" y="236" type="curve" smooth="yes"/>
			<point x="364" y="196"/>
			<point x="348" y="168"/>
			<point x="324" y="152" type="curve"/>
			<point x="324" y="136" type="line"/>
			<point x="436" y="152"/>
			<point x="508" y="192"/>
			<point x="508" y="284" type="curve" smooth="yes"/>
			<point x="508" y="356"/>
			<point x="464" y="400"/>
			<point x="400" y="448" type="curve" smooth="yes"/>
			<point x="368" y="472" type="line" smooth="yes"/>
			<point x="336" y="496"/>
			<point x="304" y="520"/>
			<point x="304" y="560" type="curve" smooth="yes"/>
			<point x="304" y="600"/>
			<point x="340" y="628"/>
			<point x="392" y="628" type="curve" smooth="yes"/>
			<point x="420" y="628"/>
			<point x="438" y="624"/>
			<point x="456" y="620" type="curve"/>
			<point x="380" y="652" type="line"/>
			<point x="404" y="572" type="line" smooth="yes"/>
			<point x="414" y="538"/>
			<point x="434" y="512"/>
			<point x="474" y="512" type="curve" smooth="yes"/>
			<point x="514" y="512"/>
			<point x="534" y="538"/>
			<point x="540" y="568" type="curve"/>
			<point x="532" y="616"/>
			<point x="478" y="668"/>
		</contour>
		<contour>
			<point x="216" y="-140" type="curve"/>
			<point x="336" y="-140"/>
			<point x="424" y="-80"/>
			<point x="424" y="16" type="curve" smooth="yes"/>
			<point x="424" y="88"/>
			<point x="368" y="132"/>
			<point x="320" y="168" type="curve" smooth="yes"/>
			<point x="288" y="192" type="line" smooth="yes"/>
			<point x="240" y="228"/>
			<point x="216" y="252"/>
			<point x="216" y="292" type="curve" smooth="yes"/>
			<point x="216" y="332"/>
			<point x="232" y="360"/>
			<point x="256" y="376" type="curve"/>
			<point x="256" y="392" type="line"/>
			<point x="144" y="376"/>
			<point x="72" y="336"/>
			<point x="72" y="244" type="curve" smooth="yes"/>
			<point x="72" y="172"/>
			<point x="116" y="128"/>
			<point x="180" y="80" type="curve" smooth="yes"/>
			<point x="212" y="56" type="line" smooth="yes"/>
			<point x="244" y="32"/>
			<point x="276" y="8"/>
			<point x="276" y="-32" type="curve" smooth="yes"/>
			<point x="276" y="-72"/>
			<point x="236" y="-100"/>
			<point x="180" y="-100" type="curve" smooth="yes"/>
			<point x="148" y="-100"/>
			<point x="128" y="-96"/>
			<point x="108" y="-92" type="curve"/>
			<point x="168" y="-124" type="line"/>
			<point x="156" y="-36" type="line" smooth="yes"/>
			<point x="150" y="8"/>
			<point x="126" y="32"/>
			<point x="86" y="32" type="curve" smooth="yes"/>
			<point x="46" y="32"/>
			<point x="28" y="4"/>
			<point x="24" y="-24" type="curve"/>
			<point x="32" y="-80"/>
			<point x="88" y="-140"/>
		</contour>
	</outline>
</glyph>
<glyph name="copyright" format="2">
	<unicode hex="00A9"/>
	<advance width="788"/>
	<outline>
		<contour>
			<point x="400" y="-16" type="curve" smooth="yes"/>
			<point x="600" y="-16"/>
			<point x="776" y="128"/>
			<point x="776" y="368" type="curve" smooth="yes"/>
			<point x="776" y="552"/>
			<point x="656" y="668"/>
			<point x="460" y="668" type="curve" smooth="yes"/>
			<point x="260" y="668"/>
			<point x="84" y="524"/>
			<point x="84" y="284" type="curve" smooth="yes"/>
			<point x="84" y="100"/>
			<point x="204" y="-16"/>
		</contour>
		<contour>
			<point x="404" y="40" type="curve" smooth="yes"/>
			<point x="244" y="40"/>
			<point x="148" y="132"/>
			<point x="148" y="288" type="curve" smooth="yes"/>
			<point x="148" y="492"/>
			<point x="300" y="612"/>
			<point x="456" y="612" type="curve" smooth="yes"/>
			<point x="616" y="612"/>
			<point x="712" y="520"/>
			<point x="712" y="364" type="curve" smooth="yes"/>
			<point x="712" y="160"/>
			<point x="560" y="40"/>
		</contour>
		<contour>
			<point x="432" y="120" type="curve" smooth="yes"/>
			<point x="488" y="120"/>
			<point x="528" y="136"/>
			<point x="548" y="148" type="curve"/>
			<point x="564" y="252" type="line"/>
			<point x="508" y="252" type="line"/>
			<point x="468" y="148" type="line"/>
			<point x="528" y="192" type="line"/>
			<point x="512" y="184"/>
			<point x="496" y="176"/>
			<point x="456" y="176" type="curve" smooth="yes"/>
			<point x="392" y="176"/>
			<point x="360" y="224"/>
			<point x="360" y="300" type="curve" smooth="yes"/>
			<point x="360" y="392"/>
			<point x="400" y="480"/>
			<point x="488" y="480" type="curve" smooth="yes"/>
			<point x="528" y="480"/>
			<point x="544" y="472"/>
			<point x="560" y="464" type="curve"/>
			<point x="512" y="500" type="line"/>
			<point x="524" y="404" type="line"/>
			<point x="580" y="404" type="line"/>
			<point x="592" y="512" type="line"/>
			<point x="568" y="524"/>
			<point x="528" y="536"/>
			<point x="476" y="536" type="curve" smooth="yes"/>
			<point x="336" y="536"/>
			<point x="240" y="432"/>
			<point x="240" y="296" type="curve" smooth="yes"/>
			<point x="240" y="184"/>
			<point x="320" y="120"/>
		</contour>
	</outline>
</glyph>
<glyph name="logicalnot" format="2">
	<unicode hex="00AC"/>
	<advance width="600"/>
	<outline>
		<contour>
			<point x="55" y="302" type="line"/>
			<point x="461" y="302" type="line"/>
			<point x="431" y="352" type="line"/>
			<point x="431" y="132" type="line"/>
			<point x="545" y="132" type="line"/>
			<point x="545" y="410" type="line"/>
			<point x="55" y="410" type="line"/>
		</contour>
	</outline>
</glyph>
<glyph name="plusminus" format="2">
	<unicode hex="00B1"/>
	<advance width="600"/>
	<outline>
		<contour>
			<point x="260" y="164" type="line"/>
			<point x="374" y="164" type="line"/>
			<point x="374" y="564" type="line"/>
			<point x="260" y="564" type="line"/>
		</contour>
		<contour>
			<point x="562" y="310" type="line"/>
			<point x="562" y="418" type="line"/>
			<point x="72" y="418" type="line"/>
			<point x="72" y="310" type="line"/>
		</contour>
		<contour>
			<point x="562" y="0" type="line"/>
			<point x="562" y="108" type="line"/>
			<point x="72" y="108" type="line"/>
			<point x="72" y="0" type="line"/>
		</contour>
	</outline>
</glyph>
<glyph name="two.sups" format="2">
	<unicode hex="00B2"/>
	<advance width="442"/>
	<outline>
		<contour>
			<point x="123" y="404" type="line"/>
			<point x="451" y="404" type="line"/>
			<point x="472" y="501" type="line"/>
			<point x="241" y="501" type="line"/>
			<point x="241" y="511" type="line"/>
			<point x="300" y="539" type="line" smooth="yes"/>
			<point x="441" y="608"/>
			<point x="508" y="650"/>
			<point x="508" y="724" type="curve" smooth="yes"/>
			<point x="508" y="798"/>
			<point x="446" y="839"/>
			<point x="352" y="839" type="curve" smooth="yes"/>
			<point x="262" y="839"/>
			<point x="195" y="801"/>
			<point x="178" y="721" type="curve"/>
			<point x="185" y="689"/>
			<point x="204" y="673"/>
			<point x="235" y="673" type="curve" smooth="yes"/>
			<point x="266" y="673"/>
			<point x="289" y="689"/>
			<point x="290" y="727" type="curve" smooth="yes"/>
			<point x="293" y="820" type="line"/>
			<point x="266" y="792" type="line"/>
			<point x="277" y="794"/>
			<point x="287" y="795"/>
			<point x="298" y="795" type="curve" smooth="yes"/>
			<point x="334" y="795"/>
			<point x="371" y="777"/>
			<point x="371" y="717" type="curve" smooth="yes"/>
			<point x="371" y="664"/>
			<point x="323" y="614"/>
			<point x="230" y="547" type="curve" smooth="yes"/>
			<point x="139" y="482" type="line"/>
		</contour>
	</outline>
</glyph>
<glyph name="three.sups" format="2">
	<unicode hex="00B3"/>
	<advance width="362"/>
	<outline>
		<contour>
			<point x="252" y="372" type="curve" smooth="yes"/>
			<point x="362" y="372"/>
			<point x="435" y="424"/>
			<point x="434" y="501" type="curve" smooth="yes"/>
			<point x="434" y="572"/>
			<point x="367" y="601"/>
			<point x="274" y="600" type="curve"/>
			<point x="274" y="618" type="line"/>
			<point x="400" y="623"/>
			<point x="458" y="664"/>
			<point x="457" y="730" type="curve" smooth="yes"/>
			<point x="456" y="790"/>
			<point x="392" y="828"/>
			<point x="307" y="828" type="curve" smooth="yes"/>
			<point x="222" y="828"/>
			<point x="161" y="793"/>
			<point x="150" y="715" type="curve"/>
			<point x="156" y="705"/>
			<point x="168" y="694"/>
			<point x="193" y="694" type="curve" smooth="yes"/>
			<point x="217" y="694"/>
			<point x="238" y="708"/>
			<point x="243" y="744" type="curve"/>
			<point x="255" y="809" type="line"/>
			<point x="216" y="779" type="line"/>
			<point x="227" y="784"/>
			<point x="237" y="787"/>
			<point x="253" y="787" type="curve" smooth="yes"/>
			<point x="284" y="787"/>
			<point x="318" y="768"/>
			<point x="319" y="718" type="curve" smooth="yes"/>
			<point x="319" y="669"/>
			<point x="291" y="632"/>
			<point x="217" y="632" type="curve"/>
			<point x="205" y="584" type="line"/>
			<point x="252" y="584"/>
			<point x="283" y="555"/>
			<point x="283" y="506" type="curve" smooth="yes"/>
			<point x="284" y="457"/>
			<point x="258" y="416"/>
			<point x="191" y="416" type="curve" smooth="yes"/>
			<point x="171" y="416"/>
			<point x="154" y="419"/>
			<point x="144" y="420" type="curve"/>
			<point x="185" y="392" type="line"/>
			<point x="184" y="470" type="line" smooth="yes"/>
			<point x="184" y="503"/>
			<point x="163" y="517"/>
			<point x="137" y="517" type="curve" smooth="yes"/>
			<point x="111" y="517"/>
			<point x="95" y="499"/>
			<point x="91" y="479" type="curve"/>
			<point x="97" y="427"/>
			<point x="142" y="372"/>
		</contour>
	</outline>
</glyph>
<glyph name="paragraph" format="2">
	<unicode hex="00B6"/>
	<advance width="664"/>
	<outline>
		<contour>
			<point x="607" y="652" type="line"/>
			<point x="592" y="572" type="line"/>
			<point x="607" y="572" type="line"/>
			<point x="699" y="572" type="line"/>
			<point x="714" y="652" type="line"/>
		</contour>
		<contour>
			<point x="365" y="-112" type="line"/>
			<point x="502" y="-112" type="line"/>
			<point x="521" y="-8"/>
			<point x="540" y="96"/>
			<point x="559" y="200" type="curve" smooth="yes"/>
			<point x="640" y="652" type="line"/>
			<point x="504" y="652" type="line"/>
		</contour>
		<contour>
			<point x="397" y="572" type="line"/>
			<point x="504" y="572" type="line"/>
			<point x="519" y="652" type="line"/>
			<point x="441" y="652" type="line" smooth="yes"/>
			<point x="208" y="652"/>
			<point x="64" y="516"/>
			<point x="64" y="340" type="curve" smooth="yes"/>
			<point x="64" y="188"/>
			<point x="168" y="116"/>
			<point x="312" y="100" type="curve"/>
		</contour>
	</outline>
</glyph>
<glyph name="one.sups" format="2">
	<unicode hex="00B9"/>
	<advance width="290"/>
	<outline>
		<contour>
			<point x="347" y="380" type="line"/>
			<point x="357" y="433" type="line"/>
			<point x="265" y="433" type="line"/>
			<point x="191" y="433" type="line"/>
			<point x="101" y="433" type="line"/>
			<point x="91" y="380" type="line"/>
		</contour>
		<contour>
			<point x="292" y="380" type="line"/>
			<point x="361" y="727" type="line"/>
			<point x="380" y="820" type="line"/>
			<point x="338" y="820" type="line"/>
			<point x="169" y="769" type="line"/>
			<point x="160" y="719" type="line"/>
			<point x="259" y="729" type="line"/>
			<point x="220" y="756" type="line"/>
			<point x="144" y="380" type="line"/>
		</contour>
	</outline>
</glyph>
<glyph name="AE" format="2">
	<unicode hex="00C6"/>
	<advance width="972"/>
	<outline>
		<contour>
			<point x="304" y="576" type="line"/>
			<point x="520" y="576" type="line"/>
			<point x="536" y="576" type="line"/>
			<point x="536" y="652" type="line"/>
			<point x="318" y="652" type="line"/>
		</contour>
		<contour>
			<point x="508" y="652" type="line"/>
			<point x="424" y="652" type="line"/>
			<point x="32" y="0" type="line"/>
			<point x="122" y="0" type="line"/>
		</contour>
		<contour>
			<point x="212" y="180" type="line"/>
			<point x="508" y="180" type="line"/>
			<point x="508" y="248" type="line"/>
			<point x="212" y="248" type="line"/>
		</contour>
		<contour>
			<point x="316" y="0" type="line"/>
			<point x="472" y="0" type="line"/>
			<point x="472" y="76" type="line"/>
			<point x="456" y="76" type="line"/>
			<point x="330" y="76" type="line"/>
		</contour>
		<contour>
			<point x="396" y="0" type="line"/>
			<point x="588" y="0" type="line"/>
			<point x="640" y="284" type="line"/>
			<point x="708" y="652" type="line"/>
			<point x="516" y="652" type="line"/>
			<point x="464" y="368" type="line"/>
		</contour>
		<contour>
			<point x="540" y="0" type="line"/>
			<point x="868" y="0" type="line"/>
			<point x="904" y="176" type="line"/>
			<point x="820" y="176" type="line"/>
			<point x="740" y="32" type="line"/>
			<point x="840" y="72" type="line"/>
			<point x="540" y="72" type="line"/>
		</contour>
		<contour>
			<point x="572" y="300" type="line"/>
			<point x="740" y="300" type="line"/>
			<point x="740" y="368" type="line"/>
			<point x="572" y="368" type="line"/>
		</contour>
		<contour>
			<point x="636" y="580" type="line"/>
			<point x="892" y="580" type="line"/>
			<point x="824" y="632" type="line"/>
			<point x="856" y="480" type="line"/>
			<point x="936" y="480" type="line"/>
			<point x="960" y="652" type="line"/>
			<point x="636" y="652" type="line"/>
		</contour>
		<contour>
			<point x="720" y="228" type="line"/>
			<point x="796" y="228" type="line"/>
			<point x="836" y="436" type="line"/>
			<point x="760" y="436" type="line"/>
			<point x="712" y="344" type="line"/>
			<point x="712" y="320" type="line"/>
		</contour>
		<contour>
			<point x="-4" y="0" type="line"/>
			<point x="226" y="0" type="line"/>
			<point x="240" y="76" type="line"/>
			<point x="152" y="76" type="line"/>
			<point x="92" y="76" type="line"/>
			<point x="10" y="76" type="line"/>
		</contour>
	</outline>
	<anchor name="aboveUC" x="640" y="682"/>
</glyph>
<glyph name="Idieresis" format="2">
	<unicode hex="00CF"/>
	<advance width="424"/>
	<outline>
		<contour>
			<point x="209" y="688" type="curve" smooth="yes"/>
			<point x="268" y="688"/>
			<point x="307" y="734"/>
			<point x="307" y="783" type="curve" smooth="yes"/>
			<point x="307" y="828"/>
			<point x="274" y="860"/>
			<point x="224" y="860" type="curve" smooth="yes"/>
			<point x="165" y="860"/>
			<point x="127" y="814"/>
			<point x="127" y="765" type="curve" smooth="yes"/>
			<point x="127" y="720"/>
			<point x="159" y="688"/>
		</contour>
		<contour>
			<point x="421" y="688" type="curve" smooth="yes"/>
			<point x="480" y="688"/>
			<point x="519" y="734"/>
			<point x="519" y="783" type="curve" smooth="yes"/>
			<point x="519" y="828"/>
			<point x="486" y="860"/>
			<point x="436" y="860" type="curve" smooth="yes"/>
			<point x="377" y="860"/>
			<point x="339" y="814"/>
			<point x="339" y="765" type="curve" smooth="yes"/>
			<point x="339" y="720"/>
			<point x="371" y="688"/>
		</contour>
		<component base="I"/>
	</outline>
</glyph>
<glyph name="Eth" format="2">
	<unicode hex="00D0"/>
	<advance width="796"/>
	<outline>
		<contour>
			<point x="422" y="303" type="line"/>
			<point x="434" y="366" type="line"/>
			<point x="64" y="366" type="line"/>
			<point x="52" y="303" type="line"/>
		</contour>
		<component base="D"/>
	</outline>
</glyph>
<glyph name="multiply" format="2">
	<unicode hex="00D7"/>
	<advance width="600"/>
	<outline>
		<contour>
			<point x="488" y="79" type="line"/>
			<point x="568" y="159" type="line"/>
			<point x="162" y="565" type="line"/>
			<point x="82" y="485" type="line"/>
		</contour>
		<contour>
			<point x="567" y="486" type="line"/>
			<point x="489" y="564" type="line"/>
			<point x="83" y="158" type="line"/>
			<point x="161" y="80" type="line"/>
		</contour>
	</outline>
</glyph>
<glyph name="Oslash" format="2">
	<unicode hex="00D8"/>
	<advance width="735"/>
	<outline>
		<contour>
			<point x="750" y="636" type="line"/>
			<point x="704" y="680" type="line"/>
			<point x="14" y="16" type="line"/>
			<point x="60" y="-28" type="line"/>
		</contour>
		<contour>
			<point x="343" y="-16" type="curve" smooth="yes"/>
			<point x="591" y="-16"/>
			<point x="732" y="195"/>
			<point x="732" y="394" type="curve" smooth="yes"/>
			<point x="732" y="581"/>
			<point x="611" y="668"/>
			<point x="447" y="668" type="curve" smooth="yes"/>
			<point x="199" y="668"/>
			<point x="58" y="457"/>
			<point x="58" y="258" type="curve" smooth="yes"/>
			<point x="58" y="71"/>
			<point x="179" y="-16"/>
		</contour>
		<contour>
			<point x="346" y="60" type="curve" smooth="yes"/>
			<point x="284" y="60"/>
			<point x="245" y="92"/>
			<point x="245" y="208" type="curve" smooth="yes"/>
			<point x="245" y="372"/>
			<point x="322" y="592"/>
			<point x="444" y="592" type="curve" smooth="yes"/>
			<point x="506" y="592"/>
			<point x="545" y="560"/>
			<point x="545" y="444" type="curve" smooth="yes"/>
			<point x="545" y="280"/>
			<point x="468" y="60"/>
		</contour>
	</outline>
	<anchor name="aboveUC" x="450" y="672"/>
</glyph>
<glyph name="Thorn" format="2">
	<unicode hex="00DE"/>
	<advance width="704"/>
	<outline>
		<contour>
			<point x="232" y="148" type="line"/>
			<point x="352" y="148" type="line" smooth="yes"/>
			<point x="568" y="148"/>
			<point x="676" y="244"/>
			<point x="676" y="352" type="curve" smooth="yes"/>
			<point x="676" y="456"/>
			<point x="584" y="516"/>
			<point x="400" y="516" type="curve" smooth="yes"/>
			<point x="308" y="516" type="line"/>
			<point x="308" y="444" type="line"/>
			<point x="392" y="444" type="line" smooth="yes"/>
			<point x="456" y="444"/>
			<point x="496" y="416"/>
			<point x="496" y="352" type="curve" smooth="yes"/>
			<point x="496" y="284"/>
			<point x="448" y="212"/>
			<point x="344" y="212" type="curve" smooth="yes"/>
			<point x="232" y="212" type="line"/>
		</contour>
		<contour>
			<point x="4" y="0" type="line"/>
			<point x="358" y="0" type="line"/>
			<point x="372" y="72" type="line"/>
			<point x="240" y="72" type="line"/>
			<point x="144" y="76" type="line"/>
			<point x="18" y="76" type="line"/>
		</contour>
		<contour>
			<point x="80" y="0" type="line"/>
			<point x="276" y="0" type="line"/>
			<point x="328" y="284" type="line"/>
			<point x="396" y="652" type="line"/>
			<point x="200" y="652" type="line"/>
			<point x="148" y="368" type="line"/>
		</contour>
		<contour>
			<point x="104" y="576" type="line"/>
			<point x="236" y="576" type="line"/>
			<point x="332" y="580" type="line"/>
			<point x="458" y="580" type="line"/>
			<point x="472" y="652" type="line"/>
			<point x="118" y="652" type="line"/>
		</contour>
	</outline>
</glyph>
<glyph name="germandbls" format="2">
	<unicode hex="00DF"/>
	<advance width="700"/>
	<outline>
		<contour>
			<point x="64" y="0" type="curve" smooth="yes"/>
			<point x="58" y="-68"/>
			<point x="52" y="-108"/>
			<point x="48" y="-132" type="curve" smooth="yes"/>
			<point x="44" y="-156"/>
			<point x="36" y="-180"/>
			<point x="32" y="-188" type="curve"/>
			<point x="-16" y="-188" type="line"/>
			<point x="4" y="-196" type="line"/>
			<point x="-4" y="-172" type="line" smooth="yes"/>
			<point x="-28" y="-100"/>
			<point x="-60" y="-76"/>
			<point x="-108" y="-76" type="curve" smooth="yes"/>
			<point x="-160" y="-76"/>
			<point x="-180" y="-112"/>
			<point x="-188" y="-144" type="curve"/>
			<point x="-172" y="-180"/>
			<point x="-124" y="-232"/>
			<point x="-24" y="-232" type="curve" smooth="yes"/>
			<point x="64" y="-232"/>
			<point x="120" y="-196"/>
			<point x="160" y="-148" type="curve" smooth="yes"/>
			<point x="200" y="-100"/>
			<point x="232" y="-36"/>
			<point x="248" y="80" type="curve" smooth="yes"/>
			<point x="268" y="228"/>
			<point x="288" y="376"/>
			<point x="308" y="524" type="curve" smooth="yes"/>
			<point x="320" y="616"/>
			<point x="368" y="676"/>
			<point x="436" y="676" type="curve" smooth="yes"/>
			<point x="488" y="676"/>
			<point x="516" y="652"/>
			<point x="516" y="612" type="curve" smooth="yes"/>
			<point x="516" y="564"/>
			<point x="492" y="540"/>
			<point x="444" y="492" type="curve" smooth="yes"/>
			<point x="396" y="444"/>
			<point x="360" y="400"/>
			<point x="360" y="340" type="curve" smooth="yes"/>
			<point x="360" y="280"/>
			<point x="388" y="244"/>
			<point x="440" y="192" type="curve" smooth="yes"/>
			<point x="492" y="140"/>
			<point x="508" y="116"/>
			<point x="508" y="84" type="curve" smooth="yes"/>
			<point x="508" y="52"/>
			<point x="492" y="28"/>
			<point x="452" y="28" type="curve" smooth="yes"/>
			<point x="420" y="28"/>
			<point x="404" y="32"/>
			<point x="388" y="36" type="curve"/>
			<point x="436" y="16" type="line"/>
			<point x="436" y="64" type="line" smooth="yes"/>
			<point x="436" y="124"/>
			<point x="408" y="144"/>
			<point x="372" y="144" type="curve" smooth="yes"/>
			<point x="336" y="144"/>
			<point x="312" y="124"/>
			<point x="304" y="80" type="curve"/>
			<point x="320" y="20"/>
			<point x="380" y="-16"/>
			<point x="460" y="-16" type="curve" smooth="yes"/>
			<point x="572" y="-16"/>
			<point x="660" y="44"/>
			<point x="660" y="148" type="curve" smooth="yes"/>
			<point x="660" y="220"/>
			<point x="624" y="272"/>
			<point x="568" y="324" type="curve" smooth="yes"/>
			<point x="512" y="376"/>
			<point x="496" y="392"/>
			<point x="496" y="420" type="curve" smooth="yes"/>
			<point x="496" y="448"/>
			<point x="512" y="468"/>
			<point x="552" y="496" type="curve" smooth="yes"/>
			<point x="632" y="552"/>
			<point x="668" y="572"/>
			<point x="668" y="628" type="curve" smooth="yes"/>
			<point x="668" y="692"/>
			<point x="584" y="732"/>
			<point x="452" y="732" type="curve" smooth="yes"/>
			<point x="280" y="732"/>
			<point x="122" y="656"/>
			<point x="102" y="428" type="curve" smooth="yes"/>
			<point x="89" y="285"/>
			<point x="77" y="143"/>
		</contour>
	</outline>
</glyph>
<glyph name="ae" format="2">
	<unicode hex="00E6"/>
	<advance width="880"/>
	<outline>
		<contour>
			<point x="171" y="-16" type="curve" smooth="yes"/>
			<point x="261" y="-16"/>
			<point x="313" y="30"/>
			<point x="352" y="92" type="curve"/>
			<point x="382" y="92" type="line"/>
			<point x="382" y="138" type="line"/>
			<point x="354" y="124"/>
			<point x="323" y="118"/>
			<point x="295" y="118" type="curve" smooth="yes"/>
			<point x="248" y="118"/>
			<point x="224" y="142"/>
			<point x="224" y="215" type="curve" smooth="yes"/>
			<point x="224" y="279"/>
			<point x="247" y="363"/>
			<point x="297" y="413" type="curve" smooth="yes"/>
			<point x="319" y="435"/>
			<point x="352" y="440"/>
			<point x="372" y="440" type="curve" smooth="yes"/>
			<point x="405" y="440"/>
			<point x="445" y="428"/>
			<point x="488" y="392" type="curve"/>
			<point x="540" y="493" type="line"/>
			<point x="498" y="515"/>
			<point x="450" y="532"/>
			<point x="386" y="532" type="curve" smooth="yes"/>
			<point x="218" y="532"/>
			<point x="32" y="335"/>
			<point x="32" y="140" type="curve" smooth="yes"/>
			<point x="32" y="40"/>
			<point x="77" y="-16"/>
		</contour>
		<component base="e" xOffset="316"/>
	</outline>
	<anchor name="aboveLC" x="491" y="536"/>
	<anchor name="belowLC" x="386" y="-20"/>
</glyph>
<glyph name="idieresis" format="2">
	<unicode hex="00EF"/>
	<advance width="376"/>
	<outline>
		<contour>
			<point x="144" y="582" type="curve" smooth="yes"/>
			<point x="187" y="582"/>
			<point x="231" y="614"/>
			<point x="231" y="672" type="curve" smooth="yes"/>
			<point x="231" y="715"/>
			<point x="198" y="741"/>
			<point x="158" y="741" type="curve" smooth="yes"/>
			<point x="115" y="741"/>
			<point x="70" y="709"/>
			<point x="70" y="652" type="curve" smooth="yes"/>
			<point x="70" y="607"/>
			<point x="105" y="582"/>
		</contour>
		<contour>
			<point x="379" y="582" type="curve" smooth="yes"/>
			<point x="422" y="582"/>
			<point x="466" y="614"/>
			<point x="466" y="672" type="curve" smooth="yes"/>
			<point x="466" y="715"/>
			<point x="433" y="741"/>
			<point x="393" y="741" type="curve" smooth="yes"/>
			<point x="350" y="741"/>
			<point x="305" y="709"/>
			<point x="305" y="652" type="curve" smooth="yes"/>
			<point x="305" y="607"/>
			<point x="340" y="582"/>
		</contour>
		<component base="dotlessi"/>
	</outline>
</glyph>
<glyph name="oslash" format="2">
	<unicode hex="00F8"/>
	<advance width="644"/>
	<outline>
		<contour>
			<point x="624" y="496" type="line"/>
			<point x="580" y="544" type="line"/>
			<point x="20" y="20" type="line"/>
			<point x="64" y="-28" type="line"/>
		</contour>
		<component base="o"/>
	</outline>
	<anchor name="aboveLC" x="353" y="520"/>
</glyph>
<glyph name="thorn" format="2">
	<unicode hex="00FE"/>
	<advance width="659"/>
	<outline>
		<contour>
			<point x="-84" y="-220" type="line"/>
			<point x="278" y="-220" type="line"/>
			<point x="292" y="-144" type="line"/>
			<point x="144" y="-144" type="line"/>
			<point x="48" y="-144" type="line"/>
			<point x="-70" y="-144" type="line"/>
		</contour>
		<contour>
			<point x="-8" y="-220" type="line"/>
			<point x="184" y="-220" type="line"/>
			<point x="201" y="-128"/>
			<point x="217" y="-36"/>
			<point x="234" y="56" type="curve"/>
			<point x="242" y="56" type="line"/>
			<point x="316" y="404" type="line"/>
			<point x="302" y="404" type="line"/>
			<point x="374" y="710" type="line"/>
			<point x="320" y="720" type="line"/>
			<point x="91" y="678" type="line"/>
			<point x="77" y="610" type="line"/>
			<point x="222" y="596" type="line"/>
			<point x="166" y="618" type="line"/>
			<point x="155" y="565"/>
			<point x="146" y="523"/>
			<point x="135" y="470" type="curve" smooth="yes"/>
		</contour>
		<contour>
			<point x="284" y="-16" type="curve" smooth="yes"/>
			<point x="452" y="-16"/>
			<point x="638" y="181"/>
			<point x="638" y="376" type="curve" smooth="yes"/>
			<point x="638" y="463"/>
			<point x="583" y="532"/>
			<point x="499" y="532" type="curve" smooth="yes"/>
			<point x="409" y="532"/>
			<point x="360" y="478"/>
			<point x="338" y="424" type="curve"/>
			<point x="298" y="424" type="line"/>
			<point x="288" y="368" type="line"/>
			<point x="316" y="385"/>
			<point x="350" y="398"/>
			<point x="382" y="398" type="curve" smooth="yes"/>
			<point x="422" y="398"/>
			<point x="446" y="374"/>
			<point x="446" y="301" type="curve" smooth="yes"/>
			<point x="446" y="237"/>
			<point x="423" y="153"/>
			<point x="373" y="103" type="curve" smooth="yes"/>
			<point x="351" y="81"/>
			<point x="318" y="76"/>
			<point x="298" y="76" type="curve" smooth="yes"/>
			<point x="265" y="76"/>
			<point x="235" y="84"/>
			<point x="192" y="120" type="curve"/>
			<point x="140" y="19" type="line"/>
			<point x="182" y="-3"/>
			<point x="220" y="-16"/>
		</contour>
	</outline>
	<anchor name="aboveLC" x="264" y="720"/>
	<anchor name="belowLC" x="358" y="-20"/>
</glyph>
<glyph name="aogonek" format="2">
	<unicode hex="0105"/>
	<advance width="672"/>
	<outline>
		<contour>
			<point x="171" y="-16" type="curve" smooth="yes"/>
			<point x="261" y="-16"/>
			<point x="310" y="48"/>
			<point x="332" y="92" type="curve"/>
			<point x="372" y="92" type="line"/>
			<point x="372" y="138" type="line"/>
			<point x="344" y="124"/>
			<point x="320" y="118"/>
			<point x="288" y="118" type="curve" smooth="yes"/>
			<point x="248" y="118"/>
			<point x="224" y="142"/>
			<point x="224" y="215" type="curve" smooth="yes"/>
			<point x="224" y="279"/>
			<point x="247" y="363"/>
			<point x="297" y="413" type="curve" smooth="yes"/>
			<point x="319" y="435"/>
			<point x="352" y="440"/>
			<point x="372" y="440" type="curve" smooth="yes"/>
			<point x="405" y="440"/>
			<point x="435" y="432"/>
			<point x="478" y="396" type="curve"/>
			<point x="530" y="497" type="line"/>
			<point x="488" y="519"/>
			<point x="450" y="532"/>
			<point x="386" y="532" type="curve" smooth="yes"/>
			<point x="218" y="532"/>
			<point x="32" y="335"/>
			<point x="32" y="140" type="curve" smooth="yes"/>
			<point x="32" y="40"/>
			<point x="77" y="-16"/>
		</contour>
		<contour>
			<point x="500" y="-232" type="curve" smooth="yes"/>
			<point x="548" y="-232"/>
			<point x="582" y="-214"/>
			<point x="602" y="-190" type="curve"/>
			<point x="581" y="-142" type="line"/>
			<point x="576" y="-143"/>
			<point x="569" y="-144"/>
			<point x="563" y="-144" type="curve" smooth="yes"/>
			<point x="533" y="-144"/>
			<point x="515" y="-128"/>
			<point x="515" y="-100" type="curve" smooth="yes"/>
			<point x="515" y="-68"/>
			<point x="531" y="-36"/>
			<point x="575" y="0" type="curve" smooth="yes"/>
			<point x="619" y="36"/>
			<point x="650" y="81"/>
			<point x="670" y="117" type="curve"/>
			<point x="620" y="148" type="line"/>
			<point x="596" y="112"/>
			<point x="588" y="96"/>
			<point x="568" y="96" type="curve" smooth="yes"/>
			<point x="552" y="96"/>
			<point x="544" y="106"/>
			<point x="544" y="122" type="curve" smooth="yes"/>
			<point x="544" y="140"/>
			<point x="550" y="164"/>
			<point x="556" y="192" type="curve" smooth="yes"/>
			<point x="632" y="540" type="line"/>
			<point x="542" y="540" type="line"/>
			<point x="482" y="460" type="line"/>
			<point x="420" y="460" type="line"/>
			<point x="342" y="108" type="line"/>
			<point x="356" y="108" type="line"/>
			<point x="355" y="99"/>
			<point x="355" y="91"/>
			<point x="355" y="82" type="curve" smooth="yes"/>
			<point x="355" y="15"/>
			<point x="402" y="-6"/>
			<point x="476" y="-6" type="curve" smooth="yes"/>
			<point x="490" y="-6"/>
			<point x="513" y="-5"/>
			<point x="549" y="1" type="curve"/>
			<point x="519" y="36" type="line"/>
			<point x="519" y="-16" type="line"/>
			<point x="455" y="-36"/>
			<point x="399" y="-76"/>
			<point x="399" y="-144" type="curve" smooth="yes"/>
			<point x="399" y="-192"/>
			<point x="432" y="-232"/>
		</contour>
	</outline>
	<anchor name="aboveLC" x="424" y="536"/>
</glyph>
<glyph name="dcroat" format="2">
	<unicode hex="0111"/>
	<advance width="680"/>
	<outline>
		<contour>
			<point x="502" y="-12" type="curve" smooth="yes"/>
			<point x="604" y="-12"/>
			<point x="648" y="56"/>
			<point x="680" y="112" type="curve"/>
			<point x="624" y="148" type="line"/>
			<point x="600" y="112"/>
			<point x="592" y="96"/>
			<point x="572" y="96" type="curve" smooth="yes"/>
			<point x="556" y="96"/>
			<point x="548" y="106"/>
			<point x="548" y="122" type="curve" smooth="yes"/>
			<point x="548" y="140"/>
			<point x="554" y="164"/>
			<point x="560" y="192" type="curve" smooth="yes"/>
			<point x="676" y="720" type="line"/>
			<point x="612" y="720" type="line"/>
			<point x="380" y="696" type="line"/>
			<point x="380" y="628" type="line"/>
			<point x="524" y="612" type="line"/>
			<point x="480" y="628" type="line"/>
			<point x="446" y="412" type="line"/>
			<point x="420" y="412" type="line"/>
			<point x="350" y="124" type="line"/>
			<point x="372" y="124" type="line"/>
			<point x="371" y="120"/>
			<point x="370" y="114"/>
			<point x="370" y="108" type="curve" smooth="yes"/>
			<point x="370" y="36"/>
			<point x="416" y="-12"/>
		</contour>
		<contour>
			<point x="192" y="-12" type="curve" smooth="yes"/>
			<point x="284" y="-12"/>
			<point x="316" y="52"/>
			<point x="336" y="92" type="curve"/>
			<point x="376" y="92" type="line"/>
			<point x="376" y="164" type="line"/>
			<point x="348" y="136"/>
			<point x="324" y="112"/>
			<point x="292" y="112" type="curve" smooth="yes"/>
			<point x="252" y="112"/>
			<point x="228" y="140"/>
			<point x="228" y="192" type="curve" smooth="yes"/>
			<point x="228" y="244"/>
			<point x="244" y="292"/>
			<point x="260" y="324" type="curve" smooth="yes"/>
			<point x="276" y="356"/>
			<point x="308" y="396"/>
			<point x="368" y="396" type="curve" smooth="yes"/>
			<point x="416" y="396"/>
			<point x="448" y="380"/>
			<point x="472" y="356" type="curve"/>
			<point x="472" y="444" type="line"/>
			<point x="456" y="448"/>
			<point x="416" y="456"/>
			<point x="368" y="456" type="curve" smooth="yes"/>
			<point x="168" y="456"/>
			<point x="36" y="328"/>
			<point x="36" y="156" type="curve" smooth="yes"/>
			<point x="36" y="52"/>
			<point x="104" y="-12"/>
		</contour>
		<contour>
			<point x="332" y="510" type="line"/>
			<point x="706" y="510" type="line"/>
			<point x="716" y="570" type="line"/>
			<point x="342" y="570" type="line"/>
		</contour>
	</outline>
</glyph>
<glyph name="eogonek" format="2">
	<unicode hex="0119"/>
	<advance width="564"/>
	<outline>
		<contour>
			<point x="292" y="-232" type="curve" smooth="yes"/>
			<point x="224" y="-232"/>
			<point x="188" y="-192"/>
			<point x="188" y="-144" type="curve" smooth="yes"/>
			<point x="188" y="-76"/>
			<point x="244" y="-48"/>
			<point x="300" y="-24" type="curve"/>
			<point x="300" y="4" type="line"/>
			<point x="286" y="2"/>
			<point x="266" y="0"/>
			<point x="244" y="0" type="curve" smooth="yes"/>
			<point x="112" y="0"/>
			<point x="40" y="80"/>
			<point x="40" y="200" type="curve" smooth="yes"/>
			<point x="40" y="376"/>
			<point x="172" y="528"/>
			<point x="364" y="528" type="curve" smooth="yes"/>
			<point x="468" y="528"/>
			<point x="532" y="484"/>
			<point x="532" y="412" type="curve" smooth="yes"/>
			<point x="532" y="300"/>
			<point x="392" y="228"/>
			<point x="136" y="192" type="curve"/>
			<point x="136" y="232" type="line"/>
			<point x="336" y="276"/>
			<point x="384" y="356"/>
			<point x="384" y="420" type="curve" smooth="yes"/>
			<point x="384" y="444"/>
			<point x="372" y="460"/>
			<point x="348" y="460" type="curve" smooth="yes"/>
			<point x="284" y="460"/>
			<point x="224" y="344"/>
			<point x="224" y="224" type="curve" smooth="yes"/>
			<point x="224" y="136"/>
			<point x="264" y="108"/>
			<point x="324" y="108" type="curve" smooth="yes"/>
			<point x="376" y="108"/>
			<point x="408" y="136"/>
			<point x="452" y="188" type="curve"/>
			<point x="512" y="144" type="line"/>
			<point x="488" y="104"/>
			<point x="452" y="56"/>
			<point x="392" y="20" type="curve" smooth="yes"/>
			<point x="332" y="-16"/>
			<point x="304" y="-60"/>
			<point x="304" y="-98" type="curve" smooth="yes"/>
			<point x="304" y="-126"/>
			<point x="322" y="-144"/>
			<point x="352" y="-144" type="curve" smooth="yes"/>
			<point x="370" y="-144"/>
			<point x="384" y="-138"/>
			<point x="388" y="-136" type="curve"/>
			<point x="416" y="-184" type="line"/>
			<point x="400" y="-200"/>
			<point x="360" y="-232"/>
		</contour>
	</outline>
	<anchor name="aboveLC" x="373" y="520"/>
	<anchor name="belowLC" x="242" y="-22"/>
</glyph>
<glyph name="Hbar" format="2">
	<unicode hex="0126"/>
	<advance width="824"/>
	<outline>
		<contour>
			<point x="4" y="0" type="line"/>
			<point x="350" y="0" type="line"/>
			<point x="364" y="76" type="line"/>
			<point x="240" y="76" type="line"/>
			<point x="144" y="76" type="line"/>
			<point x="18" y="76" type="line"/>
		</contour>
		<contour>
			<point x="80" y="0" type="line"/>
			<point x="276" y="0" type="line"/>
			<point x="328" y="284" type="line"/>
			<point x="396" y="652" type="line"/>
			<point x="200" y="652" type="line"/>
			<point x="148" y="368" type="line"/>
		</contour>
		<contour>
			<point x="104" y="576" type="line"/>
			<point x="236" y="576" type="line"/>
			<point x="332" y="576" type="line"/>
			<point x="450" y="576" type="line"/>
			<point x="464" y="652" type="line"/>
			<point x="118" y="652" type="line"/>
		</contour>
		<contour>
			<point x="264" y="264" type="line"/>
			<point x="588" y="264" type="line"/>
			<point x="588" y="336" type="line"/>
			<point x="264" y="336" type="line"/>
		</contour>
		<contour>
			<point x="412" y="0" type="line"/>
			<point x="758" y="0" type="line"/>
			<point x="772" y="76" type="line"/>
			<point x="640" y="76" type="line"/>
			<point x="544" y="76" type="line"/>
			<point x="426" y="76" type="line"/>
		</contour>
		<contour>
			<point x="480" y="0" type="line"/>
			<point x="676" y="0" type="line"/>
			<point x="728" y="284" type="line"/>
			<point x="796" y="652" type="line"/>
			<point x="600" y="652" type="line"/>
			<point x="548" y="368" type="line"/>
		</contour>
		<contour>
			<point x="512" y="576" type="line"/>
			<point x="636" y="576" type="line"/>
			<point x="732" y="576" type="line"/>
			<point x="858" y="576" type="line"/>
			<point x="872" y="652" type="line"/>
			<point x="526" y="652" type="line"/>
		</contour>
		<contour>
			<point x="78" y="430" type="line"/>
			<point x="834" y="430" type="line"/>
			<point x="844" y="490" type="line"/>
			<point x="88" y="490" type="line"/>
		</contour>
	</outline>
</glyph>
<glyph name="hbar" format="2">
	<unicode hex="0127"/>
	<advance width="708"/>
	<outline>
		<contour>
			<point x="76" y="510" type="line"/>
			<point x="450" y="510" type="line"/>
			<point x="460" y="570" type="line"/>
			<point x="86" y="570" type="line"/>
		</contour>
		<contour>
			<point x="80" y="-16" type="line"/>
			<point x="228" y="0" type="line"/>
			<point x="296" y="320" type="line"/>
			<point x="266" y="320" type="line"/>
			<point x="384" y="720" type="line"/>
			<point x="320" y="720" type="line"/>
			<point x="80" y="696" type="line"/>
			<point x="80" y="628" type="line"/>
			<point x="232" y="612" type="line"/>
			<point x="168" y="628" type="line"/>
			<point x="124" y="424" type="line"/>
			<point x="32" y="0" type="line"/>
		</contour>
		<contour>
			<point x="384" y="112" type="curve" smooth="yes"/>
			<point x="384" y="36"/>
			<point x="436" y="-12"/>
			<point x="524" y="-12" type="curve" smooth="yes"/>
			<point x="628" y="-12"/>
			<point x="668" y="48"/>
			<point x="708" y="112" type="curve"/>
			<point x="652" y="148" type="line"/>
			<point x="628" y="112"/>
			<point x="620" y="96"/>
			<point x="600" y="96" type="curve" smooth="yes"/>
			<point x="584" y="96"/>
			<point x="576" y="106"/>
			<point x="576" y="122" type="curve" smooth="yes"/>
			<point x="576" y="136"/>
			<point x="582" y="160"/>
			<point x="588" y="184" type="curve" smooth="yes"/>
			<point x="608" y="268" type="line" smooth="yes"/>
			<point x="616" y="300"/>
			<point x="624" y="332"/>
			<point x="624" y="362" type="curve" smooth="yes"/>
			<point x="624" y="432"/>
			<point x="572" y="480"/>
			<point x="484" y="480" type="curve" smooth="yes"/>
			<point x="384" y="480"/>
			<point x="344" y="416"/>
			<point x="312" y="352" type="curve"/>
			<point x="264" y="352" type="line"/>
			<point x="264" y="280" type="line"/>
			<point x="312" y="328"/>
			<point x="344" y="348"/>
			<point x="378" y="348" type="curve" smooth="yes"/>
			<point x="406" y="348"/>
			<point x="420" y="334"/>
			<point x="420" y="314" type="curve" smooth="yes"/>
			<point x="420" y="298"/>
			<point x="416" y="284"/>
			<point x="408" y="252" type="curve" smooth="yes"/>
			<point x="396" y="200" type="line" smooth="yes"/>
			<point x="388" y="168"/>
			<point x="384" y="136"/>
		</contour>
	</outline>
</glyph>
<glyph name="iogonek" format="2">
	<unicode hex="012F"/>
	<advance width="366"/>
	<outline>
		<contour>
			<point x="198" y="-227" type="curve" smooth="yes"/>
			<point x="266" y="-227"/>
			<point x="306" y="-195"/>
			<point x="322" y="-179" type="curve"/>
			<point x="294" y="-131" type="line"/>
			<point x="290" y="-133"/>
			<point x="276" y="-139"/>
			<point x="258" y="-139" type="curve" smooth="yes"/>
			<point x="228" y="-139"/>
			<point x="210" y="-123"/>
			<point x="210" y="-97" type="curve" smooth="yes"/>
			<point x="210" y="-55"/>
			<point x="236" y="-22"/>
			<point x="279" y="13" type="curve" smooth="yes"/>
			<point x="320" y="46"/>
			<point x="347" y="81"/>
			<point x="367" y="118" type="curve"/>
			<point x="318" y="148" type="line"/>
			<point x="294" y="112"/>
			<point x="287" y="96"/>
			<point x="268" y="96" type="curve" smooth="yes"/>
			<point x="252" y="96"/>
			<point x="244" y="106"/>
			<point x="244" y="122" type="curve" smooth="yes"/>
			<point x="244" y="140"/>
			<point x="250" y="164"/>
			<point x="256" y="192" type="curve" smooth="yes"/>
			<point x="328" y="516" type="line"/>
			<point x="244" y="526" type="line"/>
			<point x="32" y="460" type="line"/>
			<point x="18" y="392" type="line"/>
			<point x="168" y="392" type="line"/>
			<point x="112" y="424" type="line"/>
			<point x="72" y="244" type="line" smooth="yes"/>
			<point x="60" y="188"/>
			<point x="42" y="145"/>
			<point x="42" y="107" type="curve" smooth="yes"/>
			<point x="42" y="37"/>
			<point x="86" y="-5"/>
			<point x="154" y="-5" type="curve" smooth="yes"/>
			<point x="177" y="-5"/>
			<point x="195" y="0"/>
			<point x="210" y="5" type="curve"/>
			<point x="210" y="-19" type="line"/>
			<point x="150" y="-39"/>
			<point x="94" y="-71"/>
			<point x="94" y="-139" type="curve" smooth="yes"/>
			<point x="94" y="-187"/>
			<point x="130" y="-227"/>
		</contour>
		<contour>
			<point x="261" y="579" type="curve" smooth="yes"/>
			<point x="325" y="579"/>
			<point x="367" y="629"/>
			<point x="367" y="682" type="curve" smooth="yes"/>
			<point x="367" y="732"/>
			<point x="331" y="766"/>
			<point x="277" y="766" type="curve" smooth="yes"/>
			<point x="213" y="766"/>
			<point x="171" y="716"/>
			<point x="171" y="663" type="curve" smooth="yes"/>
			<point x="171" y="613"/>
			<point x="207" y="579"/>
		</contour>
	</outline>
</glyph>
<glyph name="dotlessi" format="2">
	<unicode hex="0131"/>
	<advance width="376"/>
	<outline>
		<contour>
			<point x="52" y="112" type="curve" smooth="yes"/>
			<point x="52" y="36"/>
			<point x="104" y="-12"/>
			<point x="192" y="-12" type="curve" smooth="yes"/>
			<point x="300" y="-12"/>
			<point x="344" y="56"/>
			<point x="376" y="112" type="curve"/>
			<point x="320" y="148" type="line"/>
			<point x="296" y="112"/>
			<point x="288" y="96"/>
			<point x="268" y="96" type="curve" smooth="yes"/>
			<point x="252" y="96"/>
			<point x="244" y="106"/>
			<point x="244" y="122" type="curve" smooth="yes"/>
			<point x="244" y="140"/>
			<point x="250" y="164"/>
			<point x="256" y="192" type="curve" smooth="yes"/>
			<point x="328" y="516" type="line"/>
			<point x="264" y="516" type="line"/>
			<point x="20" y="460" type="line"/>
			<point x="20" y="392" type="line"/>
			<point x="168" y="392" type="line"/>
			<point x="112" y="424" type="line"/>
			<point x="72" y="244" type="line" smooth="yes"/>
			<point x="60" y="192"/>
			<point x="52" y="148"/>
		</contour>
	</outline>
	<anchor name="aboveLC" x="276" y="738"/>
	<anchor name="belowLC" x="157" y="-22"/>
	<anchor name="ogonek" x="206" y="0"/>
</glyph>
<glyph name="kgreenlandic" format="2">
	<unicode hex="0138"/>
	<advance width="636"/>
	<outline>
		<contour>
			<point x="120" y="424" type="line"/>
			<point x="28" y="0" type="line"/>
			<point x="76" y="-16" type="line"/>
			<point x="224" y="0" type="line"/>
			<point x="268" y="202" type="line"/>
			<point x="336" y="516" type="line"/>
			<point x="264" y="516" type="line"/>
			<point x="32" y="460" type="line"/>
			<point x="32" y="392" type="line"/>
			<point x="180" y="392" type="line"/>
		</contour>
		<contour>
			<point x="604" y="-4" type="curve"/>
			<point x="612" y="52" type="line"/>
			<point x="596" y="54" type="line" smooth="yes"/>
			<point x="564" y="58"/>
			<point x="550" y="68"/>
			<point x="536" y="104" type="curve" smooth="yes"/>
			<point x="504" y="184" type="line" smooth="yes"/>
			<point x="472" y="264"/>
			<point x="416" y="280"/>
			<point x="324" y="286" type="curve" smooth="yes"/>
			<point x="292" y="288" type="line"/>
			<point x="292" y="284" type="line"/>
			<point x="484" y="336" type="line" smooth="yes"/>
			<point x="572" y="360"/>
			<point x="612" y="392"/>
			<point x="612" y="448" type="curve" smooth="yes"/>
			<point x="612" y="496"/>
			<point x="572" y="520"/>
			<point x="532" y="528" type="curve"/>
			<point x="264" y="284" type="line"/>
			<point x="264" y="262" type="line"/>
			<point x="272" y="260" type="line" smooth="yes"/>
			<point x="288" y="256"/>
			<point x="300" y="244"/>
			<point x="308" y="212" type="curve" smooth="yes"/>
			<point x="332" y="112" type="line" smooth="yes"/>
			<point x="354" y="20"/>
			<point x="404" y="-20"/>
			<point x="500" y="-20" type="curve" smooth="yes"/>
			<point x="540" y="-20"/>
			<point x="580" y="-12"/>
		</contour>
	</outline>
	<anchor name="aboveLC" x="258" y="711"/>
	<anchor name="belowLC" x="266" y="-22"/>
</glyph>
<glyph name="Lslash" format="2">
	<unicode hex="0141"/>
	<advance width="602"/>
	<outline>
		<contour>
			<point x="499" y="475" type="line"/>
			<point x="295" y="379" type="line"/>
			<point x="278" y="287" type="line"/>
			<point x="482" y="383" type="line"/>
		</contour>
		<contour>
			<point x="231" y="364" type="line"/>
			<point x="53" y="281" type="line"/>
			<point x="36" y="189" type="line"/>
			<point x="213" y="272" type="line"/>
		</contour>
		<component base="L"/>
	</outline>
</glyph>
<glyph name="lslash" format="2">
	<unicode hex="0142"/>
	<advance width="383"/>
	<outline>
		<contour>
			<point x="235" y="430" type="line"/>
			<point x="18" y="319" type="line"/>
			<point x="1" y="235" type="line"/>
			<point x="218" y="346" type="line"/>
		</contour>
		<contour>
			<point x="427" y="510" type="line"/>
			<point x="204" y="396" type="line"/>
			<point x="187" y="312" type="line"/>
			<point x="410" y="426" type="line"/>
		</contour>
		<component base="l"/>
	</outline>
</glyph>
<glyph name="OE" format="2">
	<unicode hex="0152"/>
	<advance width="940"/>
	<outline>
		<contour>
			<point x="444" y="4" type="curve"/>
			<point x="444" y="76" type="line"/>
			<point x="420" y="68"/>
			<point x="396" y="60"/>
			<point x="364" y="60" type="curve" smooth="yes"/>
			<point x="300" y="60"/>
			<point x="252" y="108"/>
			<point x="252" y="228" type="curve" smooth="yes"/>
			<point x="252" y="380"/>
			<point x="340" y="592"/>
			<point x="468" y="592" type="curve" smooth="yes"/>
			<point x="508" y="592"/>
			<point x="532" y="584"/>
			<point x="552" y="576" type="curve"/>
			<point x="552" y="652" type="line"/>
			<point x="524" y="660"/>
			<point x="484" y="668"/>
			<point x="428" y="668" type="curve" smooth="yes"/>
			<point x="204" y="668"/>
			<point x="56" y="460"/>
			<point x="56" y="244" type="curve" smooth="yes"/>
			<point x="56" y="68"/>
			<point x="164" y="-16"/>
			<point x="316" y="-16" type="curve" smooth="yes"/>
			<point x="380" y="-16"/>
			<point x="420" y="-4"/>
		</contour>
		<contour>
			<point x="376" y="0" type="line"/>
			<point x="564" y="0" type="line"/>
			<point x="616" y="284" type="line"/>
			<point x="684" y="652" type="line"/>
			<point x="496" y="652" type="line"/>
			<point x="444" y="368" type="line"/>
		</contour>
		<contour>
			<point x="512" y="0" type="line"/>
			<point x="836" y="0" type="line"/>
			<point x="872" y="176" type="line"/>
			<point x="788" y="176" type="line"/>
			<point x="708" y="32" type="line"/>
			<point x="808" y="72" type="line"/>
			<point x="512" y="72" type="line"/>
		</contour>
		<contour>
			<point x="548" y="300" type="line"/>
			<point x="716" y="300" type="line"/>
			<point x="716" y="368" type="line"/>
			<point x="548" y="368" type="line"/>
		</contour>
		<contour>
			<point x="608" y="580" type="line"/>
			<point x="860" y="580" type="line"/>
			<point x="792" y="632" type="line"/>
			<point x="824" y="480" type="line"/>
			<point x="904" y="480" type="line"/>
			<point x="928" y="652" type="line"/>
			<point x="608" y="652" type="line"/>
		</contour>
		<contour>
			<point x="696" y="228" type="line"/>
			<point x="772" y="228" type="line"/>
			<point x="812" y="436" type="line"/>
			<point x="736" y="436" type="line"/>
			<point x="688" y="344" type="line"/>
			<point x="688" y="320" type="line"/>
		</contour>
	</outline>
	<anchor name="aboveUC" x="603" y="682"/>
</glyph>
<glyph name="oe" format="2">
	<unicode hex="0153"/>
	<advance width="875"/>
	<outline>
		<contour>
			<point x="234" y="-16" type="curve" smooth="yes"/>
			<point x="322" y="-16"/>
			<point x="394" y="26"/>
			<point x="445" y="99" type="curve"/>
			<point x="522" y="400" type="line"/>
			<point x="485" y="471"/>
			<point x="421" y="503"/>
			<point x="341" y="503" type="curve" smooth="yes"/>
			<point x="164" y="503"/>
			<point x="36" y="343"/>
			<point x="36" y="181" type="curve" smooth="yes"/>
			<point x="36" y="43"/>
			<point x="126" y="-16"/>
		</contour>
		<contour>
			<point x="253" y="44" type="curve" smooth="yes"/>
			<point x="227" y="44"/>
			<point x="206" y="62"/>
			<point x="206" y="139" type="curve" smooth="yes"/>
			<point x="206" y="269"/>
			<point x="254" y="443"/>
			<point x="327" y="443" type="curve" smooth="yes"/>
			<point x="355" y="443"/>
			<point x="374" y="424"/>
			<point x="374" y="354" type="curve" smooth="yes"/>
			<point x="374" y="212"/>
			<point x="324" y="44"/>
		</contour>
		<component base="e" xOffset="311"/>
	</outline>
	<anchor name="aboveLC" x="505" y="520"/>
</glyph>
<glyph name="Uogonek" format="2">
	<unicode hex="0172"/>
	<advance width="724"/>
	<outline>
		<contour>
			<point x="108" y="192" type="curve" smooth="yes"/>
			<point x="108" y="62"/>
			<point x="212" y="-4"/>
			<point x="348" y="-4" type="curve" smooth="yes"/>
			<point x="380" y="-4"/>
			<point x="405" y="0"/>
			<point x="420" y="4" type="curve"/>
			<point x="420" y="-28" type="line"/>
			<point x="360" y="-44"/>
			<point x="304" y="-76"/>
			<point x="304" y="-142" type="curve" smooth="yes"/>
			<point x="304" y="-192"/>
			<point x="340" y="-232"/>
			<point x="408" y="-232" type="curve" smooth="yes"/>
			<point x="476" y="-232"/>
			<point x="516" y="-200"/>
			<point x="532" y="-184" type="curve"/>
			<point x="504" y="-136" type="line"/>
			<point x="500" y="-138"/>
			<point x="486" y="-144"/>
			<point x="468" y="-144" type="curve" smooth="yes"/>
			<point x="438" y="-144"/>
			<point x="420" y="-128"/>
			<point x="420" y="-102" type="curve" smooth="yes"/>
			<point x="420" y="-68"/>
			<point x="436" y="-36"/>
			<point x="504" y="12" type="curve" smooth="yes"/>
			<point x="572" y="60"/>
			<point x="616" y="132"/>
			<point x="636" y="240" type="curve" smooth="yes"/>
			<point x="712" y="652" type="line"/>
			<point x="628" y="652" type="line"/>
			<point x="552" y="236" type="line" smooth="yes"/>
			<point x="532" y="128"/>
			<point x="488" y="76"/>
			<point x="406" y="76" type="curve" smooth="yes"/>
			<point x="332" y="76"/>
			<point x="300" y="116"/>
			<point x="300" y="176" type="curve" smooth="yes"/>
			<point x="300" y="224"/>
			<point x="312" y="280"/>
			<point x="320" y="324" type="curve" smooth="yes"/>
			<point x="380" y="652" type="line"/>
			<point x="184" y="652" type="line"/>
			<point x="132" y="368" type="line"/>
			<point x="124" y="324" type="line" smooth="yes"/>
			<point x="116" y="280"/>
			<point x="108" y="232"/>
		</contour>
		<contour>
			<point x="88" y="576" type="line"/>
			<point x="220" y="576" type="line"/>
			<point x="316" y="576" type="line"/>
			<point x="446" y="576" type="line"/>
			<point x="460" y="652" type="line"/>
			<point x="102" y="652" type="line"/>
		</contour>
		<contour>
			<point x="528" y="576" type="line"/>
			<point x="632" y="576" type="line"/>
			<point x="680" y="576" type="line"/>
			<point x="774" y="576" type="line"/>
			<point x="788" y="652" type="line"/>
			<point x="542" y="652" type="line"/>
		</contour>
	</outline>
	<anchor name="aboveUC" x="481" y="682"/>
	<anchor name="belowLC" x="311" y="-22"/>
	<anchor name="hornLC" x="695" y="681"/>
</glyph>
<glyph name="uogonek" format="2">
	<unicode hex="0173"/>
	<advance width="716"/>
	<outline>
		<contour>
			<point x="202" y="-16" type="curve" smooth="yes"/>
			<point x="300" y="-16"/>
			<point x="344" y="48"/>
			<point x="376" y="112" type="curve"/>
			<point x="420" y="112" type="line"/>
			<point x="420" y="184" type="line"/>
			<point x="376" y="140"/>
			<point x="345" y="116"/>
			<point x="308" y="116" type="curve" smooth="yes"/>
			<point x="280" y="116"/>
			<point x="266" y="134"/>
			<point x="266" y="156" type="curve" smooth="yes"/>
			<point x="266" y="172"/>
			<point x="270" y="188"/>
			<point x="278" y="220" type="curve" smooth="yes"/>
			<point x="348" y="516" type="line"/>
			<point x="284" y="516" type="line"/>
			<point x="44" y="492" type="line"/>
			<point x="44" y="424" type="line"/>
			<point x="196" y="392" type="line"/>
			<point x="132" y="424" type="line"/>
			<point x="80" y="212" type="line" smooth="yes"/>
			<point x="72" y="180"/>
			<point x="64" y="140"/>
			<point x="64" y="108" type="curve" smooth="yes"/>
			<point x="64" y="36"/>
			<point x="116" y="-16"/>
		</contour>
		<contour>
			<point x="408" y="120" type="line"/>
			<point x="407" y="116"/>
			<point x="408" y="114"/>
			<point x="408" y="108" type="curve" smooth="yes"/>
			<point x="408" y="48"/>
			<point x="452" y="4"/>
			<point x="536" y="4" type="curve" smooth="yes"/>
			<point x="550" y="4"/>
			<point x="562" y="5"/>
			<point x="568" y="6" type="curve"/>
			<point x="568" y="-16" type="line"/>
			<point x="504" y="-36"/>
			<point x="448" y="-76"/>
			<point x="448" y="-144" type="curve" smooth="yes"/>
			<point x="448" y="-192"/>
			<point x="484" y="-232"/>
			<point x="552" y="-232" type="curve" smooth="yes"/>
			<point x="620" y="-232"/>
			<point x="660" y="-200"/>
			<point x="676" y="-184" type="curve"/>
			<point x="648" y="-136" type="line"/>
			<point x="644" y="-138"/>
			<point x="630" y="-144"/>
			<point x="612" y="-144" type="curve" smooth="yes"/>
			<point x="582" y="-144"/>
			<point x="564" y="-128"/>
			<point x="564" y="-100" type="curve" smooth="yes"/>
			<point x="564" y="-68"/>
			<point x="580" y="-36"/>
			<point x="624" y="0" type="curve" smooth="yes"/>
			<point x="668" y="36"/>
			<point x="696" y="76"/>
			<point x="716" y="112" type="curve"/>
			<point x="660" y="148" type="line"/>
			<point x="636" y="112"/>
			<point x="628" y="96"/>
			<point x="608" y="96" type="curve" smooth="yes"/>
			<point x="592" y="96"/>
			<point x="584" y="106"/>
			<point x="584" y="122" type="curve" smooth="yes"/>
			<point x="584" y="140"/>
			<point x="590" y="164"/>
			<point x="596" y="192" type="curve" smooth="yes"/>
			<point x="668" y="516" type="line"/>
			<point x="620" y="532" type="line"/>
			<point x="472" y="516" type="line"/>
			<point x="448" y="408" type="line"/>
			<point x="408" y="228" type="line" smooth="yes"/>
			<point x="398" y="184"/>
			<point x="392" y="152"/>
			<point x="392" y="120" type="curve"/>
		</contour>
	</outline>
	<anchor name="aboveLC" x="368" y="520"/>
	<anchor name="belowLC" x="299" y="-22"/>
	<anchor name="hornLC" x="536" y="466"/>
</glyph>
<glyph name="Schwa" format="2">
	<unicode hex="018F"/>
	<advance width="678"/>
	<outline>
		<contour>
			<point x="296" y="-16" type="curve" smooth="yes"/>
			<point x="528" y="-16"/>
			<point x="685" y="167"/>
			<point x="685" y="402" type="curve" smooth="yes"/>
			<point x="685" y="577"/>
			<point x="576" y="668"/>
			<point x="410" y="668" type="curve" smooth="yes"/>
			<point x="277" y="668"/>
			<point x="201" y="616"/>
			<point x="157" y="568" type="curve"/>
			<point x="197" y="512" type="line"/>
			<point x="235" y="540"/>
			<point x="281" y="564"/>
			<point x="355" y="564" type="curve" smooth="yes"/>
			<point x="441" y="564"/>
			<point x="489" y="508"/>
			<point x="489" y="407" type="curve" smooth="yes"/>
			<point x="489" y="218"/>
			<point x="389" y="60"/>
			<point x="308" y="60" type="curve" smooth="yes"/>
			<point x="264" y="60"/>
			<point x="221" y="86"/>
			<point x="221" y="172" type="curve" smooth="yes"/>
			<point x="221" y="228"/>
			<point x="227" y="268"/>
			<point x="237" y="295" type="curve"/>
			<point x="565" y="296" type="line"/>
			<point x="565" y="368" type="line"/>
			<point x="75" y="368" type="line"/>
			<point x="64" y="336"/>
			<point x="51" y="284"/>
			<point x="51" y="220" type="curve" smooth="yes"/>
			<point x="51" y="73"/>
			<point x="131" y="-16"/>
		</contour>
	</outline>
	<anchor name="aboveUC" x="358" y="672"/>
	<anchor name="belowLC" x="262" y="-20"/>
</glyph>
<glyph name="florin" format="2">
	<unicode hex="0192"/>
	<advance width="600"/>
	<outline>
		<contour>
			<point x="139" y="328" type="line"/>
			<point x="512" y="328" type="line"/>
			<point x="523" y="392" type="line"/>
			<point x="150" y="392" type="line"/>
		</contour>
		<contour>
			<point x="204" y="96" type="line" smooth="yes"/>
			<point x="192" y="20"/>
			<point x="186" y="-2"/>
			<point x="180" y="-20" type="curve" smooth="yes"/>
			<point x="174" y="-38"/>
			<point x="166" y="-56"/>
			<point x="160" y="-64" type="curve"/>
			<point x="80" y="-64" type="line"/>
			<point x="136" y="-80" type="line"/>
			<point x="120" y="-16" type="line" smooth="yes"/>
			<point x="108" y="30"/>
			<point x="88" y="48"/>
			<point x="48" y="48" type="curve" smooth="yes"/>
			<point x="8" y="48"/>
			<point x="-12" y="20"/>
			<point x="-16" y="-20" type="curve"/>
			<point x="0" y="-68"/>
			<point x="48" y="-104"/>
			<point x="136" y="-104" type="curve" smooth="yes"/>
			<point x="200" y="-104"/>
			<point x="240" y="-88"/>
			<point x="272" y="-64" type="curve" smooth="yes"/>
			<point x="304" y="-40"/>
			<point x="360" y="-4"/>
			<point x="384" y="152" type="curve" smooth="yes"/>
			<point x="428" y="440" type="line" smooth="yes"/>
			<point x="440" y="516"/>
			<point x="446" y="538"/>
			<point x="452" y="556" type="curve" smooth="yes"/>
			<point x="458" y="574"/>
			<point x="466" y="592"/>
			<point x="472" y="600" type="curve"/>
			<point x="552" y="600" type="line"/>
			<point x="496" y="616" type="line"/>
			<point x="512" y="552" type="line" smooth="yes"/>
			<point x="524" y="506"/>
			<point x="544" y="488"/>
			<point x="584" y="488" type="curve" smooth="yes"/>
			<point x="624" y="488"/>
			<point x="644" y="516"/>
			<point x="648" y="556" type="curve"/>
			<point x="632" y="604"/>
			<point x="584" y="640"/>
			<point x="496" y="640" type="curve" smooth="yes"/>
			<point x="432" y="640"/>
			<point x="392" y="624"/>
			<point x="360" y="600" type="curve" smooth="yes"/>
			<point x="328" y="576"/>
			<point x="272" y="540"/>
			<point x="248" y="384" type="curve" smooth="yes"/>
		</contour>
	</outline>
</glyph>
<glyph name="Uhorn" format="2">
	<unicode hex="01AF"/>
	<advance width="740"/>
	<outline>
		<contour>
			<point x="108" y="192" type="curve" smooth="yes"/>
			<point x="108" y="56"/>
			<point x="212" y="-16"/>
			<point x="350" y="-16" type="curve" smooth="yes"/>
			<point x="520" y="-16"/>
			<point x="606" y="76"/>
			<point x="636" y="240" type="curve" smooth="yes"/>
			<point x="712" y="652" type="line"/>
			<point x="628" y="652" type="line"/>
			<point x="552" y="236" type="line" smooth="yes"/>
			<point x="532" y="124"/>
			<point x="488" y="68"/>
			<point x="406" y="68" type="curve" smooth="yes"/>
			<point x="332" y="68"/>
			<point x="300" y="112"/>
			<point x="300" y="176" type="curve" smooth="yes"/>
			<point x="300" y="224"/>
			<point x="312" y="280"/>
			<point x="320" y="324" type="curve" smooth="yes"/>
			<point x="380" y="652" type="line"/>
			<point x="184" y="652" type="line"/>
			<point x="167" y="557"/>
			<point x="149" y="463"/>
			<point x="132" y="368" type="curve" smooth="yes"/>
			<point x="124" y="324" type="line" smooth="yes"/>
			<point x="116" y="280"/>
			<point x="108" y="232"/>
		</contour>
		<contour>
			<point x="688" y="580" type="line"/>
			<point x="788" y="592"/>
			<point x="828" y="648"/>
			<point x="828" y="736" type="curve" smooth="yes"/>
			<point x="828" y="768"/>
			<point x="823" y="793"/>
			<point x="813" y="813" type="curve"/>
			<point x="803" y="819"/>
			<point x="789" y="824"/>
			<point x="768" y="824" type="curve" smooth="yes"/>
			<point x="724" y="824"/>
			<point x="692" y="800"/>
			<point x="692" y="760" type="curve" smooth="yes"/>
			<point x="692" y="720"/>
			<point x="724" y="704"/>
			<point x="724" y="680" type="curve" smooth="yes"/>
			<point x="724" y="664"/>
			<point x="712" y="652"/>
			<point x="688" y="652" type="curve"/>
		</contour>
		<contour>
			<point x="88" y="576" type="line"/>
			<point x="220" y="576" type="line"/>
			<point x="316" y="576" type="line"/>
			<point x="446" y="576" type="line"/>
			<point x="460" y="652" type="line"/>
			<point x="102" y="652" type="line"/>
		</contour>
		<contour>
			<point x="528" y="576" type="line"/>
			<point x="632" y="576" type="line"/>
			<point x="648" y="576" type="line"/>
			<point x="648" y="652" type="line"/>
			<point x="542" y="652" type="line"/>
		</contour>
	</outline>
	<anchor name="aboveUC" x="481" y="682"/>
	<anchor name="belowLC" x="311" y="-22"/>
</glyph>
<glyph name="uhorn" format="2">
	<unicode hex="01B0"/>
	<advance width="715"/>
	<outline>
		<contour>
			<point x="182" y="-16" type="curve" smooth="yes"/>
			<point x="280" y="-16"/>
			<point x="332" y="28"/>
			<point x="374" y="92" type="curve"/>
			<point x="418" y="92" type="line"/>
			<point x="420" y="154" type="line"/>
			<point x="376" y="130"/>
			<point x="345" y="116"/>
			<point x="308" y="116" type="curve" smooth="yes"/>
			<point x="280" y="116"/>
			<point x="266" y="134"/>
			<point x="266" y="156" type="curve" smooth="yes"/>
			<point x="266" y="172"/>
			<point x="270" y="188"/>
			<point x="278" y="220" type="curve" smooth="yes"/>
			<point x="348" y="516" type="line"/>
			<point x="264" y="526" type="line"/>
			<point x="53" y="461" type="line"/>
			<point x="39" y="392" type="line"/>
			<point x="196" y="392" type="line"/>
			<point x="132" y="424" type="line"/>
			<point x="80" y="212" type="line" smooth="yes"/>
			<point x="72" y="180"/>
			<point x="64" y="140"/>
			<point x="64" y="90" type="curve" smooth="yes"/>
			<point x="64" y="36"/>
			<point x="96" y="-16"/>
		</contour>
		<contour>
			<point x="518" y="-16" type="curve" smooth="yes"/>
			<point x="623" y="-16"/>
			<point x="671" y="50"/>
			<point x="709" y="117" type="curve"/>
			<point x="660" y="148" type="line"/>
			<point x="636" y="112"/>
			<point x="628" y="96"/>
			<point x="608" y="96" type="curve" smooth="yes"/>
			<point x="592" y="96"/>
			<point x="584" y="106"/>
			<point x="584" y="122" type="curve" smooth="yes"/>
			<point x="584" y="136"/>
			<point x="590" y="164"/>
			<point x="596" y="192" type="curve" smooth="yes"/>
			<point x="668" y="516" type="line"/>
			<point x="599" y="484" type="line"/>
			<point x="697" y="494"/>
			<point x="788" y="557"/>
			<point x="788" y="661" type="curve" smooth="yes"/>
			<point x="788" y="675"/>
			<point x="783" y="699"/>
			<point x="776" y="711" type="curve"/>
			<point x="764" y="717"/>
			<point x="753" y="722"/>
			<point x="728" y="722" type="curve" smooth="yes"/>
			<point x="688" y="722"/>
			<point x="660" y="682"/>
			<point x="660" y="638" type="curve" smooth="yes"/>
			<point x="660" y="599"/>
			<point x="677" y="587"/>
			<point x="677" y="565" type="curve" smooth="yes"/>
			<point x="677" y="538"/>
			<point x="640" y="527"/>
			<point x="599" y="523" type="curve" smooth="yes"/>
			<point x="470" y="506" type="line"/>
			<point x="459" y="454"/>
			<point x="449" y="412"/>
			<point x="438" y="360" type="curve" smooth="yes"/>
			<point x="386" y="115" type="line"/>
			<point x="399" y="115" type="line"/>
			<point x="399" y="109"/>
			<point x="398" y="103"/>
			<point x="398" y="97" type="curve" smooth="yes"/>
			<point x="398" y="20"/>
			<point x="431" y="-16"/>
		</contour>
	</outline>
	<anchor name="aboveLC" x="405" y="536"/>
	<anchor name="belowLC" x="345" y="-20"/>
</glyph>
<glyph name="dotlessj" format="2">
	<unicode hex="0237"/>
	<advance width="346"/>
	<outline>
		<contour>
			<point x="-48" y="-232" type="line"/>
			<point x="35" y="-217"/>
			<point x="93" y="-187"/>
			<point x="140" y="-140" type="curve" smooth="yes"/>
			<point x="188" y="-92"/>
			<point x="220" y="-28"/>
			<point x="240" y="72" type="curve" smooth="yes"/>
			<point x="328" y="516" type="line"/>
			<point x="244" y="526" type="line"/>
			<point x="32" y="460" type="line"/>
			<point x="18" y="392" type="line"/>
			<point x="168" y="392" type="line"/>
			<point x="112" y="424" type="line"/>
			<point x="44" y="24" type="line" smooth="yes"/>
			<point x="36" y="-24"/>
			<point x="28" y="-56"/>
			<point x="12" y="-88" type="curve" smooth="yes"/>
			<point x="-4" y="-119"/>
			<point x="-22" y="-154"/>
			<point x="-72" y="-172" type="curve"/>
		</contour>
	</outline>
	<anchor name="aboveLC" x="224" y="536"/>
</glyph>
<glyph name="gscript" format="2">
	<unicode hex="0261"/>
	<advance width="668"/>
	<outline>
		<contour>
			<point x="208" y="-232" type="curve" smooth="yes"/>
			<point x="328" y="-232"/>
			<point x="404" y="-204"/>
			<point x="452" y="-156" type="curve" smooth="yes"/>
			<point x="500" y="-108"/>
			<point x="536" y="-52"/>
			<point x="552" y="164" type="curve"/>
			<point x="593" y="357" type="line"/>
			<point x="632" y="540" type="line"/>
			<point x="552" y="540" type="line"/>
			<point x="452" y="460" type="line"/>
			<point x="420" y="460" type="line"/>
			<point x="344" y="116" type="line"/>
			<point x="368" y="116" type="line"/>
			<point x="352" y="-44"/>
			<point x="336" y="-88"/>
			<point x="300" y="-124" type="curve" smooth="yes"/>
			<point x="264" y="-160"/>
			<point x="224" y="-176"/>
			<point x="160" y="-176" type="curve" smooth="yes"/>
			<point x="128" y="-176"/>
			<point x="104" y="-172"/>
			<point x="88" y="-168" type="curve"/>
			<point x="176" y="-204" type="line"/>
			<point x="168" y="-136" type="line" smooth="yes"/>
			<point x="160" y="-64"/>
			<point x="124" y="-40"/>
			<point x="76" y="-40" type="curve" smooth="yes"/>
			<point x="28" y="-40"/>
			<point x="8" y="-72"/>
			<point x="0" y="-108" type="curve"/>
			<point x="16" y="-168"/>
			<point x="88" y="-232"/>
		</contour>
		<contour>
			<point x="188" y="4" type="curve" smooth="yes"/>
			<point x="280" y="4"/>
			<point x="312" y="68"/>
			<point x="332" y="108" type="curve"/>
			<point x="372" y="108" type="line"/>
			<point x="372" y="180" type="line"/>
			<point x="344" y="152"/>
			<point x="320" y="128"/>
			<point x="288" y="128" type="curve" smooth="yes"/>
			<point x="248" y="128"/>
			<point x="224" y="156"/>
			<point x="224" y="216" type="curve" smooth="yes"/>
			<point x="224" y="264"/>
			<point x="240" y="314"/>
			<point x="256" y="348" type="curve" smooth="yes"/>
			<point x="272" y="384"/>
			<point x="304" y="444"/>
			<point x="376" y="444" type="curve" smooth="yes"/>
			<point x="424" y="444"/>
			<point x="456" y="428"/>
			<point x="504" y="388" type="curve"/>
			<point x="504" y="492" type="line"/>
			<point x="488" y="500"/>
			<point x="440" y="516"/>
			<point x="368" y="516" type="curve" smooth="yes"/>
			<point x="176" y="516"/>
			<point x="32" y="352"/>
			<point x="32" y="176" type="curve" smooth="yes"/>
			<point x="32" y="68"/>
			<point x="100" y="4"/>
		</contour>
	</outline>
	<anchor name="aboveLC" x="407" y="551"/>
	<anchor name="belowLC" x="183" y="-220"/>
</glyph>
<glyph name="h.sups" format="2">
	<unicode hex="02B0"/>
	<advance width="500"/>
	<outline>
		<contour>
			<point x="144" y="392" type="line"/>
			<point x="256" y="404" type="line"/>
			<point x="264" y="439"/>
			<point x="271" y="475"/>
			<point x="279" y="510" type="curve" smooth="yes"/>
			<point x="311" y="656" type="line"/>
			<point x="287" y="656" type="line"/>
			<point x="361" y="890" type="line"/>
			<point x="314" y="890" type="line"/>
			<point x="138" y="867" type="line"/>
			<point x="138" y="819" type="line"/>
			<point x="247" y="802" type="line"/>
			<point x="198" y="823" type="line"/>
			<point x="188" y="777"/>
			<point x="179" y="732"/>
			<point x="169" y="686" type="curve" smooth="yes"/>
			<point x="108" y="404" type="line"/>
		</contour>
		<contour>
			<point x="464" y="396" type="curve" smooth="yes"/>
			<point x="541" y="396"/>
			<point x="568" y="437"/>
			<point x="596" y="480" type="curve"/>
			<point x="554" y="505" type="line"/>
			<point x="539" y="484"/>
			<point x="534" y="473"/>
			<point x="521" y="473" type="curve" smooth="yes"/>
			<point x="502" y="473"/>
			<point x="503" y="491"/>
			<point x="512" y="531" type="curve" smooth="yes"/>
			<point x="532" y="617" type="line" smooth="yes"/>
			<point x="538" y="638"/>
			<point x="543" y="659"/>
			<point x="543" y="680" type="curve" smooth="yes"/>
			<point x="542" y="729"/>
			<point x="504" y="762"/>
			<point x="440" y="762" type="curve" smooth="yes"/>
			<point x="367" y="762"/>
			<point x="340" y="719"/>
			<point x="321" y="678" type="curve"/>
			<point x="286" y="678" type="line"/>
			<point x="287" y="628" type="line"/>
			<point x="316" y="656"/>
			<point x="338" y="668"/>
			<point x="360" y="668" type="curve" smooth="yes"/>
			<point x="379" y="668"/>
			<point x="389" y="658"/>
			<point x="389" y="646" type="curve" smooth="yes"/>
			<point x="389" y="636"/>
			<point x="387" y="628"/>
			<point x="382" y="606" type="curve" smooth="yes"/>
			<point x="367" y="544" type="line" smooth="yes"/>
			<point x="361" y="522"/>
			<point x="359" y="500"/>
			<point x="359" y="484" type="curve" smooth="yes"/>
			<point x="360" y="430"/>
			<point x="399" y="396"/>
		</contour>
	</outline>
</glyph>
<glyph name="j.sups" format="2">
	<unicode hex="02B2"/>
	<advance width="265"/>
	<outline>
		<contour>
			<point x="49" y="247" type="line"/>
			<point x="111" y="258"/>
			<point x="156" y="277"/>
			<point x="190" y="310" type="curve" smooth="yes"/>
			<point x="224" y="343"/>
			<point x="246" y="387"/>
			<point x="260" y="454" type="curve" smooth="yes"/>
			<point x="321" y="753" type="line"/>
			<point x="261" y="760" type="line"/>
			<point x="112" y="715" type="line"/>
			<point x="102" y="668" type="line"/>
			<point x="207" y="668" type="line"/>
			<point x="167" y="689" type="line"/>
			<point x="120" y="420" type="line" smooth="yes"/>
			<point x="115" y="390"/>
			<point x="110" y="368"/>
			<point x="99" y="347" type="curve" smooth="yes"/>
			<point x="88" y="325"/>
			<point x="72" y="303"/>
			<point x="32" y="289" type="curve"/>
		</contour>
		<contour>
			<point x="267" y="794" type="curve" smooth="yes"/>
			<point x="312" y="794"/>
			<point x="342" y="828"/>
			<point x="342" y="865" type="curve" smooth="yes"/>
			<point x="342" y="899"/>
			<point x="316" y="922"/>
			<point x="278" y="922" type="curve" smooth="yes"/>
			<point x="233" y="922"/>
			<point x="203" y="888"/>
			<point x="203" y="852" type="curve" smooth="yes"/>
			<point x="203" y="817"/>
			<point x="228" y="794"/>
		</contour>
	</outline>
</glyph>
<glyph name="r.sups" format="2">
	<unicode hex="02B3"/>
	<advance width="400"/>
	<outline>
		<contour>
			<point x="265" y="502" type="line"/>
			<point x="312" y="621"/>
			<point x="328" y="653"/>
			<point x="340" y="670" type="curve"/>
			<point x="380" y="670" type="line"/>
			<point x="339" y="697" type="line"/>
			<point x="363" y="659"/>
			<point x="377" y="641"/>
			<point x="416" y="641" type="curve" smooth="yes"/>
			<point x="458" y="641"/>
			<point x="478" y="671"/>
			<point x="484" y="702" type="curve"/>
			<point x="478" y="731"/>
			<point x="454" y="759"/>
			<point x="407" y="759" type="curve" smooth="yes"/>
			<point x="357" y="759"/>
			<point x="325" y="723"/>
			<point x="299" y="629" type="curve"/>
			<point x="264" y="629" type="line"/>
		</contour>
		<contour>
			<point x="113" y="404" type="line"/>
			<point x="149" y="392" type="line"/>
			<point x="261" y="404" type="line"/>
			<point x="293" y="561" type="line"/>
			<point x="304" y="611" type="line"/>
			<point x="300" y="754" type="line"/>
			<point x="252" y="754" type="line"/>
			<point x="107" y="715" type="line"/>
			<point x="108" y="667" type="line"/>
			<point x="215" y="667" type="line"/>
			<point x="171" y="688" type="line"/>
		</contour>
	</outline>
</glyph>
<glyph name="w.sups" format="2">
	<unicode hex="02B7"/>
	<advance width="664"/>
	<outline>
		<contour>
			<point x="206" y="404" type="curve"/>
			<point x="375" y="404" type="line"/>
			<point x="407" y="488"/>
			<point x="428" y="572"/>
			<point x="437" y="647" type="curve"/>
			<point x="448" y="647" type="line"/>
			<point x="449" y="566"/>
			<point x="450" y="485"/>
			<point x="451" y="404" type="curve"/>
			<point x="602" y="404" type="line"/>
			<point x="644" y="463"/>
			<point x="698" y="570"/>
			<point x="712" y="605" type="curve" smooth="yes"/>
			<point x="727" y="642"/>
			<point x="737" y="676"/>
			<point x="737" y="711" type="curve" smooth="yes"/>
			<point x="737" y="731"/>
			<point x="733" y="745"/>
			<point x="730" y="754" type="curve"/>
			<point x="721" y="758"/>
			<point x="705" y="762"/>
			<point x="684" y="762" type="curve" smooth="yes"/>
			<point x="642" y="762"/>
			<point x="616" y="737"/>
			<point x="616" y="699" type="curve" smooth="yes"/>
			<point x="616" y="674"/>
			<point x="625" y="656"/>
			<point x="672" y="580" type="curve"/>
			<point x="671" y="675" type="line"/>
			<point x="669" y="666"/>
			<point x="662" y="638"/>
			<point x="659" y="622" type="curve" smooth="yes"/>
			<point x="645" y="556"/>
			<point x="624" y="509"/>
			<point x="588" y="437" type="curve"/>
			<point x="561" y="437" type="line"/>
			<point x="560" y="540"/>
			<point x="559" y="642"/>
			<point x="558" y="745" type="curve"/>
			<point x="411" y="745" type="line"/>
			<point x="396" y="605"/>
			<point x="373" y="510"/>
			<point x="350" y="437" type="curve"/>
			<point x="326" y="437" type="line"/>
			<point x="325" y="521"/>
			<point x="324" y="612"/>
			<point x="319" y="673" type="curve" smooth="yes"/>
			<point x="314" y="732"/>
			<point x="278" y="762"/>
			<point x="221" y="762" type="curve" smooth="yes"/>
			<point x="167" y="762"/>
			<point x="129" y="732"/>
			<point x="89" y="676" type="curve"/>
			<point x="131" y="650" type="line"/>
			<point x="146" y="670"/>
			<point x="154" y="673"/>
			<point x="164" y="673" type="curve" smooth="yes"/>
			<point x="173" y="673"/>
			<point x="178" y="669"/>
			<point x="182" y="654" type="curve" smooth="yes"/>
			<point x="195" y="588"/>
			<point x="202" y="483"/>
		</contour>
	</outline>
</glyph>
<glyph name="y.sups" format="2">
	<unicode hex="02B8"/>
	<advance width="451"/>
	<outline>
		<contour>
			<point x="43" y="366"/>
			<point x="26" y="341"/>
			<point x="20" y="316" type="curve"/>
			<point x="27" y="282"/>
			<point x="48" y="258"/>
			<point x="111" y="258" type="curve" smooth="yes"/>
			<point x="174" y="258"/>
			<point x="216" y="291"/>
			<point x="244" y="320" type="curve" smooth="yes"/>
			<point x="272" y="350"/>
			<point x="294" y="373"/>
			<point x="324" y="414" type="curve" smooth="yes"/>
			<point x="355" y="454"/>
			<point x="395" y="515"/>
			<point x="417" y="547" type="curve" smooth="yes"/>
			<point x="440" y="579"/>
			<point x="461" y="613"/>
			<point x="478" y="643" type="curve" smooth="yes"/>
			<point x="495" y="673"/>
			<point x="512" y="703"/>
			<point x="512" y="731" type="curve" smooth="yes"/>
			<point x="512" y="758"/>
			<point x="492" y="775"/>
			<point x="461" y="775" type="curve" smooth="yes"/>
			<point x="421" y="775"/>
			<point x="403" y="753"/>
			<point x="384" y="672" type="curve" smooth="yes"/>
			<point x="366" y="593"/>
			<point x="348" y="520"/>
			<point x="331" y="455" type="curve"/>
			<point x="305" y="428"/>
			<point x="280" y="406"/>
			<point x="255" y="379" type="curve" smooth="yes"/>
			<point x="230" y="352"/>
			<point x="192" y="315"/>
			<point x="164" y="288" type="curve"/>
			<point x="188" y="299" type="line"/>
			<point x="134" y="299" type="line"/>
			<point x="149" y="288" type="line"/>
			<point x="136" y="341"/>
			<point x="119" y="366"/>
			<point x="78" y="366" type="curve" smooth="yes"/>
		</contour>
		<contour>
			<point x="314" y="464" type="line"/>
			<point x="307" y="544"/>
			<point x="300" y="622"/>
			<point x="292" y="696" type="curve" smooth="yes"/>
			<point x="285" y="753"/>
			<point x="263" y="772"/>
			<point x="216" y="772" type="curve" smooth="yes"/>
			<point x="162" y="772"/>
			<point x="128" y="746"/>
			<point x="85" y="695" type="curve"/>
			<point x="107" y="665" type="line"/>
			<point x="120" y="674"/>
			<point x="132" y="683"/>
			<point x="141" y="683" type="curve" smooth="yes"/>
			<point x="151" y="683"/>
			<point x="159" y="679"/>
			<point x="163" y="661" type="curve" smooth="yes"/>
			<point x="179" y="581"/>
			<point x="205" y="450"/>
			<point x="220" y="319" type="curve"/>
			<point x="353" y="464" type="line"/>
		</contour>
	</outline>
</glyph>
<glyph name="ringhalfrightmod" format="2">
	<unicode hex="02BE"/>
	<advance width="230"/>
	<outline>
		<contour>
			<point x="273" y="640" type="curve" smooth="yes"/>
			<point x="273" y="708"/>
			<point x="221" y="752"/>
			<point x="139" y="756" type="curve"/>
			<point x="127" y="692" type="line"/>
			<point x="161" y="688"/>
			<point x="185" y="668"/>
			<point x="185" y="634" type="curve" smooth="yes"/>
			<point x="185" y="592"/>
			<point x="157" y="560"/>
			<point x="104" y="556" type="curve"/>
			<point x="92" y="492" type="line"/>
			<point x="213" y="496"/>
			<point x="273" y="560"/>
		</contour>
	</outline>
</glyph>
